<svg width="739" height="1001" viewBox="0 0 739 1001" fill="none" xmlns="http://www.w3.org/2000/svg">
<line x1="1.5" y1="-1.5" x2="98.9378" y2="-1.5" transform="matrix(0.66103 -0.75036 0.636203 0.771522 361.697 638.99)" stroke="url(#paint0_linear)" stroke-width="3" stroke-linecap="round" stroke-linejoin="round"/>
<line x1="2.5" y1="-2.5" x2="228.39" y2="-2.5" transform="matrix(0.65993 -0.751327 0.637334 0.770588 353.62 670.12)" stroke="url(#paint1_linear)" stroke-width="5" stroke-linecap="round" stroke-linejoin="round"/>
<line x1="1.5" y1="-1.5" x2="98.9378" y2="-1.5" transform="matrix(0.66103 -0.75036 0.636203 0.771522 361.497 726.963)" stroke="url(#paint2_linear)" stroke-width="3" stroke-linecap="round" stroke-linejoin="round"/>
<line x1="2.5" y1="-2.5" x2="228.39" y2="-2.5" transform="matrix(0.65993 -0.751327 0.637334 0.770588 353.421 758.094)" stroke="url(#paint3_linear)" stroke-width="5" stroke-linecap="round" stroke-linejoin="round"/>
<line x1="1.5" y1="-1.5" x2="98.9378" y2="-1.5" transform="matrix(0.66103 -0.75036 0.636203 0.771522 561.798 485.327)" stroke="url(#paint4_linear)" stroke-width="3" stroke-linecap="round" stroke-linejoin="round"/>
<path d="M332.091 537.473L396.545 464.309" stroke="url(#paint5_linear)" stroke-opacity="0.6" stroke-width="3" stroke-linecap="round" stroke-linejoin="round"/>
<line x1="1.5" y1="-1.5" x2="98.9378" y2="-1.5" transform="matrix(0.66103 -0.75036 0.636203 0.771522 585.873 624.583)" stroke="url(#paint6_linear)" stroke-width="3" stroke-linecap="round" stroke-linejoin="round"/>
<line x1="1.5" y1="-1.5" x2="98.9378" y2="-1.5" transform="matrix(0.66103 -0.75036 0.636203 0.771522 532.825 389.969)" stroke="url(#paint7_linear)" stroke-width="3" stroke-linecap="round" stroke-linejoin="round"/>
<line x1="2.5" y1="-2.5" x2="228.39" y2="-2.5" transform="matrix(0.65993 -0.751327 0.637334 0.770588 582.104 647.973)" stroke="url(#paint8_linear)" stroke-width="5" stroke-linecap="round" stroke-linejoin="round"/>
<line x1="2.5" y1="-2.5" x2="228.39" y2="-2.5" transform="matrix(0.65993 -0.751327 0.637334 0.770588 693.46 394.909)" stroke="url(#paint9_linear)" stroke-width="5" stroke-linecap="round" stroke-linejoin="round"/>
<line x1="1.5" y1="-1.5" x2="98.9378" y2="-1.5" transform="matrix(0.66103 -0.75036 0.636203 0.771522 566.697 871.99)" stroke="url(#paint10_linear)" stroke-width="3" stroke-linecap="round" stroke-linejoin="round"/>
<line x1="2.5" y1="-2.5" x2="228.39" y2="-2.5" transform="matrix(0.65993 -0.751327 0.637334 0.770588 558.62 903.12)" stroke="url(#paint11_linear)" stroke-width="5" stroke-linecap="round" stroke-linejoin="round"/>
<line x1="1.5" y1="-1.5" x2="98.9378" y2="-1.5" transform="matrix(0.66103 -0.75036 0.636203 0.771522 566.497 959.963)" stroke="url(#paint12_linear)" stroke-width="3" stroke-linecap="round" stroke-linejoin="round"/>
<line x1="2.5" y1="-2.5" x2="228.39" y2="-2.5" transform="matrix(0.65993 -0.751327 0.637334 0.770588 558.421 991.094)" stroke="url(#paint13_linear)" stroke-width="5" stroke-linecap="round" stroke-linejoin="round"/>
<path d="M537.091 770.473L601.545 697.309" stroke="url(#paint14_linear)" stroke-opacity="0.6" stroke-width="3" stroke-linecap="round" stroke-linejoin="round"/>
<line x1="1.5" y1="-1.5" x2="98.9378" y2="-1.5" transform="matrix(0.66103 -0.75036 0.636203 0.771522 737.825 622.969)" stroke="url(#paint15_linear)" stroke-width="3" stroke-linecap="round" stroke-linejoin="round"/>
<line x1="1.5" y1="-1.5" x2="98.9378" y2="-1.5" transform="matrix(-0.66103 0.75036 -0.636203 -0.771522 689.135 134.066)" stroke="url(#paint16_linear)" stroke-width="3" stroke-linecap="round" stroke-linejoin="round"/>
<line x1="2.5" y1="-2.5" x2="228.39" y2="-2.5" transform="matrix(-0.65993 0.751327 -0.637334 -0.770588 697.212 102.936)" stroke="url(#paint17_linear)" stroke-width="5" stroke-linecap="round" stroke-linejoin="round"/>
<line x1="1.5" y1="-1.5" x2="98.9378" y2="-1.5" transform="matrix(-0.66103 0.75036 -0.636203 -0.771522 689.335 46.093)" stroke="url(#paint18_linear)" stroke-width="3" stroke-linecap="round" stroke-linejoin="round"/>
<line x1="2.5" y1="-2.5" x2="228.39" y2="-2.5" transform="matrix(-0.65993 0.751327 -0.637334 -0.770588 697.411 14.9626)" stroke="url(#paint19_linear)" stroke-width="5" stroke-linecap="round" stroke-linejoin="round"/>
<line x1="1.5" y1="-1.5" x2="98.9378" y2="-1.5" transform="matrix(-0.66103 0.75036 -0.636203 -0.771522 489.034 287.729)" stroke="url(#paint20_linear)" stroke-width="3" stroke-linecap="round" stroke-linejoin="round"/>
<path d="M718.741 235.583L654.287 308.747" stroke="url(#paint21_linear)" stroke-opacity="0.6" stroke-width="3" stroke-linecap="round" stroke-linejoin="round"/>
<line x1="1.5" y1="-1.5" x2="98.9378" y2="-1.5" transform="matrix(-0.66103 0.75036 -0.636203 -0.771522 464.959 148.474)" stroke="url(#paint22_linear)" stroke-width="3" stroke-linecap="round" stroke-linejoin="round"/>
<line x1="1.5" y1="-1.5" x2="98.9378" y2="-1.5" transform="matrix(-0.66103 0.75036 -0.636203 -0.771522 518.007 383.087)" stroke="url(#paint23_linear)" stroke-width="3" stroke-linecap="round" stroke-linejoin="round"/>
<line x1="2.5" y1="-2.5" x2="228.39" y2="-2.5" transform="matrix(-0.65993 0.751327 -0.637334 -0.770588 468.728 125.083)" stroke="url(#paint24_linear)" stroke-width="5" stroke-linecap="round" stroke-linejoin="round"/>
<line x1="2.5" y1="-2.5" x2="228.39" y2="-2.5" transform="matrix(-0.65993 0.751327 -0.637334 -0.770588 357.372 378.147)" stroke="url(#paint25_linear)" stroke-width="5" stroke-linecap="round" stroke-linejoin="round"/>
<line x1="2.5" y1="-2.5" x2="228.39" y2="-2.5" transform="matrix(-0.65993 0.751327 -0.637334 -0.770588 492.212 -130.064)" stroke="url(#paint26_linear)" stroke-width="5" stroke-linecap="round" stroke-linejoin="round"/>
<line x1="1.5" y1="-1.5" x2="98.9378" y2="-1.5" transform="matrix(-0.66103 0.75036 -0.636203 -0.771522 284.034 54.7295)" stroke="url(#paint27_linear)" stroke-width="3" stroke-linecap="round" stroke-linejoin="round"/>
<path d="M513.741 2.58301L449.287 75.7473" stroke="url(#paint28_linear)" stroke-opacity="0.6" stroke-width="3" stroke-linecap="round" stroke-linejoin="round"/>
<line x1="1.5" y1="-1.5" x2="98.9378" y2="-1.5" transform="matrix(-0.66103 0.75036 -0.636203 -0.771522 313.007 150.087)" stroke="url(#paint29_linear)" stroke-width="3" stroke-linecap="round" stroke-linejoin="round"/>
<line x1="2.5" y1="-2.5" x2="228.39" y2="-2.5" transform="matrix(-0.65993 0.751327 -0.637334 -0.770588 263.728 -107.917)" stroke="url(#paint30_linear)" stroke-width="5" stroke-linecap="round" stroke-linejoin="round"/>
<line x1="2.5" y1="-2.5" x2="228.39" y2="-2.5" transform="matrix(-0.65993 0.751327 -0.637334 -0.770588 152.372 145.147)" stroke="url(#paint31_linear)" stroke-width="5" stroke-linecap="round" stroke-linejoin="round"/>
<defs>
<linearGradient id="paint0_linear" x1="53.6607" y1="-4.47599" x2="135.173" y2="-4.17241" gradientUnits="userSpaceOnUse">
<stop stop-color="#303547"/>
<stop offset="1" stop-opacity="0"/>
</linearGradient>
<linearGradient id="paint1_linear" x1="36.2117" y1="-0.103312" x2="310.749" y2="-1.65039" gradientUnits="userSpaceOnUse">
<stop stop-color="#303547"/>
<stop offset="1" stop-opacity="0"/>
</linearGradient>
<linearGradient id="paint2_linear" x1="53.6607" y1="-4.47599" x2="135.173" y2="-4.17241" gradientUnits="userSpaceOnUse">
<stop stop-color="#303547"/>
<stop offset="1" stop-opacity="0"/>
</linearGradient>
<linearGradient id="paint3_linear" x1="36.2117" y1="-0.103312" x2="310.749" y2="-1.65039" gradientUnits="userSpaceOnUse">
<stop stop-color="#303547"/>
<stop offset="1" stop-opacity="0"/>
</linearGradient>
<linearGradient id="paint4_linear" x1="53.6607" y1="-4.47599" x2="135.173" y2="-4.17241" gradientUnits="userSpaceOnUse">
<stop stop-color="#303547"/>
<stop offset="1" stop-opacity="0"/>
</linearGradient>
<linearGradient id="paint5_linear" x1="402.041" y1="515.013" x2="464.288" y2="464.068" gradientUnits="userSpaceOnUse">
<stop stop-color="#303547"/>
<stop offset="1" stop-opacity="0"/>
</linearGradient>
<linearGradient id="paint6_linear" x1="53.6607" y1="-4.47599" x2="135.173" y2="-4.17241" gradientUnits="userSpaceOnUse">
<stop stop-color="#303547"/>
<stop offset="1" stop-opacity="0"/>
</linearGradient>
<linearGradient id="paint7_linear" x1="53.6607" y1="-4.47599" x2="135.173" y2="-4.17241" gradientUnits="userSpaceOnUse">
<stop stop-color="#303547"/>
<stop offset="1" stop-opacity="0"/>
</linearGradient>
<linearGradient id="paint8_linear" x1="36.2117" y1="-0.103312" x2="310.749" y2="-1.65039" gradientUnits="userSpaceOnUse">
<stop stop-color="#303547"/>
<stop offset="1" stop-opacity="0"/>
</linearGradient>
<linearGradient id="paint9_linear" x1="36.2117" y1="-0.103312" x2="310.749" y2="-1.65039" gradientUnits="userSpaceOnUse">
<stop stop-color="#303547"/>
<stop offset="1" stop-opacity="0"/>
</linearGradient>
<linearGradient id="paint10_linear" x1="53.6607" y1="-4.47599" x2="135.173" y2="-4.17241" gradientUnits="userSpaceOnUse">
<stop stop-color="#303547"/>
<stop offset="1" stop-opacity="0"/>
</linearGradient>
<linearGradient id="paint11_linear" x1="36.2117" y1="-0.103312" x2="310.749" y2="-1.65039" gradientUnits="userSpaceOnUse">
<stop stop-color="#303547"/>
<stop offset="1" stop-opacity="0"/>
</linearGradient>
<linearGradient id="paint12_linear" x1="53.6607" y1="-4.47599" x2="135.173" y2="-4.17241" gradientUnits="userSpaceOnUse">
<stop stop-color="#303547"/>
<stop offset="1" stop-opacity="0"/>
</linearGradient>
<linearGradient id="paint13_linear" x1="36.2117" y1="-0.103312" x2="310.749" y2="-1.65039" gradientUnits="userSpaceOnUse">
<stop stop-color="#303547"/>
<stop offset="1" stop-opacity="0"/>
</linearGradient>
<linearGradient id="paint14_linear" x1="607.041" y1="748.013" x2="669.288" y2="697.068" gradientUnits="userSpaceOnUse">
<stop stop-color="#303547"/>
<stop offset="1" stop-opacity="0"/>
</linearGradient>
<linearGradient id="paint15_linear" x1="53.6607" y1="-4.47599" x2="135.173" y2="-4.17241" gradientUnits="userSpaceOnUse">
<stop stop-color="#303547"/>
<stop offset="1" stop-opacity="0"/>
</linearGradient>
<linearGradient id="paint16_linear" x1="53.6607" y1="-4.47599" x2="135.173" y2="-4.17241" gradientUnits="userSpaceOnUse">
<stop stop-color="#303547"/>
<stop offset="1" stop-opacity="0"/>
</linearGradient>
<linearGradient id="paint17_linear" x1="36.2117" y1="-0.103312" x2="310.749" y2="-1.65039" gradientUnits="userSpaceOnUse">
<stop stop-color="#303547"/>
<stop offset="1" stop-opacity="0"/>
</linearGradient>
<linearGradient id="paint18_linear" x1="53.6607" y1="-4.47599" x2="135.173" y2="-4.17241" gradientUnits="userSpaceOnUse">
<stop stop-color="#303547"/>
<stop offset="1" stop-opacity="0"/>
</linearGradient>
<linearGradient id="paint19_linear" x1="36.2117" y1="-0.103312" x2="310.749" y2="-1.65039" gradientUnits="userSpaceOnUse">
<stop stop-color="#303547"/>
<stop offset="1" stop-opacity="0"/>
</linearGradient>
<linearGradient id="paint20_linear" x1="53.6607" y1="-4.47599" x2="135.173" y2="-4.17241" gradientUnits="userSpaceOnUse">
<stop stop-color="#303547"/>
<stop offset="1" stop-opacity="0"/>
</linearGradient>
<linearGradient id="paint21_linear" x1="648.791" y1="258.043" x2="586.544" y2="308.988" gradientUnits="userSpaceOnUse">
<stop stop-color="#303547"/>
<stop offset="1" stop-opacity="0"/>
</linearGradient>
<linearGradient id="paint22_linear" x1="53.6607" y1="-4.47599" x2="135.173" y2="-4.17241" gradientUnits="userSpaceOnUse">
<stop stop-color="#303547"/>
<stop offset="1" stop-opacity="0"/>
</linearGradient>
<linearGradient id="paint23_linear" x1="53.6607" y1="-4.47599" x2="135.173" y2="-4.17241" gradientUnits="userSpaceOnUse">
<stop stop-color="#303547"/>
<stop offset="1" stop-opacity="0"/>
</linearGradient>
<linearGradient id="paint24_linear" x1="36.2117" y1="-0.103312" x2="310.749" y2="-1.65039" gradientUnits="userSpaceOnUse">
<stop stop-color="#303547"/>
<stop offset="1" stop-opacity="0"/>
</linearGradient>
<linearGradient id="paint25_linear" x1="36.2117" y1="-0.103312" x2="310.749" y2="-1.65039" gradientUnits="userSpaceOnUse">
<stop stop-color="#303547"/>
<stop offset="1" stop-opacity="0"/>
</linearGradient>
<linearGradient id="paint26_linear" x1="36.2117" y1="-0.103312" x2="310.749" y2="-1.65039" gradientUnits="userSpaceOnUse">
<stop stop-color="#303547"/>
<stop offset="1" stop-opacity="0"/>
</linearGradient>
<linearGradient id="paint27_linear" x1="53.6607" y1="-4.47599" x2="135.173" y2="-4.17241" gradientUnits="userSpaceOnUse">
<stop stop-color="#303547"/>
<stop offset="1" stop-opacity="0"/>
</linearGradient>
<linearGradient id="paint28_linear" x1="443.791" y1="25.0427" x2="381.544" y2="75.9884" gradientUnits="userSpaceOnUse">
<stop stop-color="#303547"/>
<stop offset="1" stop-opacity="0"/>
</linearGradient>
<linearGradient id="paint29_linear" x1="53.6607" y1="-4.47599" x2="135.173" y2="-4.17241" gradientUnits="userSpaceOnUse">
<stop stop-color="#303547"/>
<stop offset="1" stop-opacity="0"/>
</linearGradient>
<linearGradient id="paint30_linear" x1="36.2117" y1="-0.103312" x2="310.749" y2="-1.65039" gradientUnits="userSpaceOnUse">
<stop stop-color="#303547"/>
<stop offset="1" stop-opacity="0"/>
</linearGradient>
<linearGradient id="paint31_linear" x1="36.2117" y1="-0.103312" x2="310.749" y2="-1.65039" gradientUnits="userSpaceOnUse">
<stop stop-color="#303547"/>
<stop offset="1" stop-opacity="0"/>
</linearGradient>
</defs>
</svg>
