<svg width="539" height="895" viewBox="0 0 539 895" fill="none" xmlns="http://www.w3.org/2000/svg">
<path d="M554.192 189.15C554.192 318.577 409.298 392 254.984 392C100.67 392 0 309.006 0 179.579C0 50.1516 301.553 -41.4189 554.192 19.0582C697.76 58.2379 554.192 59.7228 554.192 189.15Z" fill="#FAA94C" fill-opacity="0.22"/>
<line x1="1.5" y1="-1.5" x2="101.265" y2="-1.5" transform="matrix(0.646973 -0.762513 0.650429 0.759567 35.2168 772.36)" stroke="url(#paint0_linear)" stroke-width="3" stroke-linecap="round" stroke-linejoin="round"/>
<line x1="2.5" y1="-2.5" x2="233.74" y2="-2.5" transform="matrix(0.645856 -0.763459 0.651542 0.758612 27.5454 804.36)" stroke="url(#paint1_linear)" stroke-width="5" stroke-linecap="round" stroke-linejoin="round"/>
<line x1="1.5" y1="-1.5" x2="101.265" y2="-1.5" transform="matrix(0.646973 -0.762513 0.650429 0.759567 36.6851 862.36)" stroke="url(#paint2_linear)" stroke-width="3" stroke-linecap="round" stroke-linejoin="round"/>
<line x1="2.5" y1="-2.5" x2="233.74" y2="-2.5" transform="matrix(0.645856 -0.763459 0.651542 0.758612 29.0137 894.36)" stroke="url(#paint3_linear)" stroke-width="5" stroke-linecap="round" stroke-linejoin="round"/>
<line x1="1.5" y1="-1.5" x2="101.265" y2="-1.5" transform="matrix(0.646973 -0.762513 0.650429 0.759567 236.996 611.359)" stroke="url(#paint4_linear)" stroke-width="3" stroke-linecap="round" stroke-linejoin="round"/>
<path d="M3 669.072L67.5452 593" stroke="url(#paint5_linear)" stroke-opacity="0.6" stroke-width="3" stroke-linecap="round" stroke-linejoin="round"/>
<line x1="1.5" y1="-1.5" x2="101.265" y2="-1.5" transform="matrix(0.646973 -0.762513 0.650429 0.759567 264.272 753.359)" stroke="url(#paint6_linear)" stroke-width="3" stroke-linecap="round" stroke-linejoin="round"/>
<line x1="1.5" y1="-1.5" x2="101.265" y2="-1.5" transform="matrix(0.646973 -0.762513 0.650429 0.759567 205.545 514.359)" stroke="url(#paint7_linear)" stroke-width="3" stroke-linecap="round" stroke-linejoin="round"/>
<line x1="2.5" y1="-2.5" x2="233.74" y2="-2.5" transform="matrix(0.645856 -0.763459 0.651542 0.758612 260.863 777.359)" stroke="url(#paint8_linear)" stroke-width="5" stroke-linecap="round" stroke-linejoin="round"/>
<line x1="2.5" y1="-2.5" x2="233.74" y2="-2.5" transform="matrix(0.645856 -0.763459 0.651542 0.758612 369.968 516.36)" stroke="url(#paint9_linear)" stroke-width="5" stroke-linecap="round" stroke-linejoin="round"/>
<defs>
<linearGradient id="paint0_linear" x1="54.904" y1="-4.47599" x2="138.305" y2="-4.15818" gradientUnits="userSpaceOnUse">
<stop stop-color="#303547"/>
<stop offset="1" stop-opacity="0"/>
</linearGradient>
<linearGradient id="paint1_linear" x1="37.0507" y1="-0.103312" x2="317.949" y2="-1.72291" gradientUnits="userSpaceOnUse">
<stop stop-color="#303547"/>
<stop offset="1" stop-opacity="0"/>
</linearGradient>
<linearGradient id="paint2_linear" x1="54.904" y1="-4.47599" x2="138.305" y2="-4.15818" gradientUnits="userSpaceOnUse">
<stop stop-color="#303547"/>
<stop offset="1" stop-opacity="0"/>
</linearGradient>
<linearGradient id="paint3_linear" x1="37.0507" y1="-0.103312" x2="317.949" y2="-1.72291" gradientUnits="userSpaceOnUse">
<stop stop-color="#303547"/>
<stop offset="1" stop-opacity="0"/>
</linearGradient>
<linearGradient id="paint4_linear" x1="54.904" y1="-4.47599" x2="138.305" y2="-4.15818" gradientUnits="userSpaceOnUse">
<stop stop-color="#303547"/>
<stop offset="1" stop-opacity="0"/>
</linearGradient>
<linearGradient id="paint5_linear" x1="73.5574" y1="644.095" x2="136.27" y2="590.801" gradientUnits="userSpaceOnUse">
<stop stop-color="#303547"/>
<stop offset="1" stop-opacity="0"/>
</linearGradient>
<linearGradient id="paint6_linear" x1="54.904" y1="-4.47599" x2="138.305" y2="-4.15818" gradientUnits="userSpaceOnUse">
<stop stop-color="#303547"/>
<stop offset="1" stop-opacity="0"/>
</linearGradient>
<linearGradient id="paint7_linear" x1="54.904" y1="-4.47599" x2="138.305" y2="-4.15818" gradientUnits="userSpaceOnUse">
<stop stop-color="#303547"/>
<stop offset="1" stop-opacity="0"/>
</linearGradient>
<linearGradient id="paint8_linear" x1="37.0507" y1="-0.103312" x2="317.949" y2="-1.72291" gradientUnits="userSpaceOnUse">
<stop stop-color="#303547"/>
<stop offset="1" stop-opacity="0"/>
</linearGradient>
<linearGradient id="paint9_linear" x1="37.0507" y1="-0.103312" x2="317.949" y2="-1.72291" gradientUnits="userSpaceOnUse">
<stop stop-color="#303547"/>
<stop offset="1" stop-opacity="0"/>
</linearGradient>
</defs>
</svg>
