<svg width="60" height="60" viewBox="0 0 60 60" fill="none" xmlns="http://www.w3.org/2000/svg">
<path d="M6.24996 26.25C2.805 26.25 0 29.055 0 32.5V52.5C0 55.945 2.805 58.75 6.24996 58.75H13.75C15.1575 58.75 16.4524 58.275 17.5 57.4849V26.25H6.24996Z" fill="url(#paint0_linear)"/>
<path d="M60 35.625C60 34.1225 59.405 32.7225 58.3725 31.6899C59.54 30.4125 60.135 28.6999 59.9724 26.9175C59.6799 23.7399 56.8174 21.2499 53.4525 21.2499H38.01C38.775 18.9274 39.9999 14.67 39.9999 11.25C39.9999 5.82746 35.3925 1.25 32.4999 1.25C29.9025 1.25 28.0474 2.7125 27.9675 2.7725C27.6725 3.01004 27.5 3.37004 27.5 3.74996V12.2274L20.3 27.825L20 27.9774V54.7725C22.035 55.7325 24.6099 56.25 26.25 56.25H49.1975C51.92 56.25 54.3025 54.4149 54.8625 51.8825C55.1499 50.58 54.9825 49.2675 54.41 48.1275C56.2575 47.1975 57.5 45.2949 57.5 43.125C57.5 42.24 57.2975 41.3925 56.9125 40.625C58.76 39.695 60 37.7925 60 35.625Z" fill="url(#paint1_linear)"/>
<defs>
<linearGradient id="paint0_linear" x1="0.699998" y1="42.5" x2="17.5" y2="42.5" gradientUnits="userSpaceOnUse">
<stop stop-color="#FA446E"/>
<stop offset="1" stop-color="#FABE44"/>
</linearGradient>
<linearGradient id="paint1_linear" x1="21.6" y1="28.75" x2="60" y2="28.75" gradientUnits="userSpaceOnUse">
<stop stop-color="#FA446E"/>
<stop offset="1" stop-color="#FABE44"/>
</linearGradient>
</defs>
</svg>
