<svg width="60" height="60" viewBox="0 0 60 60" fill="none" xmlns="http://www.w3.org/2000/svg">
<g clip-path="url(#clip0)">
<path d="M51.1178 19.9203C51.1789 19.4231 51.269 18.9323 51.269 18.4158C51.269 17.8993 51.1789 17.4085 51.1178 16.9113L54.0158 14.7235C54.6623 14.2359 54.8424 13.3441 54.4372 12.6416L51.8351 8.15048C51.4298 7.45115 50.5646 7.15923 49.8183 7.47361L46.4829 8.87547C45.6691 8.25634 44.8039 7.71099 43.8486 7.31321L43.4047 3.78129C43.3018 2.97931 42.6199 2.37622 41.8094 2.37622H36.6084C35.7978 2.37622 35.1127 2.97931 35.013 3.78129L34.5691 7.31321C33.6139 7.71099 32.7454 8.25955 31.9349 8.87547L28.5994 7.47361C27.85 7.15923 26.9847 7.44794 26.5795 8.15048L23.9806 12.6416C23.5753 13.3409 23.7554 14.2327 24.4019 14.7235L27.3 16.9113C27.2356 17.4085 27.1456 17.8993 27.1456 18.4158C27.1456 18.9323 27.2356 19.4231 27.2967 19.9203L24.3987 22.1081C23.7522 22.5957 23.5721 23.4875 23.9774 24.1901L26.5795 28.6812C26.9847 29.3805 27.85 29.6724 28.5962 29.358L31.9316 27.953C32.7454 28.5721 33.6106 29.1174 34.5659 29.5152L35.0098 33.0472C35.1127 33.8523 35.7946 34.4554 36.6052 34.4554H41.8062C42.6167 34.4554 43.3018 33.8523 43.4015 33.0504L43.8454 29.5184C44.8007 29.1207 45.6691 28.5721 46.4797 27.9562L49.8151 29.358C50.5646 29.6724 51.4298 29.3837 51.8351 28.6812L54.4339 24.1901C54.8392 23.4908 54.6591 22.599 54.0126 22.1081L51.1178 19.9203ZM39.2073 24.8317C35.6531 24.8317 32.7744 21.9606 32.7744 18.4158C32.7744 14.8711 35.6531 12 39.2073 12C42.7614 12 45.6402 14.8711 45.6402 18.4158C45.6402 21.9606 42.7614 24.8317 39.2073 24.8317Z" fill="url(#paint0_linear)"/>
<path d="M1.23 30.005C0.5475 30.0175 0 30.5725 0 31.255V54.375C0 54.72 0.28 55 0.625 55H6.555C7.115 55 7.605 54.63 7.7575 54.0925L13.29 34.5975C13.6475 33.3375 12.9725 32.0125 11.74 31.565C9.475 30.74 6 29.925 1.23 30.005Z" fill="url(#paint1_linear)"/>
<path d="M54.9994 43.75C49.9994 43.75 39.9994 50.0775 34.9995 50.0775C29.9995 50.0775 24.3745 46.25 24.3745 46.25C24.3745 46.25 31.1095 47.5 34.9995 47.5C38.8895 47.5 39.9994 46.1725 39.9994 44.375C39.9994 40 32.5695 39.32 28.8095 38.7475C25.1195 36.6925 23.202 35.0675 17.0895 34.55C17.0545 34.9075 16.9995 35.2626 16.8995 35.6151L11.877 53.315C17.5645 55.9025 27.3595 60 32.4995 60C39.9994 60 59.9994 50 59.9994 47.5C59.9994 45 57.4994 43.75 54.9994 43.75Z" fill="url(#paint2_linear)"/>
</g>
<defs>
<linearGradient id="paint0_linear" x1="24.9974" y1="18.4158" x2="54.6528" y2="18.4158" gradientUnits="userSpaceOnUse">
<stop stop-color="#FA446E"/>
<stop offset="1" stop-color="#FABE44"/>
</linearGradient>
<linearGradient id="paint1_linear" x1="0.535419" y1="42.4997" x2="13.3855" y2="42.4997" gradientUnits="userSpaceOnUse">
<stop stop-color="#FA446E"/>
<stop offset="1" stop-color="#FABE44"/>
</linearGradient>
<linearGradient id="paint2_linear" x1="13.8019" y1="47.275" x2="59.9994" y2="47.275" gradientUnits="userSpaceOnUse">
<stop stop-color="#FA446E"/>
<stop offset="1" stop-color="#FABE44"/>
</linearGradient>
<clipPath id="clip0">
<rect width="60" height="60" fill="white"/>
</clipPath>
</defs>
</svg>
