<svg width="60" height="60" viewBox="0 0 60 60" fill="none" xmlns="http://www.w3.org/2000/svg">
<path d="M54.1623 24.1644C54.1623 10.8398 43.322 0 29.9969 0C16.6723 0 5.83203 10.8398 5.83203 24.1644C5.83203 37.4886 16.6723 48.3284 29.9969 48.3284C43.322 48.3284 54.1623 37.4886 54.1623 24.1644ZM25.6894 34.4724L17.4391 26.2221L19.9398 23.7218L25.6894 29.4713L40.0544 15.1067L42.5552 17.607L25.6894 34.4724Z" fill="url(#paint0_linear)"/>
<path d="M7.66663 40.5322L0.351562 51.2013L11.1667 49.1844L13.1836 60L20.0336 50.0093C15.0604 48.0853 10.7776 44.7656 7.66663 40.5322Z" fill="url(#paint1_linear)"/>
<path d="M52.3298 40.5322C49.2189 44.7656 44.936 48.0853 39.9629 50.0093L46.8129 60L48.8298 49.1844L59.6449 51.2013L52.3298 40.5322Z" fill="url(#paint2_linear)"/>
<defs>
<linearGradient id="paint0_linear" x1="7.76524" y1="24.1642" x2="54.1623" y2="24.1642" gradientUnits="userSpaceOnUse">
<stop stop-color="#FA446E"/>
<stop offset="1" stop-color="#FABE44"/>
</linearGradient>
<linearGradient id="paint1_linear" x1="1.13884" y1="50.2661" x2="20.0336" y2="50.2661" gradientUnits="userSpaceOnUse">
<stop stop-color="#FA446E"/>
<stop offset="1" stop-color="#FABE44"/>
</linearGradient>
<linearGradient id="paint2_linear" x1="40.7502" y1="50.2661" x2="59.6449" y2="50.2661" gradientUnits="userSpaceOnUse">
<stop stop-color="#FA446E"/>
<stop offset="1" stop-color="#FABE44"/>
</linearGradient>
</defs>
</svg>
