<svg width="172" height="122" viewBox="0 0 172 122" fill="none" xmlns="http://www.w3.org/2000/svg">
<path d="M124.941 67.2221C127.175 72.9375 123.925 79.2244 117.83 81.32C111.736 83.4156 105.032 80.3675 102.797 74.6521C100.562 68.9367 103.813 62.6498 109.907 60.5542C116.002 58.4586 122.706 61.5068 124.941 67.2221Z" fill="#F7ACA6"/>
<path d="M61.1666 72.9435L50.2607 76.5955L67.4776 121.81L78.3834 118.158L61.1666 72.9435Z" fill="#F7ECBF"/>
<path d="M135.334 48.1631L124.428 51.8151L141.645 97.03L152.55 93.378L135.334 48.1631Z" fill="#F7ECBF"/>
<path d="M159.072 55.7911L67.2462 86.4635C60.7452 88.5591 53.6348 85.511 51.1969 79.4146L32.9131 31.4056L124.536 0.733108C131.036 -1.55304 138.35 1.6857 140.585 7.9726L159.072 55.7911Z" fill="#FBF6E2"/>
<path d="M79.8824 66.7818L68.9766 70.4337L86.1934 115.649L97.0992 111.997L79.8824 66.7818Z" fill="#FBF6E2"/>
<path d="M153.859 42.0598L142.953 45.7118L160.17 90.9267L171.076 87.2747L153.859 42.0598Z" fill="#FBF6E2"/>
<path d="M50.9916 22.2608L50.7885 21.6892C49.5696 18.26 45.5065 16.5454 41.8497 17.6885L17.2681 25.8805C13.6113 27.0236 11.7829 30.8338 13.0018 34.263L13.205 34.8346L0 39.2163C0 39.2163 6.70404 48.7419 14.627 38.0732L23.769 62.2683C26.8163 70.2698 36.1614 74.2705 44.4907 71.6034L51.8042 69.1267C60.3367 66.2691 64.6029 57.5055 61.7588 49.6945L52.6169 25.4994C65.8219 28.9286 64.6029 17.6885 64.6029 17.6885L50.9916 22.2608Z" fill="#8F7967"/>
<path d="M124.737 0.733592L93.6543 11.2118C96.4985 13.4979 99.7489 15.403 102.796 17.1176C106.656 19.2133 110.516 21.3089 114.985 22.071C121.893 23.214 128.8 20.5469 134.895 17.1176C137.536 15.5935 140.177 13.8789 142.208 11.5928L140.786 7.97308C138.551 1.8767 131.441 -1.36204 124.737 0.733592Z" fill="#8F7967"/>
<path d="M95.4831 33.3111C98.1241 35.2162 100.562 37.1214 102.593 39.598C104.625 42.0747 105.844 45.1229 106.047 48.1711C106.25 53.5054 102.39 58.6492 97.1083 60.9353C91.8263 63.2215 85.5286 62.6499 80.4497 60.1733C75.3709 57.6966 71.3078 53.5054 68.6668 48.7426C66.8384 45.5039 65.4163 41.8841 65.4163 38.2644C65.2131 34.6447 66.4321 30.8345 69.0731 27.9768C75.7772 20.9278 89.3885 29.1198 95.4831 33.3111Z" fill="#8F7967"/>
<path d="M13.0018 34.4537L13.205 35.0253L0 39.4071C0 39.4071 6.70404 48.9327 14.627 38.264L20.9248 54.648C25.1911 52.7429 28.8479 49.5042 30.6763 45.5034C31.692 43.2173 32.3015 40.9312 32.3015 38.4545C32.5046 34.8348 31.692 31.0245 30.2699 27.5953C29.4573 25.6902 28.4415 24.1661 27.2226 22.642L17.4713 25.8807C13.6113 27.2143 11.5798 31.0245 13.0018 34.4537Z" fill="#FBF6E2"/>
</svg>
