<svg width="813" height="243" viewBox="0 0 813 243" fill="none" xmlns="http://www.w3.org/2000/svg">
<path d="M148.057 0.47998L123.145 102H88.4407L74.4727 39.792L60.2167 102H25.5127L0.888672 0.47998H31.4167L43.2247 69.888L59.2087 0.47998H90.1687L105.721 69.312L117.529 0.47998H148.057Z" fill="#D6D6D6" fill-opacity="0.15"/>
<path d="M188.977 23.088V39.648H221.377V61.104H188.977V79.392H225.697V102H160.753V0.47998H225.697V23.088H188.977Z" fill="#D6D6D6" fill-opacity="0.15"/>
<path d="M305.164 49.872C311.116 51.216 315.82 54.192 319.276 58.8C322.828 63.312 324.604 68.496 324.604 74.352C324.604 82.992 321.628 89.76 315.676 94.656C309.724 99.552 301.372 102 290.62 102H240.364V0.47998H289.036C299.404 0.47998 307.516 2.78398 313.372 7.39199C319.324 12 322.3 18.48 322.3 26.832C322.3 32.784 320.716 37.776 317.548 41.808C314.476 45.744 310.348 48.432 305.164 49.872ZM268.588 40.8H282.844C289.948 40.8 293.5 37.872 293.5 32.016C293.5 25.968 289.948 22.944 282.844 22.944H268.588V40.8ZM285.004 79.248C292.108 79.248 295.66 76.272 295.66 70.32C295.66 67.248 294.7 64.896 292.78 63.264C290.956 61.632 288.316 60.816 284.86 60.816H268.588V79.248H285.004Z" fill="#D6D6D6" fill-opacity="0.15"/>
<path d="M328.066 139.48C338.722 139.48 348.034 141.64 356.002 145.96C364.066 150.184 370.258 156.136 374.578 163.816C378.898 171.496 381.058 180.28 381.058 190.168C381.058 199.96 378.85 208.696 374.434 216.376C370.114 224.056 363.922 230.104 355.858 234.52C347.89 238.84 338.626 241 328.066 241H287.89V139.48H328.066ZM325.906 216.088C334.162 216.088 340.642 213.832 345.346 209.32C350.05 204.808 352.402 198.424 352.402 190.168C352.402 181.816 350.05 175.384 345.346 170.872C340.642 166.264 334.162 163.96 325.906 163.96H316.114V216.088H325.906Z" fill="#D6D6D6" fill-opacity="0.15"/>
<path d="M422.724 162.088V178.648H455.124V200.104H422.724V218.392H459.444V241H394.5V139.48H459.444V162.088H422.724Z" fill="#D6D6D6" fill-opacity="0.15"/>
<path d="M512.415 242.008C500.607 242.008 490.911 239.224 483.327 233.656C475.743 227.992 471.663 219.928 471.087 209.464H501.183C501.471 213.016 502.527 215.608 504.351 217.24C506.175 218.872 508.527 219.688 511.407 219.688C513.999 219.688 516.111 219.064 517.743 217.816C519.471 216.472 520.335 214.648 520.335 212.344C520.335 209.368 518.943 207.064 516.159 205.432C513.375 203.8 508.863 201.976 502.623 199.96C495.999 197.752 490.623 195.64 486.495 193.624C482.463 191.512 478.911 188.488 475.839 184.552C472.863 180.52 471.375 175.288 471.375 168.856C471.375 162.328 473.007 156.76 476.271 152.152C479.535 147.448 484.047 143.896 489.807 141.496C495.567 139.096 502.095 137.896 509.391 137.896C521.199 137.896 530.607 140.68 537.615 146.248C544.719 151.72 548.511 159.448 548.991 169.432H518.319C518.223 166.36 517.263 164.056 515.439 162.52C513.711 160.984 511.455 160.216 508.671 160.216C506.559 160.216 504.831 160.84 503.487 162.088C502.143 163.336 501.471 165.112 501.471 167.416C501.471 169.336 502.191 171.016 503.631 172.456C505.167 173.8 507.039 175 509.247 176.056C511.455 177.016 514.719 178.264 519.039 179.8C525.471 182.008 530.751 184.216 534.879 186.424C539.103 188.536 542.703 191.56 545.679 195.496C548.751 199.336 550.287 204.232 550.287 210.184C550.287 216.232 548.751 221.656 545.679 226.456C542.703 231.256 538.335 235.048 532.575 237.832C526.911 240.616 520.191 242.008 512.415 242.008Z" fill="#D6D6D6" fill-opacity="0.15"/>
<path d="M592.352 139.48V241H564.128V139.48H592.352Z" fill="#D6D6D6" fill-opacity="0.15"/>
<path d="M673.945 172.888C672.313 170.2 670.057 168.136 667.177 166.696C664.393 165.256 661.081 164.536 657.241 164.536C650.137 164.536 644.521 166.84 640.393 171.448C636.361 176.056 634.345 182.248 634.345 190.024C634.345 198.76 636.505 205.432 640.825 210.04C645.241 214.552 651.625 216.808 659.977 216.808C669.865 216.808 676.921 212.344 681.145 203.416H652.777V183.112H705.481V210.472C703.273 215.848 700.009 220.888 695.689 225.592C691.465 230.296 686.089 234.184 679.561 237.256C673.033 240.232 665.593 241.72 657.241 241.72C647.065 241.72 638.041 239.56 630.169 235.24C622.393 230.824 616.345 224.728 612.025 216.952C607.801 209.08 605.689 200.104 605.689 190.024C605.689 180.04 607.801 171.16 612.025 163.384C616.345 155.512 622.393 149.416 630.169 145.096C637.945 140.68 646.921 138.472 657.097 138.472C669.865 138.472 680.425 141.544 688.777 147.688C697.129 153.832 702.313 162.232 704.329 172.888H673.945Z" fill="#D6D6D6" fill-opacity="0.15"/>
<path d="M812.881 241H784.657L747.073 184.264V241H718.849V139.48H747.073L784.657 196.936V139.48H812.881V241Z" fill="#D6D6D6" fill-opacity="0.15"/>
</svg>
