<svg width="55" height="55" viewBox="0 0 55 55" fill="none" xmlns="http://www.w3.org/2000/svg">
<path fill-rule="evenodd" clip-rule="evenodd" d="M55 27.5C55 42.688 42.688 55 27.5 55C12.312 55 0 42.688 0 27.5C0 12.312 12.312 0 27.5 0C42.688 0 55 12.312 55 27.5ZM31.1403 26.9243C29.7266 28.0296 29.701 28.8008 29.701 30.1373C29.701 30.6257 29.4438 31.1909 28.1845 31.1909C27.1305 31.1909 26.7708 30.8053 26.7708 29.4688C26.7708 27.2587 27.7473 26.2046 28.493 25.5622C28.6471 25.4314 28.8207 25.2981 29.0017 25.1591L29.0017 25.1591C29.8166 24.5334 30.7803 23.7934 30.7803 22.6576C30.7803 21.4751 29.7522 20.9095 28.4669 20.9095C26.9494 20.9095 26.4998 21.5727 26.121 22.1313C25.8454 22.5377 25.6074 22.8888 25.0227 22.8888C24.3287 22.8888 23.4806 22.426 23.4806 21.4235C23.4806 20.0359 25.0743 17.9793 28.5441 17.9793C31.8344 17.9793 34.0189 19.8042 34.0189 22.2204C34.0189 24.6365 31.8344 26.3847 31.1403 26.9243ZM30.1895 34.944C30.1895 35.9977 29.3154 36.9229 28.2101 36.9229C27.1049 36.9229 26.2568 35.9977 26.2568 34.944C26.2568 33.8643 27.1305 32.9647 28.2101 32.9647C29.2898 32.9647 30.1895 33.8643 30.1895 34.944ZM11.3867 45.5469H28.7891C39.2736 45.5469 47.8027 37.0173 47.8027 26.5332C47.8027 16.0491 39.2736 7.51953 28.7891 7.51953C18.3049 7.51953 9.77539 16.0491 9.77539 26.5332V43.9355C9.77539 44.8256 10.4971 45.5469 11.3867 45.5469ZM28.7891 42.3242H12.998V26.5332C12.998 17.8262 20.082 10.7422 28.7891 10.7422C37.4965 10.7422 44.5801 17.8262 44.5801 26.5332C44.5801 35.2402 37.4965 42.3242 28.7891 42.3242Z" fill="url(#paint0_linear)"/>
<defs>
<linearGradient id="paint0_linear" x1="2.2" y1="27.5" x2="55" y2="27.5" gradientUnits="userSpaceOnUse">
<stop stop-color="#FA446E"/>
<stop offset="1" stop-color="#FABE44"/>
</linearGradient>
</defs>
</svg>
