<svg width="35" height="35" viewBox="0 0 35 35" fill="none" xmlns="http://www.w3.org/2000/svg">
<g clip-path="url(#clip0)">
<path d="M29.9983 0.841309H4.83761C2.52423 0.841309 0.644165 2.72137 0.644165 5.03475V30.1954C0.644165 32.5074 2.52423 34.3889 4.83761 34.3889H29.9983C32.3103 34.3889 34.1917 32.5074 34.1917 30.1954V5.03475C34.1917 2.72137 32.3103 0.841309 29.9983 0.841309Z" fill="#3B5999"/>
<path d="M23.7081 17.6151V13.4216C23.7081 12.2642 24.6474 12.3733 25.8048 12.3733H27.9015V7.13147H23.7081C20.2331 7.13147 17.4179 9.94667 17.4179 13.4216V17.6151H13.2245V22.8569H17.4179V34.3889H23.7081V22.8569H26.8532L28.9499 17.6151H23.7081Z" fill="white"/>
</g>
<defs>
<clipPath id="clip0">
<rect width="33.5476" height="33.5476" fill="white" transform="translate(0.644165 0.841309)"/>
</clipPath>
</defs>
</svg>
