<svg width="35" height="36" viewBox="0 0 35 36" fill="none" xmlns="http://www.w3.org/2000/svg">
<path d="M28.5145 34.7429C21.1375 35.5302 13.7381 35.5302 6.36115 34.7429C3.41962 34.4289 1.09623 32.1056 0.78229 29.1638C-0.00506654 21.7868 -0.00506654 14.3877 0.78229 7.01068C1.09623 4.06915 3.41962 1.74577 6.36115 1.43183C13.7381 0.64447 21.1372 0.64447 28.5142 1.43183C31.456 1.74577 33.7794 4.06915 34.0933 7.01068C34.8807 14.3877 34.8807 21.7868 34.0933 29.1638C33.7794 32.1056 31.4563 34.4289 28.5145 34.7429Z" fill="url(#paint0_linear)"/>
<path d="M7.01978 14.6182H11.5871V28.7774H7.01978V14.6182Z" fill="white"/>
<path d="M23.7237 14.3135C20.3766 14.3135 18.9064 16.1737 18.5364 16.74V14.6182H14.3278V28.7775H18.8953V21.6652C18.8953 19.61 19.8414 18.0113 21.6358 18.0113C23.43 18.0113 23.7237 20.0013 23.7237 22.4483V28.7775H28.2912V18.881C28.2912 16.3584 26.2463 14.3135 23.7237 14.3135Z" fill="white"/>
<path d="M12.0221 10.1159C12.0221 11.6174 10.8051 12.8345 9.3035 12.8345C7.80194 12.8345 6.58459 11.6174 6.58459 10.1159C6.58459 8.61432 7.80194 7.39697 9.3035 7.39697C10.8051 7.39697 12.0221 8.61432 12.0221 10.1159Z" fill="white"/>
<defs>
<linearGradient id="paint0_linear" x1="11.6438" y1="5.69083" x2="20.3679" y2="24.3562" gradientUnits="userSpaceOnUse">
<stop stop-color="#0077B5"/>
<stop offset="1" stop-color="#0066B2"/>
</linearGradient>
</defs>
</svg>
