<svg width="148" height="77" viewBox="0 0 148 77" fill="none" xmlns="http://www.w3.org/2000/svg">
<g clip-path="url(#clip0)">
<path d="M49.699 8.10134C42.9161 13.2375 36.1332 18.3737 29.3728 23.4017C27.3967 24.9096 24.0136 26.6891 23.4503 29.3944C21.8768 35.954 27.9111 38.9039 32.8364 36.2035C35.7762 34.5575 38.3758 32.0504 41.0619 30.1258C41.0619 30.1258 43.2545 33.0662 43.0103 33.2411C42.7661 33.4161 42.3999 33.6786 42.1557 33.8535C40.668 35.0116 39.2028 36.0613 37.7151 37.2193C30.8101 42.443 23.8056 47.6459 16.9006 52.8696C14.5582 54.64 16.8918 58.4001 19.2116 56.7379C25.972 51.7099 32.6553 46.553 39.4157 41.525C41.6134 39.9503 44.0103 38.4171 45.977 36.4556C50.4982 32.2034 47.27 24.757 41.578 25.1526C38.2116 25.3549 34.4099 29.644 31.8233 31.5894C31.5791 31.7643 31.3124 32.0475 30.9686 32.2017C29.5034 33.2515 26.8544 31.0064 28.3421 29.8484C29.3189 29.1486 30.3182 28.3405 31.295 27.6406C38.2 22.417 45.2046 17.214 52.1321 11.8821C54.3299 10.3075 52.0188 6.43917 49.699 8.10134Z" fill="url(#paint0_linear)"/>
<path d="M51.0149 27.2305C53.2694 27.6999 55.5107 26.094 56.0208 23.6437C56.531 21.1933 55.117 18.8264 52.8624 18.357C50.6079 17.8876 48.3667 19.4935 47.8565 21.9438C47.3463 24.3942 48.7604 26.7611 51.0149 27.2305Z" fill="url(#paint1_linear)"/>
<path d="M10.2075 57.5734C7.27716 59.673 4.34676 61.7726 1.41643 63.8721C-0.903415 65.5343 1.40766 69.4026 3.7275 67.7404C6.65783 65.6409 9.58823 63.5413 12.5186 61.4417C14.8384 59.7796 12.6269 55.932 10.2075 57.5734Z" fill="url(#paint2_linear)"/>
<path d="M20.8989 40.154C15.5266 44.0032 10.1544 47.8525 4.66002 51.7892C2.34018 53.4513 4.65125 57.3196 6.9711 55.6575C12.3434 51.8082 17.7156 47.959 23.2099 44.0223C25.5523 42.2519 23.2412 38.3836 20.8989 40.154Z" fill="url(#paint3_linear)"/>
<path d="M66.0409 43.2763C64.8474 43.2763 63.6917 43.095 62.5738 42.7324C61.471 42.3548 60.6023 41.8713 59.9678 41.2821L60.8062 39.5146C61.4105 40.0584 62.181 40.5041 63.1177 40.8516C64.0694 41.1839 65.0438 41.3501 66.0409 41.3501C67.3553 41.3501 68.3372 41.1311 68.9868 40.6929C69.6365 40.2397 69.9613 39.643 69.9613 38.9027C69.9613 38.3589 69.78 37.9207 69.4174 37.5884C69.0699 37.2409 68.6318 36.9765 68.1031 36.7953C67.5894 36.614 66.8567 36.41 65.905 36.1834C64.7115 35.8964 63.7446 35.6093 63.0043 35.3223C62.2792 35.0353 61.6522 34.5971 61.1235 34.008C60.6098 33.4037 60.353 32.5954 60.353 31.5832C60.353 30.7372 60.5721 29.9743 61.0102 29.2945C61.4634 28.6146 62.1432 28.0708 63.0497 27.6629C63.9561 27.255 65.0816 27.051 66.4262 27.051C67.3628 27.051 68.2844 27.1719 69.1908 27.4136C70.0972 27.6553 70.8753 28.0028 71.5249 28.456L70.7771 30.2689C70.1123 29.8459 69.4023 29.5286 68.6469 29.3171C67.8916 29.0905 67.1513 28.9772 66.4262 28.9772C65.142 28.9772 64.1752 29.2114 63.5255 29.6797C62.891 30.148 62.5738 30.7523 62.5738 31.4926C62.5738 32.0364 62.7551 32.4821 63.1177 32.8296C63.4802 33.1619 63.9259 33.4263 64.4546 33.6227C64.9985 33.804 65.7312 34.0004 66.6528 34.2119C67.8462 34.4989 68.8056 34.786 69.5307 35.073C70.2559 35.3601 70.8753 35.7982 71.3889 36.3874C71.9177 36.9765 72.182 37.7697 72.182 38.7668C72.182 39.5977 71.9554 40.3606 71.5022 41.0555C71.049 41.7354 70.3616 42.2792 69.4401 42.6871C68.5185 43.0799 67.3855 43.2763 66.0409 43.2763Z" fill="white"/>
<path d="M110.784 35.5857H97.0741C97.1987 37.2891 97.8531 38.6705 99.0371 39.7299C100.221 40.7685 101.717 41.2878 103.524 41.2878C104.542 41.2878 105.477 41.1112 106.328 40.7581C107.18 40.3842 107.917 39.8441 108.541 39.1378L109.787 40.5711C109.06 41.4436 108.146 42.1083 107.045 42.5653C105.965 43.0223 104.77 43.2508 103.462 43.2508C101.779 43.2508 100.283 42.8977 98.9748 42.1914C97.6869 41.4644 96.6794 40.4673 95.9524 39.2002C95.2253 37.933 94.8618 36.4997 94.8618 34.9002C94.8618 33.3007 95.2046 31.8674 95.89 30.6003C96.5963 29.3332 97.5519 28.3465 98.7567 27.6402C99.9822 26.9339 101.353 26.5808 102.87 26.5808C104.386 26.5808 105.747 26.9339 106.951 27.6402C108.156 28.3465 109.101 29.3332 109.787 30.6003C110.472 31.8467 110.815 33.28 110.815 34.9002L110.784 35.5857ZM102.87 28.4815C101.291 28.4815 99.9615 28.9904 98.8813 30.0083C97.8219 31.0054 97.2195 32.314 97.0741 33.9343H108.696C108.551 32.314 107.938 31.0054 106.858 30.0083C105.799 28.9904 104.469 28.4815 102.87 28.4815Z" fill="white"/>
<path d="M129.589 35.5857H115.879C116.004 37.2891 116.658 38.6705 117.842 39.7299C119.026 40.7685 120.522 41.2878 122.329 41.2878C123.347 41.2878 124.281 41.1112 125.133 40.7581C125.985 40.3842 126.722 39.8441 127.345 39.1378L128.592 40.5711C127.865 41.4436 126.951 42.1083 125.85 42.5653C124.77 43.0223 123.575 43.2508 122.267 43.2508C120.584 43.2508 119.088 42.8977 117.78 42.1914C116.492 41.4644 115.484 40.4673 114.757 39.2002C114.03 37.933 113.667 36.4997 113.667 34.9002C113.667 33.3007 114.009 31.8674 114.695 30.6003C115.401 29.3332 116.357 28.3465 117.562 27.6402C118.787 26.9339 120.158 26.5808 121.674 26.5808C123.191 26.5808 124.551 26.9339 125.756 27.6402C126.961 28.3465 127.906 29.3332 128.592 30.6003C129.277 31.8467 129.62 33.28 129.62 34.9002L129.589 35.5857ZM121.674 28.4815C120.096 28.4815 118.766 28.9904 117.686 30.0083C116.627 31.0054 116.024 32.314 115.879 33.9343H127.501C127.356 32.314 126.743 31.0054 125.663 30.0083C124.603 28.9904 123.274 28.4815 121.674 28.4815Z" fill="white"/>
<path d="M147.06 27.2323V43.095H145.201L135.684 31.266V43.095H133.418V27.2323H135.276L144.793 39.0614V27.2323H147.06Z" fill="white"/>
<path d="M75.5811 27.2324H77.8472V43.0951H75.5811V27.2324Z" fill="url(#paint4_linear)"/>
<path d="M85.7461 29.2039H80.3075V27.2324H93.4282V29.2039H87.9895V43.0951H85.7461V29.2039Z" fill="url(#paint5_linear)"/>
</g>
<defs>
<linearGradient id="paint0_linear" x1="28.7491" y1="59.5454" x2="40.0215" y2="5.40449" gradientUnits="userSpaceOnUse">
<stop stop-color="#E6007E"/>
<stop offset="1" stop-color="#F39200"/>
</linearGradient>
<linearGradient id="paint1_linear" x1="51.058" y1="27.264" x2="52.9221" y2="18.3108" gradientUnits="userSpaceOnUse">
<stop stop-color="#E94E1B"/>
<stop offset="0.2179" stop-color="#EC6512"/>
<stop offset="0.5111" stop-color="#F07E08"/>
<stop offset="0.78" stop-color="#F28D02"/>
<stop offset="1" stop-color="#F39200"/>
</linearGradient>
<linearGradient id="paint2_linear" x1="5.67774" y1="68.8949" x2="8.25995" y2="56.4928" gradientUnits="userSpaceOnUse">
<stop stop-color="#29235C"/>
<stop offset="0.5633" stop-color="#7F1B3A"/>
<stop offset="1" stop-color="#BE1622"/>
</linearGradient>
<linearGradient id="paint3_linear" x1="11.9681" y1="57.2647" x2="15.9041" y2="38.3603" gradientUnits="userSpaceOnUse">
<stop stop-color="#29235C"/>
<stop offset="0.0846766" stop-color="#472050"/>
<stop offset="0.2436" stop-color="#7A1C3C"/>
<stop offset="0.3824" stop-color="#9F192E"/>
<stop offset="0.4942" stop-color="#B61725"/>
<stop offset="0.565" stop-color="#BE1622"/>
<stop offset="0.6647" stop-color="#CA0F3F"/>
<stop offset="0.8066" stop-color="#D90761"/>
<stop offset="0.9235" stop-color="#E30276"/>
<stop offset="1" stop-color="#E6007E"/>
</linearGradient>
<linearGradient id="paint4_linear" x1="83.8237" y1="20.4341" x2="83.8237" y2="48.7603" gradientUnits="userSpaceOnUse">
<stop stop-color="#FAA94C"/>
<stop offset="1" stop-color="#DD4242"/>
</linearGradient>
<linearGradient id="paint5_linear" x1="83.8237" y1="20.4341" x2="83.8237" y2="48.7603" gradientUnits="userSpaceOnUse">
<stop stop-color="#FAA94C"/>
<stop offset="1" stop-color="#DD4242"/>
</linearGradient>
<clipPath id="clip0">
<rect width="147.06" height="77.0001" fill="white"/>
</clipPath>
</defs>
</svg>
