<svg width="791" height="204" viewBox="0 0 791 204" fill="none" xmlns="http://www.w3.org/2000/svg">
<path d="M30.4829 76.9411C21.7735 76.9411 14.6219 74.8836 9.02803 70.7687C3.43419 66.5829 0.424848 60.6235 0 52.8903H22.1983C22.4108 55.5153 23.1896 57.4309 24.535 58.637C25.8804 59.843 27.6152 60.4461 29.7394 60.4461C31.6512 60.4461 33.209 59.9849 34.4127 59.0626C35.6873 58.0694 36.3245 56.7214 36.3245 55.0187C36.3245 52.8194 35.2978 51.1167 33.2444 49.9106C31.191 48.7045 27.863 47.3565 23.2605 45.8667C18.3747 44.2349 14.4094 42.6741 11.3647 41.1842C8.39076 39.6234 5.77086 37.3886 3.505 34.4798C1.30995 31.5001 0.212424 27.6335 0.212424 22.8801C0.212424 18.0558 1.41616 13.9409 3.82364 10.5355C6.23111 7.05914 9.55909 4.43413 13.8076 2.66048C18.0561 0.886826 22.871 0 28.2524 0C36.9618 0 43.901 2.05744 49.07 6.17231C54.3098 10.2162 57.1067 15.9274 57.4608 23.3058H34.8376C34.7668 21.0355 34.0587 19.3328 32.7133 18.1977C31.4388 17.0625 29.7748 16.495 27.7214 16.495C26.1636 16.495 24.889 16.9561 23.8977 17.8784C22.9064 18.8007 22.4108 20.1132 22.4108 21.8159C22.4108 23.2348 22.9418 24.4764 24.0039 25.5406C25.1369 26.5338 26.5176 27.4207 28.1462 28.2011C29.7748 28.9105 32.1823 29.8328 35.3686 30.968C40.1128 32.5997 44.0072 34.2315 47.052 35.8633C50.1675 37.4241 52.8228 39.6589 55.0179 42.5677C57.2837 45.4055 58.4167 49.0238 58.4167 53.4224C58.4167 57.892 57.2837 61.9005 55.0179 65.4478C52.8228 68.9951 49.6011 71.7975 45.3526 73.8549C41.1749 75.9123 36.2183 76.9411 30.4829 76.9411Z" fill="#202020"/>
<path d="M102.932 76.9411C95.922 76.9411 89.4784 75.3093 83.6014 72.0458C77.7243 68.7113 73.051 64.1353 69.5814 58.3177C66.1826 52.4292 64.4832 45.7957 64.4832 38.4173C64.4832 31.0389 66.1826 24.4409 69.5814 18.6234C73.051 12.7348 77.7243 8.1588 83.6014 4.89528C89.4784 1.63176 95.922 0 102.932 0C110.013 0 116.456 1.63176 122.263 4.89528C128.14 8.1588 132.778 12.7348 136.176 18.6234C139.575 24.4409 141.275 31.0389 141.275 38.4173C141.275 45.7957 139.575 52.4292 136.176 58.3177C132.778 64.1353 128.14 68.7113 122.263 72.0458C116.386 75.3093 109.942 76.9411 102.932 76.9411ZM102.932 57.5728C108.243 57.5728 112.42 55.8346 115.465 52.3582C118.581 48.8819 120.138 44.2349 120.138 38.4173C120.138 32.4578 118.581 27.7754 115.465 24.37C112.42 20.8936 108.243 19.1555 102.932 19.1555C97.5506 19.1555 93.3375 20.8936 90.2927 24.37C87.248 27.7754 85.7256 32.4578 85.7256 38.4173C85.7256 44.3058 87.248 48.9883 90.2927 52.4647C93.3375 55.8701 97.5506 57.5728 102.932 57.5728Z" fill="#202020"/>
<path d="M147.022 38.5237C147.022 31.1453 148.544 24.5828 151.589 18.8362C154.704 13.0186 159.094 8.51353 164.759 5.32096C170.424 2.05744 176.938 0.425678 184.302 0.425678C193.649 0.425678 201.508 2.94426 207.881 7.98144C214.254 12.9477 218.361 19.723 220.202 28.3075H197.791C196.446 25.4697 194.569 23.3058 192.162 21.8159C189.825 20.3261 187.099 19.5811 183.983 19.5811C179.168 19.5811 175.309 21.3193 172.406 24.7957C169.574 28.2011 168.158 32.7771 168.158 38.5237C168.158 44.3413 169.574 48.9883 172.406 52.4647C175.309 55.8701 179.168 57.5728 183.983 57.5728C187.099 57.5728 189.825 56.8278 192.162 55.338C194.569 53.8481 196.446 51.6842 197.791 48.8464H220.202C218.361 57.4309 214.254 64.2417 207.881 69.2789C201.508 74.2451 193.649 76.7282 184.302 76.7282C176.938 76.7282 170.424 75.1319 164.759 71.9394C159.094 68.6758 154.704 64.1708 151.589 58.4241C148.544 52.6065 147.022 45.9731 147.022 38.5237Z" fill="#202020"/>
<path d="M249.815 1.17061V76.1961H228.997V1.17061H249.815Z" fill="#202020"/>
<path d="M307.979 63.9579H281.426L277.389 76.1961H255.51L282.806 1.17061H306.81L334.001 76.1961H312.015L307.979 63.9579ZM302.774 47.995L294.702 23.7315L286.736 47.995H302.774Z" fill="#202020"/>
<path d="M360.541 60.2333H383.802V76.1961H339.724V1.17061H360.541V60.2333Z" fill="#202020"/>
<path d="M252.95 128.442V203.468H232.133V162.071L218.006 203.468H200.588L186.355 161.752V203.468H165.538V128.442H190.71L209.509 177.182L227.884 128.442H252.95Z" fill="#202020"/>
<path d="M311.109 191.23H284.556L280.52 203.468H258.64L285.936 128.442H309.94L337.131 203.468H315.145L311.109 191.23ZM305.904 175.267L297.832 151.003L289.866 175.267H305.904Z" fill="#202020"/>
<path d="M380.771 203.468L365.902 175.799H363.671V203.468H342.854V128.442H375.673C381.692 128.442 386.79 129.507 390.968 131.635C395.146 133.692 398.297 136.566 400.421 140.255C402.545 143.873 403.607 147.953 403.607 152.493C403.607 157.601 402.191 162.106 399.359 166.008C396.597 169.839 392.526 172.571 387.144 174.203L404.032 203.468H380.771ZM363.671 161.539H373.974C376.806 161.539 378.931 160.865 380.347 159.517C381.763 158.169 382.471 156.218 382.471 153.664C382.471 151.252 381.727 149.371 380.24 148.024C378.824 146.605 376.735 145.895 373.974 145.895H363.671V161.539Z" fill="#202020"/>
<path d="M456.302 203.468L432.829 170.584V203.468H412.012V128.442H432.829V160.794L456.09 128.442H480.094L452.585 164.838L481.475 203.468H456.302Z" fill="#202020"/>
<path d="M508.833 145.15V157.388H532.731V173.245H508.833V186.76H535.917V203.468H488.016V128.442H535.917V145.15H508.833Z" fill="#202020"/>
<path d="M601.541 128.442V145.044H581.573V203.468H560.755V145.044H541V128.442H601.541Z" fill="#202020"/>
<path d="M628.998 128.442V203.468H608.181V128.442H628.998Z" fill="#202020"/>
<path d="M709.148 203.468H688.33L660.609 161.539V203.468H639.791V128.442H660.609L688.33 170.904V128.442H709.148V203.468Z" fill="#202020"/>
<path d="M767.74 153.132C766.536 151.145 764.872 149.62 762.748 148.556C760.694 147.491 758.251 146.959 755.419 146.959C750.179 146.959 746.037 148.662 742.992 152.067C740.018 155.473 738.531 160.049 738.531 165.796C738.531 172.252 740.124 177.182 743.311 180.588C746.568 183.922 751.277 185.589 757.437 185.589C764.73 185.589 769.935 182.29 773.05 175.692H752.126V160.687H791V180.907C789.371 184.88 786.964 188.605 783.778 192.081C780.662 195.557 776.697 198.431 771.882 200.701C767.067 202.9 761.579 204 755.419 204C747.913 204 741.257 202.404 735.451 199.211C729.716 195.948 725.255 191.443 722.068 185.696C718.953 179.878 717.395 173.245 717.395 165.796C717.395 158.417 718.953 151.855 722.068 146.108C725.255 140.29 729.716 135.785 735.451 132.593C741.186 129.329 747.807 127.697 755.313 127.697C764.73 127.697 772.519 129.968 778.679 134.508C784.84 139.049 788.663 145.257 790.15 153.132H767.74Z" fill="#202020"/>
</svg>
