<svg width="54" height="45" viewBox="0 0 54 45" fill="none" xmlns="http://www.w3.org/2000/svg">
<path d="M21.0732 28.4537C21.272 28.1094 21.272 27.6857 21.0732 27.3413L15.307 17.3528C15.1039 17.0008 14.7389 16.777 14.3185 16.7966C13.9122 16.8064 13.544 17.0356 13.3561 17.3962C12.1915 19.6373 11.6017 22.0478 11.6017 24.5604C11.6017 25.7293 11.7473 26.9384 12.0329 28.1529C12.1513 28.6548 12.6 29.01 13.1159 29.01H20.1096C20.5072 29.0099 20.8743 28.7981 21.0732 28.4537Z" fill="url(#paint0_linear)"/>
<path d="M33.2755 20.6671C33.0768 21.0114 33.0768 21.4352 33.2755 21.7795L39.0427 31.7681C39.2415 32.1124 39.6098 32.3242 40.0063 32.3242C40.015 32.3242 40.0226 32.3242 40.0314 32.3242C40.4377 32.3144 40.8059 32.0852 40.9938 31.7246C42.1584 29.4835 42.7482 27.073 42.7482 24.5604C42.7482 23.3916 42.6026 22.1825 42.317 20.968C42.1986 20.466 41.7499 20.1108 41.234 20.1108H34.2391C33.8415 20.1109 33.4743 20.3227 33.2755 20.6671Z" fill="url(#paint1_linear)"/>
<path d="M31.6374 9.64399C31.141 9.49622 30.6141 9.70917 30.3556 10.1534L26.8544 16.2172C26.6556 16.5616 26.6556 16.9853 26.8544 17.3296C27.0532 17.674 27.4204 17.8858 27.818 17.8858H39.3481C39.7544 17.8858 40.1292 17.6642 40.3236 17.3068C40.5191 16.9504 40.5039 16.516 40.2845 16.1727C38.2672 13.0257 35.1962 10.7065 31.6374 9.64399Z" fill="url(#paint2_linear)"/>
<path d="M27.4952 31.7905C27.2964 31.4462 26.9293 31.2344 26.5316 31.2344H15.0016C14.5953 31.2344 14.2205 31.456 14.0261 31.8134C13.8306 32.1697 13.8458 32.6042 14.0652 32.9475C16.0825 36.0945 19.1546 38.4138 22.7133 39.4762C22.8186 39.5076 22.9263 39.5229 23.0316 39.5229C23.4216 39.5229 23.792 39.3175 23.9952 38.9667L27.4953 32.9029C27.694 32.5585 27.694 32.1349 27.4952 31.7905Z" fill="url(#paint3_linear)"/>
<path d="M19.7889 20.6668C19.9877 21.0111 20.3549 21.2229 20.7525 21.2229C21.1502 21.2229 21.5172 21.0111 21.7161 20.6668L27.4768 10.689C27.68 10.3371 27.6746 9.90252 27.4638 9.55493C27.2542 9.20944 26.8718 9.01286 26.4633 9.02151C22.7405 9.18994 19.2002 10.6901 16.4932 13.2473C16.1184 13.6003 16.0359 14.1652 16.2933 14.6116L19.7889 20.6668Z" fill="url(#paint4_linear)"/>
<path d="M49.4224 6.76216H42.3668C41.475 6.76216 40.6375 6.41457 40.0063 5.78448L35.9392 1.71735C34.8887 0.666883 33.4917 0.0878906 32.0057 0.0878906H22.344C20.858 0.0878906 19.461 0.666883 18.4105 1.71735L14.3434 5.78448C13.7122 6.41457 12.8747 6.76216 11.9829 6.76216H4.92733C2.47328 6.76216 0.477783 8.75766 0.477783 11.2116V40.1334C0.477783 42.5873 2.47328 44.5829 4.92733 44.5829H49.4225C51.8764 44.5829 53.872 42.5874 53.872 40.1334V11.2116C53.8719 8.75766 51.8764 6.76216 49.4224 6.76216ZM27.1748 42.3582C17.3612 42.3582 9.37677 34.3738 9.37677 24.5601C9.37677 14.7465 17.3612 6.76216 27.1748 6.76216C36.9885 6.76216 44.9729 14.7466 44.9729 24.5602C44.9729 34.3739 36.9885 42.3582 27.1748 42.3582ZM47.1976 15.6611C45.9712 15.6611 44.9729 14.6628 44.9729 13.4364C44.9729 12.21 45.9712 11.2117 47.1976 11.2117C48.424 11.2117 49.4224 12.21 49.4224 13.4364C49.4224 14.6628 48.424 15.6611 47.1976 15.6611Z" fill="url(#paint5_linear)"/>
<path d="M34.5605 28.4548C34.1629 27.7661 33.031 27.7661 32.6335 28.4548L26.8739 38.4314C26.6707 38.7834 26.6761 39.218 26.8869 39.5655C27.089 39.898 27.4496 40.1 27.8375 40.1C27.8537 40.1 27.8712 40.1 27.8874 40.099C31.6092 39.9305 35.1493 38.4304 37.8565 35.8732C38.2313 35.5202 38.3138 34.9553 38.0564 34.5088L34.5605 28.4548Z" fill="url(#paint6_linear)"/>
<defs>
<linearGradient id="paint0_linear" x1="16.412" y1="16.7954" x2="28.0092" y2="28.9752" gradientUnits="userSpaceOnUse">
<stop stop-color="#FAAA4C"/>
<stop offset="1" stop-color="#FA4C6C"/>
</linearGradient>
<linearGradient id="paint1_linear" x1="37.9373" y1="20.1108" x2="37.9373" y2="32.3242" gradientUnits="userSpaceOnUse">
<stop stop-color="#FAAA4C"/>
<stop offset="1" stop-color="#FA4C6C"/>
</linearGradient>
<linearGradient id="paint2_linear" x1="33.5828" y1="9.59741" x2="36.9777" y2="23.0306" gradientUnits="userSpaceOnUse">
<stop stop-color="#FAAA4C"/>
<stop offset="1" stop-color="#FA4C6C"/>
</linearGradient>
<linearGradient id="paint3_linear" x1="20.7669" y1="31.2344" x2="20.7669" y2="39.5229" gradientUnits="userSpaceOnUse">
<stop stop-color="#FAAA4C"/>
<stop offset="1" stop-color="#FA4C6C"/>
</linearGradient>
<linearGradient id="paint4_linear" x1="21.885" y1="9.02124" x2="31.7633" y2="31.7906" gradientUnits="userSpaceOnUse">
<stop stop-color="#FAAA4C"/>
<stop offset="1" stop-color="#FA4C6C"/>
</linearGradient>
<linearGradient id="paint5_linear" x1="27.1749" y1="0.0878901" x2="43.2348" y2="44.6178" gradientUnits="userSpaceOnUse">
<stop stop-color="#FAAA4C"/>
<stop offset="1" stop-color="#FA4C6C"/>
</linearGradient>
<linearGradient id="paint6_linear" x1="32.4652" y1="27.9382" x2="32.4652" y2="40.1" gradientUnits="userSpaceOnUse">
<stop stop-color="#FAAA4C"/>
<stop offset="1" stop-color="#FA4C6C"/>
</linearGradient>
</defs>
</svg>
