<svg width="52" height="59" viewBox="0 0 52 59" fill="none" xmlns="http://www.w3.org/2000/svg">
<path d="M25.8136 0.892578C23.4396 0.892578 21.4431 2.53562 20.8989 4.74392C15.4058 5.82214 10.3946 8.70471 6.67514 12.9552C2.62256 17.5862 0.390747 23.5295 0.390747 29.6902C0.390747 30.622 1.14623 31.3775 2.07811 31.3775C3.00998 31.3775 3.76546 30.622 3.76546 29.6902C3.76546 24.3472 5.70075 19.1932 9.21484 15.1775C12.3712 11.5705 16.5978 9.09831 21.2379 8.1174C22.0506 9.82962 23.7958 11.0167 25.8136 11.0167C28.6048 11.0167 30.8757 8.74588 30.8757 5.95465C30.8757 3.16342 28.6048 0.892578 25.8136 0.892578Z" fill="url(#paint0_linear)"/>
<path d="M40.2759 26.6264C39.8679 26.3426 39.0916 25.8939 38.5381 25.6549L37.6644 23.5457C37.8801 23.0021 38.1158 22.1324 38.2062 21.6299C38.3039 21.0862 38.1292 20.529 37.7386 20.1383L35.3652 17.765C34.9745 17.3742 34.4173 17.1995 33.8736 17.2974C33.3788 17.3863 32.5147 17.6182 31.9579 17.8391L29.8487 16.9654C29.6174 16.4297 29.1691 15.6474 28.8771 15.2277C28.5617 14.7741 28.0442 14.5037 27.4918 14.5037H24.1354C23.583 14.5037 23.0655 14.7741 22.7501 15.2277C22.4663 15.6357 22.0175 16.412 21.7785 16.9654L19.6693 17.8391C19.1258 17.6235 18.2561 17.3877 17.7536 17.2974C17.2102 17.1998 16.6526 17.3744 16.262 17.765L13.8886 20.1383C13.498 20.529 13.3233 21.0862 13.421 21.6299C13.51 22.1248 13.7418 22.9888 13.9628 23.5457L13.0891 25.6549C12.5534 25.8861 11.771 26.3344 11.3513 26.6264C10.8977 26.9419 10.6273 27.4593 10.6273 28.0118V31.3681C10.6273 31.9206 10.8977 32.438 11.3513 32.7535C11.7593 33.0373 12.5356 33.486 13.0891 33.725L13.9628 35.8342C13.7471 36.3778 13.5114 37.2474 13.421 37.7499C13.3233 38.2937 13.498 38.8509 13.8886 39.2416L16.262 41.6149C16.6525 42.0056 17.2095 42.18 17.7536 42.0825C18.2484 41.9935 19.1125 41.7617 19.6693 41.5408L21.7785 42.4145C22.0098 42.9502 22.4581 43.7325 22.7501 44.1522C23.0655 44.6058 23.583 44.8762 24.1354 44.8762H27.4918C28.0442 44.8762 28.5617 44.6058 28.8771 44.1522C29.1609 43.7442 29.6096 42.9679 29.8487 42.4145L31.9579 41.5408C32.5014 41.7564 33.3711 41.9922 33.8736 42.0825C34.4174 42.1803 34.9745 42.0056 35.3652 41.6149L37.7386 39.2416C38.1292 38.8509 38.3039 38.2937 38.2062 37.7499C38.1172 37.2551 37.8854 36.3911 37.6644 35.8342L38.5381 33.725C39.0738 33.4938 39.8562 33.0455 40.2759 32.7535C40.7294 32.438 40.9999 31.9206 40.9999 31.3681V28.0118C40.9999 27.4593 40.7294 26.9419 40.2759 26.6264ZM25.8135 36.4395C22.0919 36.4395 19.0641 33.4117 19.0641 29.6901C19.0641 25.9685 22.0919 22.9407 25.8135 22.9407C29.5352 22.9407 32.563 25.9685 32.563 29.6901C32.563 33.4117 29.5352 36.4395 25.8135 36.4395Z" fill="url(#paint1_linear)"/>
<path d="M49.5492 28.0024C48.6173 28.0024 47.8618 28.7579 47.8618 29.6898C47.8618 35.0328 45.9265 40.1867 42.4124 44.2024C39.2561 47.8094 35.0295 50.2816 30.3893 51.2626C29.5767 49.5503 27.8315 48.3632 25.8137 48.3632C23.0224 48.3632 20.7516 50.6341 20.7516 53.4253C20.7516 56.2165 23.0224 58.4874 25.8137 58.4874C28.1877 58.4874 30.1841 56.8443 30.7284 54.636C36.2215 53.5578 41.2326 50.6753 44.9521 46.4248C49.0047 41.7938 51.2365 35.8505 51.2365 29.6898C51.2365 28.7579 50.481 28.0024 49.5492 28.0024Z" fill="url(#paint2_linear)"/>
<defs>
<linearGradient id="paint0_linear" x1="15.6332" y1="0.892578" x2="15.6332" y2="31.3775" gradientUnits="userSpaceOnUse">
<stop stop-color="#FABE44"/>
<stop offset="1" stop-color="#FA4C6C"/>
</linearGradient>
<linearGradient id="paint1_linear" x1="25.8136" y1="14.5037" x2="25.8136" y2="44.8762" gradientUnits="userSpaceOnUse">
<stop stop-color="#FABE44"/>
<stop offset="1" stop-color="#FA4C6C"/>
</linearGradient>
<linearGradient id="paint2_linear" x1="35.9941" y1="28.0024" x2="35.9941" y2="58.4874" gradientUnits="userSpaceOnUse">
<stop stop-color="#FABE44"/>
<stop offset="1" stop-color="#FA4C6C"/>
</linearGradient>
</defs>
</svg>
