<svg width="49" height="48" viewBox="0 0 49 48" fill="none" xmlns="http://www.w3.org/2000/svg">
<path d="M43.2612 0.739502C40.4042 0.739502 38.0955 3.07149 38.0955 5.90521V32.9547C38.0955 34.9148 39.2017 36.6409 40.8359 37.514C44.2813 39.3553 48.4269 36.8251 48.4269 32.9547V5.90521C48.4269 3.05684 46.1095 0.739502 43.2612 0.739502Z" fill="url(#paint0_linear)"/>
<path d="M15.2726 8.95681V25.441C15.2726 26.2187 14.6414 26.8499 13.8637 26.8499C13.0861 26.8499 12.4549 26.2187 12.4549 25.441V9.00471H7.38313C3.49289 9.00471 0.338989 12.1586 0.338989 16.0489V22.8112C0.338989 26.7015 3.49289 29.8554 7.38313 29.8554H12.7235L15.2134 41.5299C15.8765 44.7101 18.6425 47.0468 21.9232 47.1342C24.4919 47.2027 26.3187 44.9505 25.8209 42.5705L24.8028 37.6809C27.5716 36.7765 29.745 34.5515 30.5828 31.7601C32.1823 32.0522 33.7555 32.41 35.2779 32.8703V6.01611C29.3064 7.91437 21.5152 8.79395 15.2726 8.95681ZM24.2233 34.898C23.9322 33.5033 23.6448 32.1208 23.3593 30.7514C24.8226 30.9214 26.2981 31.097 27.7642 31.3065C27.1575 32.951 25.8604 34.2678 24.2233 34.898Z" fill="url(#paint1_linear)"/>
<defs>
<linearGradient id="paint0_linear" x1="43.2612" y1="0.739502" x2="43.2612" y2="38.1276" gradientUnits="userSpaceOnUse">
<stop stop-color="#FABE44"/>
<stop offset="1" stop-color="#FA4C6C"/>
</linearGradient>
<linearGradient id="paint1_linear" x1="17.8085" y1="6.01611" x2="17.8085" y2="47.1357" gradientUnits="userSpaceOnUse">
<stop stop-color="#FABE44"/>
<stop offset="1" stop-color="#FA4C6C"/>
</linearGradient>
</defs>
</svg>
