<svg width="49" height="49" viewBox="0 0 49 49" fill="none" xmlns="http://www.w3.org/2000/svg">
<path d="M48.1868 19.6142C48.8187 18.9823 48.8187 17.9577 48.1868 17.3257L45.7582 14.8971C45.209 14.3479 44.3467 14.2665 43.7044 14.703L38.5981 18.1735L42.0476 13.0327C42.4784 12.3907 42.3949 11.5335 41.848 10.9868L36.5801 5.71894C36.0938 5.23261 35.3533 5.10671 34.7339 5.40522L33.823 5.84376L34.2592 4.87606C34.5357 4.26274 34.4038 3.54252 33.9282 3.06676L32.2746 1.41335C31.6427 0.781486 30.618 0.781486 29.9861 1.41335L17.1416 14.2577L35.3424 32.4586L48.1868 19.6142Z" fill="url(#paint0_linear)"/>
<path d="M14.75 16.6499L11.0318 20.3682C10.7283 20.6717 10.5577 21.0832 10.5577 21.5124C10.5577 21.9415 10.7282 22.3532 11.0318 22.6566L14.5589 26.1837C15.2384 26.8632 15.568 27.8011 15.4632 28.7566C15.3584 29.7114 14.8328 30.5557 14.0212 31.0731C3.65717 37.6796 2.69108 38.6458 2.37369 38.9633C0.0953257 41.2416 0.0953257 44.9487 2.37369 47.2271C4.65432 49.5078 8.36159 49.5032 10.6375 47.2271C10.9551 46.9096 11.9215 45.9431 18.5275 35.5796C19.0437 34.7699 19.8876 34.2455 20.8429 34.1406C21.8012 34.036 22.7389 34.364 23.4169 35.0418L26.944 38.5689C27.5758 39.2008 28.6006 39.2008 29.2325 38.5689L32.9509 34.8505L14.75 16.6499ZM8.2221 44.6133C7.32883 45.5066 5.88062 45.5066 4.98746 44.6133C4.0942 43.7201 4.0942 42.2719 4.98746 41.3787C5.88073 40.4854 7.32894 40.4854 8.2221 41.3787C9.11536 42.2719 9.11536 43.7201 8.2221 44.6133Z" fill="url(#paint1_linear)"/>
<defs>
<linearGradient id="paint0_linear" x1="35.1871" y1="33.7357" x2="26.125" y2="9.13853" gradientUnits="userSpaceOnUse">
<stop stop-color="#FA476D"/>
<stop offset="1" stop-color="#FAB747"/>
</linearGradient>
<linearGradient id="paint1_linear" x1="16.8079" y1="16.6499" x2="16.8079" y2="48.9359" gradientUnits="userSpaceOnUse">
<stop stop-color="#FAB747"/>
<stop offset="1" stop-color="#FA476D"/>
</linearGradient>
</defs>
</svg>
