<svg width="36" height="35" viewBox="0 0 36 35" fill="none" xmlns="http://www.w3.org/2000/svg">
<path d="M18.1505 34.9334C27.7971 34.9334 35.6173 27.1133 35.6173 17.4667C35.6173 7.82011 27.7971 0 18.1505 0C8.50395 0 0.683838 7.82011 0.683838 17.4667C0.683838 27.1133 8.50395 34.9334 18.1505 34.9334Z" fill="#41B4E6"/>
<path d="M35.6176 17.4669C35.6176 17.0413 35.6016 16.6196 35.5717 16.2015L28.3326 8.96252L7.96887 16.9727L15.7601 24.764L15.8623 25.1319L15.9946 24.9985L15.9952 24.9991L15.8623 25.1319L24.481 33.7505C30.9983 31.2151 35.6176 24.8808 35.6176 17.4669Z" fill="#0091C8"/>
<path d="M16.4544 20.0117L24.3481 25.9714L28.3326 8.96252L7.96887 16.9727L14.1653 19.0251L25.474 11.4396L16.4544 20.0117Z" fill="white"/>
<path d="M14.1653 19.025L15.8624 25.1319L16.4544 20.0116L25.4739 11.4395L14.1653 19.025Z" fill="#D2D2D7"/>
<path d="M19.0199 21.9486L15.8624 25.132L16.4545 20.0117L19.0199 21.9486Z" fill="#B9B9BE"/>
</svg>
