<svg width="854" height="224" viewBox="0 0 854 224" fill="none" xmlns="http://www.w3.org/2000/svg">
<path d="M132.496 0L108.321 92.5331H80.9768L66.1817 31.6353L50.8582 92.5331H23.5137L0 0H24.1742L37.5162 67.3567L54.0286 0H78.8632L94.7151 67.3567L108.189 0H132.496Z" fill="#202020"/>
<path d="M174.339 18.0585V36.776H204.59V54.1754H174.339V74.4747H208.553V92.5331H151.75V0H208.553V18.0585H174.339Z" fill="#202020"/>
<path d="M287.286 45.0802C292.658 46.2226 296.973 48.9028 300.232 53.1209C303.49 57.251 305.119 61.9963 305.119 67.3567C305.119 75.0898 302.389 81.2411 296.929 85.8106C291.557 90.2923 284.027 92.5331 274.34 92.5331H231.144V0H272.887C282.31 0 289.664 2.15295 294.948 6.45886C300.32 10.7648 303.006 16.6085 303.006 23.9901C303.006 29.4384 301.553 33.964 298.646 37.5669C295.828 41.1698 292.041 43.6742 287.286 45.0802ZM253.733 37.4351H268.528C272.227 37.4351 275.045 36.6442 276.982 35.0624C279.008 33.3928 280.02 30.9762 280.02 27.8127C280.02 24.6491 279.008 22.2326 276.982 20.5629C275.045 18.8933 272.227 18.0585 268.528 18.0585H253.733V37.4351ZM270.377 74.3429C274.164 74.3429 277.07 73.508 279.096 71.8384C281.209 70.0809 282.266 67.5764 282.266 64.325C282.266 61.0736 281.165 58.5252 278.964 56.6798C276.85 54.8345 273.9 53.9118 270.113 53.9118H253.733V74.3429H270.377Z" fill="#202020"/>
<path d="M291.067 130.544C300.843 130.544 309.385 132.477 316.694 136.344C324.004 140.21 329.64 145.659 333.603 152.689C337.654 159.631 339.68 167.672 339.68 176.811C339.68 185.862 337.654 193.903 333.603 200.933C329.64 207.963 323.96 213.411 316.562 217.278C309.253 221.144 300.754 223.077 291.067 223.077H256.325V130.544H291.067ZM289.614 203.569C298.157 203.569 304.806 201.24 309.561 196.583C314.317 191.925 316.694 185.335 316.694 176.811C316.694 168.287 314.317 161.652 309.561 156.907C304.806 152.162 298.157 149.789 289.614 149.789H278.914V203.569H289.614Z" fill="#202020"/>
<path d="M382.818 148.603V167.32H413.069V184.72H382.818V205.019H417.032V223.077H360.229V130.544H417.032V148.603H382.818Z" fill="#202020"/>
<path d="M526.676 130.544L493.784 223.077H465.515L432.622 130.544H456.664L479.649 200.405L502.766 130.544H526.676Z" fill="#202020"/>
<path d="M566.632 148.603V167.32H596.883V184.72H566.632V205.019H600.846V223.077H544.043V130.544H600.846V148.603H566.632Z" fill="#202020"/>
<path d="M646.026 205.678H675.616V223.077H623.437V130.544H646.026V205.678Z" fill="#202020"/>
<path d="M738.173 224C729.455 224 721.441 221.979 714.131 217.937C706.91 213.894 701.142 208.27 696.826 201.064C692.599 193.771 690.486 185.598 690.486 176.547C690.486 167.496 692.599 159.367 696.826 152.162C701.142 144.956 706.91 139.332 714.131 135.289C721.441 131.247 729.455 129.226 738.173 129.226C746.892 129.226 754.862 131.247 762.083 135.289C769.393 139.332 775.117 144.956 779.256 152.162C783.484 159.367 785.597 167.496 785.597 176.547C785.597 185.598 783.484 193.771 779.256 201.064C775.029 208.27 769.305 213.894 762.083 217.937C754.862 221.979 746.892 224 738.173 224ZM738.173 203.437C745.571 203.437 751.472 200.977 755.875 196.056C760.366 191.134 762.612 184.632 762.612 176.547C762.612 168.375 760.366 161.872 755.875 157.039C751.472 152.118 745.571 149.657 738.173 149.657C730.688 149.657 724.699 152.074 720.208 156.907C715.805 161.74 713.603 168.287 713.603 176.547C713.603 184.72 715.805 191.266 720.208 196.187C724.699 201.02 730.688 203.437 738.173 203.437Z" fill="#202020"/>
<path d="M876.763 160.334C876.763 165.694 875.53 170.615 873.064 175.097C870.598 179.491 866.812 183.05 861.704 185.774C856.596 188.498 850.255 189.86 842.681 189.86H828.679V223.077H806.09V130.544H842.681C850.079 130.544 856.332 131.818 861.44 134.367C866.547 136.915 870.378 140.43 872.932 144.912C875.486 149.394 876.763 154.534 876.763 160.334ZM840.964 171.934C845.279 171.934 848.494 170.923 850.607 168.902C852.721 166.881 853.778 164.025 853.778 160.334C853.778 156.643 852.721 153.787 850.607 151.766C848.494 149.745 845.279 148.734 840.964 148.734H828.679V171.934H840.964Z" fill="#202020"/>
</svg>
