<svg width="360" height="77" viewBox="0 0 360 77" fill="none" xmlns="http://www.w3.org/2000/svg">
<path fill-rule="evenodd" clip-rule="evenodd" d="M217.987 5.70437C217.963 4.94242 218.097 4.18378 218.382 3.47732C218.668 2.77088 219.097 2.13233 219.642 1.60287C220.912 0.565998 222.498 0 224.134 0C225.77 0 227.355 0.565998 228.625 1.60287C229.163 2.14306 229.589 2.78442 229.881 3.49039C230.171 4.19635 230.321 4.95311 230.321 5.71729C230.321 6.48146 230.171 7.23812 229.881 7.94409C229.589 8.65009 229.163 9.29152 228.625 9.83171C227.363 10.8847 225.774 11.4611 224.134 11.4611C222.493 11.4611 220.905 10.8847 219.642 9.83171C219.092 9.30029 218.66 8.65772 218.375 7.94632C218.09 7.23491 217.957 6.47083 217.987 5.70437ZM229.677 57.8504H218.629V16.4225H229.677V57.8504ZM196.567 42.7992L201.982 16.423H212.608L202.162 57.851H192.936L185.134 31.7715L177.319 57.851H168.144L157.622 16.423H168.26L173.623 42.7603L181.169 16.423H189.137L196.567 42.7992ZM249.219 21.2075L248.872 16.4224H238.453V57.8114H249.463V28.5979C250.136 27.3447 251.147 26.3067 252.379 25.6021C253.611 24.8975 255.015 24.5546 256.43 24.6125C257.349 24.5144 258.276 24.6045 259.159 24.8772C260.041 25.1498 260.859 25.5995 261.564 26.199C262.718 27.6548 263.266 29.5045 263.091 31.3581V57.889H274.101V31.1258C274.032 25.9667 272.937 22.0974 270.815 19.5178C268.694 16.9383 265.443 15.6484 261.063 15.6484C258.792 15.5701 256.536 16.0329 254.477 16.9991C252.419 17.9652 250.617 19.4074 249.219 21.2075ZM280.839 36.8277C280.839 30.4731 282.344 25.357 285.355 21.479C286.769 19.5974 288.612 18.0854 290.729 17.0707C292.847 16.056 295.176 15.5684 297.52 15.6492C299.522 15.5463 301.52 15.9162 303.354 16.7293C305.187 17.5423 306.806 18.7759 308.08 20.3311L308.53 16.4617H318.513V56.445C318.593 59.7649 317.742 63.04 316.064 65.8993C314.411 68.5852 312.005 70.7176 309.145 72.0256C305.864 73.4962 302.295 74.2185 298.701 74.141C295.666 74.1382 292.663 73.5197 289.873 72.3225C287.333 71.3491 285.087 69.7317 283.354 67.6275L288.23 60.882C289.447 62.3514 290.975 63.5303 292.701 64.3336C294.428 65.1365 296.311 65.5437 298.213 65.5252C299.448 65.6015 300.685 65.4322 301.854 65.0271C303.023 64.6221 304.102 63.9894 305.028 63.1648C305.873 62.2831 306.528 61.2333 306.947 60.0828C307.367 58.9326 307.544 57.7067 307.465 56.4839V54.2654C306.216 55.6853 304.67 56.8095 302.937 57.5566C301.204 58.3036 299.328 58.6555 297.443 58.5863C295.125 58.644 292.825 58.1454 290.736 57.1315C288.647 56.1178 286.829 54.6179 285.433 52.7565C282.37 48.8613 280.839 43.702 280.839 37.279V36.8277ZM291.849 37.6529C291.672 40.7605 292.456 43.8466 294.094 46.488C294.766 47.5069 295.686 48.3368 296.766 48.8987C297.846 49.4607 299.051 49.7363 300.267 49.6995C301.707 49.7977 303.145 49.4869 304.418 48.8029C305.692 48.1186 306.748 47.0886 307.465 45.8303V28.4439C306.742 27.2122 305.695 26.2058 304.437 25.5364C303.18 24.8671 301.763 24.5609 300.343 24.6519C299.115 24.613 297.897 24.8928 296.806 25.4643C295.717 26.0358 294.791 26.8799 294.12 27.915C292.606 30.0819 291.849 33.3279 291.849 37.6529ZM348.751 44.5086C349.104 45.074 349.293 45.7277 349.296 46.3957C349.309 47.0179 349.168 47.6336 348.886 48.1875C348.605 48.7412 348.188 49.216 347.68 49.5685C346.253 50.4743 344.576 50.8988 342.892 50.7811C340.966 50.8812 339.065 50.3267 337.491 49.2074C336.812 48.6682 336.264 47.9824 335.887 47.2008C335.508 46.4191 335.312 45.5621 335.309 44.6931H324.875C324.878 47.2045 325.677 49.6495 327.159 51.6709C328.763 53.9268 330.94 55.7085 333.459 56.8299C336.359 58.1127 339.497 58.7466 342.662 58.6873C347.092 58.8859 351.47 57.6616 355.159 55.1919C356.668 54.1943 357.899 52.8313 358.747 51.2288C359.592 49.6263 360.021 47.8353 359.999 46.0215C359.999 40.7336 357.088 37.0189 351.271 34.8779C349.015 34.0771 346.697 33.4562 344.343 33.0205C342.292 32.7153 340.314 32.052 338.493 31.06C337.966 30.7647 337.528 30.3342 337.225 29.8129C336.919 29.2915 336.76 28.6981 336.76 28.0936C336.747 27.476 336.882 26.8643 337.145 26.3069C337.412 25.7495 337.801 25.2618 338.284 24.882C339.524 23.9605 341.046 23.5041 342.586 23.5923C343.44 23.5166 344.303 23.6146 345.121 23.8804C345.938 24.1463 346.694 24.5747 347.346 25.14C347.845 25.6485 348.24 26.2532 348.5 26.9181C348.764 27.583 348.889 28.2943 348.871 29.0094H359.883C359.923 27.14 359.516 25.2885 358.695 23.6099C357.875 21.9313 356.668 20.4745 355.174 19.3617C352.043 16.8853 347.857 15.6471 342.622 15.6471C338.349 15.4475 334.142 16.7571 330.729 19.3489C329.302 20.4164 328.148 21.8064 327.355 23.4064C326.565 25.0063 326.158 26.7712 326.173 28.5579C326.173 34.8606 331.075 39.048 340.877 41.1204C343.106 41.489 345.271 42.1891 347.294 43.1972C347.891 43.4888 348.396 43.9433 348.751 44.5086Z" fill="white"/>
<path fill-rule="evenodd" clip-rule="evenodd" d="M1.73191 0H66.1569H78.0528H115.098C117.89 0.0183553 120.652 0.603249 123.224 1.72124C125.797 2.83923 128.13 4.46841 130.091 6.51562C132.052 8.56286 133.602 10.9879 134.652 13.6523C135.702 16.3167 136.232 19.1681 136.212 22.0436V36.0712C136.212 39.2327 135.003 42.2669 132.847 44.5173C130.691 46.7677 127.761 48.0528 124.692 48.0951H85.6167C85.1006 48.0951 84.6055 48.3063 84.2405 48.6822C83.8758 49.0578 83.6706 49.5677 83.6706 50.0991V54.107C83.6706 54.6384 83.8758 55.1483 84.2405 55.5239C84.6055 55.8998 85.1006 56.1111 85.6167 56.1111H112.86C113.892 56.1111 114.882 55.6888 115.612 54.937C116.342 54.1855 116.752 53.1661 116.752 52.1029H132.32C132.844 52.1026 133.364 52.2112 133.846 52.4228C134.328 52.6341 134.765 52.9436 135.128 53.333C135.492 53.7223 135.775 54.1834 135.961 54.6882C136.148 55.1931 136.233 55.7317 136.212 56.2713V56.5117C136.266 59.0357 135.837 61.5458 134.949 63.8989C134.061 66.252 132.731 68.4019 131.036 70.2257C129.341 72.0492 127.314 73.5112 125.07 74.5277C122.826 75.5446 120.409 76.0958 117.958 76.1506H77.8327C74.2202 76.1506 70.7553 74.6727 68.2008 72.042C66.5866 70.3797 65.4195 68.3434 64.7788 66.1308H43.0249C39.3552 66.1308 35.8363 64.6297 33.2413 61.9577C30.6467 59.2857 29.189 55.6616 29.189 51.8829V49.8788C29.189 49.4059 29.3715 48.952 29.6963 48.6174C30.0211 48.2832 30.4616 48.0951 30.9208 48.0951H64.2111V42.0831H27.4575C25.6405 42.0831 23.8414 41.7144 22.1627 40.9986C20.4841 40.2825 18.9588 39.233 17.6741 37.91C16.3893 36.5867 15.3701 35.0161 14.6748 33.2875C13.9795 31.5588 13.6217 29.706 13.6217 27.8349V25.831C13.6217 25.358 13.8041 24.9043 14.1289 24.5698C14.4537 24.2353 14.8942 24.0474 15.3535 24.0474H64.2111V18.0357H13.8358C12.0189 18.0357 10.2197 17.6671 8.54106 16.9511C6.86245 16.235 5.3372 15.1855 4.05242 13.8625C2.76765 12.5394 1.7485 10.9687 1.05318 9.24001C0.357868 7.51133 0 5.65862 0 3.78753V1.78356C0 1.54934 0.0448008 1.31738 0.131837 1.10099C0.218874 0.884605 0.34644 0.688013 0.507262 0.522397C0.668085 0.356781 0.859003 0.225397 1.06913 0.135767C1.27925 0.0461361 1.50447 0 1.73191 0ZM84.2405 20.6266C83.8758 21.0024 83.6706 21.5121 83.6706 22.0436V26.0515C83.6706 26.583 83.8758 27.0927 84.2405 27.4685C84.6055 27.8443 85.1006 28.0555 85.6167 28.0555H117.005C117.005 25.9502 116.201 23.9293 114.767 22.4295C113.332 20.9296 111.382 20.0712 109.338 20.0396H85.6167C85.1006 20.0396 84.6055 20.2508 84.2405 20.6266Z" fill="white"/>
</svg>
