<svg width="44" height="31" viewBox="0 0 44 31" fill="none" xmlns="http://www.w3.org/2000/svg">
<path d="M42.9818 5.26288C42.4832 3.40987 41.0222 1.94924 39.1695 1.45027C35.7846 0.523926 22.2449 0.523926 22.2449 0.523926C22.2449 0.523926 8.70558 0.523926 5.32066 1.41495C3.50362 1.9136 2.00702 3.4102 1.50837 5.26288C0.617676 8.64747 0.617676 15.6668 0.617676 15.6668C0.617676 15.6668 0.617676 22.7214 1.50837 26.0707C2.00735 27.9234 3.46798 29.3843 5.32099 29.8833C8.74122 30.8097 22.2453 30.8097 22.2453 30.8097C22.2453 30.8097 35.7846 30.8097 39.1695 29.9186C41.0225 29.42 42.4832 27.959 42.9821 26.1063C43.8728 22.7214 43.8728 15.7024 43.8728 15.7024C43.8728 15.7024 43.9085 8.64747 42.9818 5.26288Z" fill="#FF0000"/>
<path d="M17.9341 22.1516L29.1931 15.6669L17.9341 9.18213V22.1516Z" fill="white"/>
</svg>
