<svg width="100" height="100" viewBox="0 0 100 100" fill="none" xmlns="http://www.w3.org/2000/svg">
<path d="M72.4849 10.6344L40.1152 6.40549L15.2619 20.9043L6.73364 39.6317L19.2627 68.6289L41.6912 84.6983L69.9389 84.9399L84.972 70.9247L90.6077 50.0059L88.9728 30.0868L85.8208 22.475L72.4849 10.6344Z" fill="#020518"/>
<path d="M68.8674 5.54689C68.8674 5.54689 85.3957 8.64796 92.6698 28.2212L87.2952 29.4697L67.0891 8.84946L68.8674 5.54689Z" fill="#020518"/>
<path d="M42.8536 29.1109C33.67 34.1853 28.3963 53.2149 40.7622 62.186C53.1282 71.157 69.1314 66.8075 74.9506 49.1372C80.7699 31.4669 86.3163 30.8327 86.3163 30.8327L88.4076 28.8389C83.134 13.7966 69.9496 9.44722 69.9496 9.44722C67.6764 19.868 52.0371 24.0363 42.8536 29.1109Z" fill="url(#paint0_linear)"/>
<path d="M6.49775 71.813L10.0102 71.022L5.46045 70.1901L6.49775 71.813Z" fill="#505688"/>
<path d="M19.3527 58.36L16.9006 62.2305L20.883 61.124L19.3527 58.36Z" fill="#373E79"/>
<path d="M7.20682 53.6162L9.93996 50.8832L6.98706 50.6741L7.20682 53.6162Z" fill="#303462"/>
<path d="M18.7559 76.901L16.8471 74.1201L15.552 77.5215L18.7559 76.901Z" fill="#6E739E"/>
<path d="M15.3878 68.0997L15.3569 70.9688L18.0704 68.816L15.3878 68.0997Z" fill="#4E558D"/>
<path d="M2.78735 63.6716L2.81161 65.334L6.64506 64.447L2.78735 63.6716Z" fill="#404578"/>
<path d="M10.0104 71.0223L7.59619 73.4128L8.72538 74.9487L10.0104 71.0223Z" fill="#53588B"/>
<path d="M18.15 71.5828L16.8472 74.1202L21.1899 74.7339L18.15 71.5828Z" fill="#5A6197"/>
<path d="M12.3667 79.299L13.5985 80.5952L15.552 77.522L12.3667 79.299Z" fill="#6B6F99"/>
<path d="M18.1499 71.5828L21.1898 74.7339L20.7371 70.3678L18.1499 71.5828Z" fill="#5A6197"/>
<path d="M20.7371 70.3677L20.2411 67.0892L18.0706 68.816L20.7371 70.3677Z" fill="#565E99"/>
<path d="M12.3667 79.2988L13.1812 75.9536L11.1699 77.9599L12.3667 79.2988Z" fill="#6B6F99"/>
<path d="M11.17 77.96L13.1812 75.9537L9.9751 76.5376L11.17 77.96Z" fill="#656A96"/>
<path d="M17.1602 65.8385L12.9968 64.6494L15.388 68.0996L17.1602 65.8385Z" fill="#48508A"/>
<path d="M19.4943 63.8584L20.883 61.124L16.9006 62.2304L19.4943 63.8584Z" fill="#434B8A"/>
<path d="M8.72534 74.9485L9.97502 76.5371L12.6459 73.1678L8.72534 74.9485Z" fill="#5A608F"/>
<path d="M10.0103 71.0223L8.72534 74.9487L12.6459 73.168L10.0103 71.0223Z" fill="#53588B"/>
<path d="M20.241 67.0895L25.1797 67.2847L22.4692 64.5937L20.241 67.0895Z" fill="#4B5493"/>
<path d="M19.4943 63.8582L16.9006 62.2302L17.1603 65.8384L19.4943 63.8582Z" fill="#434B8A"/>
<path d="M16.8472 74.1205L12.646 73.1683L13.1812 75.9536L16.8472 74.1205Z" fill="#626898"/>
<path d="M2.14697 63.7589L2.19177 63.9219L2.78743 63.6716L2.14697 63.7589Z" fill="#404578"/>
<path d="M13.7042 60.516L11.0649 58.4073L10.2791 62.0605L13.7042 60.516Z" fill="#3C4279"/>
<path d="M17.1602 65.8384L16.9006 62.2302L12.9968 64.6493L17.1602 65.8384Z" fill="#48508A"/>
<path d="M2.78753 63.6715L2.13647 63.5902L2.14707 63.7588L2.78753 63.6715Z" fill="#404578"/>
<path d="M6.64522 64.4468L2.81177 65.3338L3.61451 66.9487L6.64522 64.4468Z" fill="#42487C"/>
<path d="M2.78753 63.6714L2.26167 61.7734L2.13647 63.59L2.78753 63.6714Z" fill="#404578"/>
<path d="M2.46973 59.6637L5.46319 61.4658L6.06892 56.5813L2.46973 59.6637Z" fill="#3A3F71"/>
<path d="M22.5148 58.1774L20.8828 61.1241L24.2587 61.2236L22.5148 58.1774Z" fill="#373F7E"/>
<path d="M2.81181 65.334L2.78755 63.6716L2.19189 63.9218L2.81181 65.334Z" fill="#42487B"/>
<path d="M4.49023 68.5528L5.4605 70.1904L9.10159 67.3413L4.49023 68.5528Z" fill="#484E81"/>
<path d="M2.26172 61.7734L5.4633 61.4657L2.46984 59.6635L2.26172 61.7734Z" fill="#3D4375"/>
<path d="M2.73159 57.5586L2.46973 59.6631L6.06892 56.5807L2.73159 57.5586Z" fill="#373C6D"/>
<path d="M7.20701 53.6158L3.33789 53.7587L6.0691 56.5811L7.20701 53.6158Z" fill="#303462"/>
<path d="M2.26172 61.7735L2.78757 63.6714L5.4633 61.4657L2.26172 61.7735Z" fill="#3D4375"/>
<path d="M3.33783 53.7587L3.00391 55.7163L6.06903 56.5811L3.33783 53.7587Z" fill="#313564"/>
<path d="M18.1987 47.0154L18.9622 50.9316L22.4572 48.9863L18.1987 47.0154Z" fill="#252951"/>
<path d="M47.5853 88.3687L46.748 91.6626L50.6821 89.3985L47.5853 88.3687Z" fill="#8D91B3"/>
<path d="M37.7639 79.0604L40.1917 81.4717L42.2096 78.7105L37.7639 79.0604Z" fill="#6973B8"/>
<path d="M6.98723 50.6738L4.41616 48.7682L4.05444 50.2722L6.98723 50.6738Z" fill="#2C2F5B"/>
<path d="M10.0102 71.0225L9.10154 67.3414L5.46045 70.1906L10.0102 71.0225Z" fill="#53588B"/>
<path d="M18.0704 68.8163L15.3569 70.969L18.1498 71.583L18.0704 68.8163Z" fill="#515892"/>
<path d="M25.0586 55.963L20.8889 55.1171L22.5151 58.1772L25.0586 55.963Z" fill="#353D7B"/>
<path d="M18.0621 80.0799L15.5522 77.522L13.5986 80.5952L18.0621 80.0799Z" fill="#787C9F"/>
<path d="M18.7561 76.9013L21.3264 79.123L21.19 74.7341L18.7561 76.9013Z" fill="#6E739E"/>
<path d="M27.0221 85.5796L27.2056 80.2533L23.8704 84.3809L27.0221 85.5796Z" fill="#9596A6"/>
<path d="M23.5479 52.4405L20.8889 55.1172L24.2186 54.1274L23.5479 52.4405Z" fill="#2F356A"/>
<path d="M20.8574 86.8521L20.9904 82.6297L19.4512 85.8013L20.8574 86.8521Z" fill="#8D8FA4"/>
<path d="M9.9751 76.5371L13.1812 75.9532L12.646 73.1678L9.9751 76.5371Z" fill="#606593"/>
<path d="M16.8471 74.1201L13.1812 75.9532L15.5521 77.5215L16.8471 74.1201Z" fill="#626898"/>
<path d="M26.2664 64.1049L28.5157 66.8052L30.3941 64.0162L26.2664 64.1049Z" fill="#414B99"/>
<path d="M23.9687 88.9424L27.0221 85.5793L23.8704 84.3806L23.9687 88.9424Z" fill="#9495A6"/>
<path d="M19.3525 58.3599L20.8887 55.117L17.4844 55.8103L19.3525 58.3599Z" fill="#373E79"/>
<path d="M28.5417 91.4912L31.5351 89.6218L28.7361 88.1461L28.5417 91.4912Z" fill="#9596A6"/>
<path d="M33.3373 70.9694L32.2332 73.7703L38.2092 74.0391L33.3373 70.9694Z" fill="#4352B9"/>
<path d="M59.5544 94.0153L57.0156 92.1792L57.9759 94.6304L59.5544 94.0153Z" fill="#A0A2B5"/>
<path d="M28.5417 91.491L30.347 92.3442L31.5351 89.6216L28.5417 91.491Z" fill="#9596A6"/>
<path d="M28.7363 88.1463L25.4658 89.8418L26.9904 90.6914L28.7363 88.1463Z" fill="#9596A6"/>
<path d="M23.2574 72.3145L25.18 67.2844L20.7373 70.3676L23.2574 72.3145Z" fill="#5C64A1"/>
<path d="M25.4658 89.8413L28.7363 88.1458L27.0222 85.5793L25.4658 89.8413Z" fill="#9596A6"/>
<path d="M27.0222 85.5793L23.9688 88.9424L25.4657 89.8413L27.0222 85.5793Z" fill="#9596A6"/>
<path d="M34.514 89.5858L31.5352 89.6215L32.1855 93.1318L34.514 89.5858Z" fill="#9596A6"/>
<path d="M33.8856 67.5069L33.3374 70.9692L35.1631 68.5724L33.8856 67.5069Z" fill="#3E4DB5"/>
<path d="M20.7373 70.3678L21.19 74.7339L23.2574 72.3146L20.7373 70.3678Z" fill="#565E99"/>
<path d="M23.8702 84.3811L20.8572 86.8528L22.5 87.9951L23.8702 84.3811Z" fill="#8E90A5"/>
<path d="M57.9895 79.4653L59.9418 76.4046L58.383 76.4761L57.9895 79.4653Z" fill="#9C9FB8"/>
<path d="M18.9624 50.9317L20.8889 55.1172L23.5479 52.4405L18.9624 50.9317Z" fill="#2B305F"/>
<path d="M8.96777 56.4052L11.0649 58.4072L12.4166 55.3168L8.96777 56.4052Z" fill="#34396A"/>
<path d="M8.7365 45.7935L5.79737 44.038L5.3208 45.5218L8.7365 45.7935Z" fill="#25284D"/>
<path d="M59.9814 83.2162L60.7074 86.9619L62.673 84.6486L59.9814 83.2162Z" fill="#A4A5B7"/>
<path d="M22.4572 48.9863L22.0413 47.2281L18.1987 47.0154L22.4572 48.9863Z" fill="#292D5B"/>
<path d="M22.4573 48.9863L18.9624 50.9316L22.9602 50.7252L22.4573 48.9863Z" fill="#292D5B"/>
<path d="M65.931 83.0339L63.5087 81.7338L62.6731 84.6484L65.931 83.0339Z" fill="#B5B4B5"/>
<path d="M7.20687 53.6162L6.98711 50.6741L3.66895 52.0487L7.20687 53.6162Z" fill="#303462"/>
<path d="M18.9624 50.9316L23.5479 52.4404L22.9602 50.7252L18.9624 50.9316Z" fill="#2B305F"/>
<path d="M16.8525 43.4224L21.3342 41.874L17.3962 39.5684L16.8525 43.4224Z" fill="#212345"/>
<path d="M30.3941 64.0163L29.3622 62.7776L26.2664 64.105L30.3941 64.0163Z" fill="#404CA3"/>
<path d="M30.4907 69.9654L32.2332 73.77L33.3373 70.9691L30.4907 69.9654Z" fill="#4855B0"/>
<path d="M44.4827 96.4657L45.9761 96.5767L46.748 91.6619L44.4827 96.4657Z" fill="#9496AD"/>
<path d="M12.3448 35.9307L11.2376 33.0348L10.5383 34.035L12.3448 35.9307Z" fill="#1B1C37"/>
<path d="M25.0584 55.963L22.5149 58.1772L25.8004 57.3983L25.0584 55.963Z" fill="#353D7B"/>
<path d="M26.6033 58.8008L22.5149 58.1774L24.2588 61.2236L26.6033 58.8008Z" fill="#3A4388"/>
<path d="M14.1526 33.2432L12.345 35.9304L16.6018 36.3018L14.1526 33.2432Z" fill="#191932"/>
<path d="M16.6018 36.3023L12.345 35.931L13.7692 38.1265L16.6018 36.3023Z" fill="#1A1B35"/>
<path d="M22.5149 58.1775L26.6033 58.8008L25.8004 57.3985L22.5149 58.1775Z" fill="#373F7E"/>
<path d="M26.2664 64.1053L24.2587 61.2236L22.4692 64.5938L26.2664 64.1053Z" fill="#414B99"/>
<path d="M11.2375 33.0348L12.3448 35.9307L14.1525 33.2434L11.2375 33.0348Z" fill="#1A1A34"/>
<path d="M33.3374 70.9694L38.2093 74.0391L37.8522 70.5204L33.3374 70.9694Z" fill="#4352B9"/>
<path d="M17.8811 84.5435L19.4512 85.8018L20.9904 82.6301L17.8811 84.5435Z" fill="#8386A2"/>
<path d="M18.1498 71.5827L15.3569 70.9687L16.847 74.1201L18.1498 71.5827Z" fill="#5A6197"/>
<path d="M14.3792 46.3901L14.0362 41.5114L11.5151 43.7954L14.3792 46.3901Z" fill="#25284E"/>
<path d="M71.5059 79.2949L75.0215 79.0505L72.7239 76.3873L71.5059 79.2949Z" fill="#C5C2B5"/>
<path d="M9.58485 41.7629L8.73633 45.7935L11.5153 43.7955L9.58485 41.7629Z" fill="#202243"/>
<path d="M6.30029 42.6044L8.73636 45.7935L9.58488 41.7629L6.30029 42.6044Z" fill="#222447"/>
<path d="M6.3002 42.6044L5.79712 44.038L8.73626 45.7935L6.3002 42.6044Z" fill="#222447"/>
<path d="M49.3867 75.5121L51.1632 79.1777L50.9321 75.8457L49.3867 75.5121Z" fill="#717ABF"/>
<path d="M60.7075 86.9617L58.4377 85.4559L58.8426 90.2793L60.7075 86.9617Z" fill="#A5A6B6"/>
<path d="M4.8524 47.1217L4.41602 48.7682L6.98709 50.6738L4.8524 47.1217Z" fill="#282B53"/>
<path d="M57.0156 92.1795L59.5544 94.0156L58.8424 90.2797L57.0156 92.1795Z" fill="#9C9FB4"/>
<path d="M9.58488 41.7622L10.947 39.3148L7.38477 39.8904L9.58488 41.7622Z" fill="#202243"/>
<path d="M10.947 39.3149L13.769 38.1262L12.3447 35.9307L10.947 39.3149Z" fill="#1E1F3D"/>
<path d="M9.58488 41.7622L7.38477 39.8904L6.82959 41.2212L9.58488 41.7622Z" fill="#202243"/>
<path d="M15.0481 82.0229L18.0621 80.0795L13.5986 80.5948L15.0481 82.0229Z" fill="#777B9E"/>
<path d="M7.96582 38.6121L10.9473 39.3149L8.57186 37.3866L7.96582 38.6121Z" fill="#1E203E"/>
<path d="M10.947 39.3149L12.3448 35.9307L9.20264 36.2148L10.947 39.3149Z" fill="#1E1F3D"/>
<path d="M21.1897 74.7339L25.5697 74.5024L23.2571 72.3146L21.1897 74.7339Z" fill="#676D9F"/>
<path d="M26.2664 64.105L29.3622 62.7776L28.3855 61.4933L26.2664 64.105Z" fill="#414B99"/>
<path d="M10.9469 39.3149L9.20254 36.2148L8.57153 37.3866L10.9469 39.3149Z" fill="#1E1F3D"/>
<path d="M18.0619 80.0795L15.0479 82.023L16.3516 83.2251L18.0619 80.0795Z" fill="#787C9F"/>
<path d="M6.98722 50.6738L8.7365 45.7931L4.85254 47.1216L6.98722 50.6738Z" fill="#2C2F5B"/>
<path d="M46.9561 84.9819L47.2756 80.4038L43.9028 82.0521L46.9561 84.9819Z" fill="#858AB5"/>
<path d="M14.1525 33.2437L11.9308 32.1272L11.2375 33.0351L14.1525 33.2437Z" fill="#191932"/>
<path d="M12.3449 35.9307L10.5384 34.0349L9.8584 35.0974L12.3449 35.9307Z" fill="#1B1C37"/>
<path d="M60.7075 86.9619L59.9816 83.2162L58.4377 85.4561L60.7075 86.9619Z" fill="#A5A6B6"/>
<path d="M18.9622 50.9317L17.4844 55.8105L20.8887 55.1172L18.9622 50.9317Z" fill="#2B305F"/>
<path d="M13.3821 30.4647L14.1525 33.2437L16.8255 30.5203L13.3821 30.4647Z" fill="#181830"/>
<path d="M13.3821 30.4647L12.6458 31.2704L14.1525 33.2437L13.3821 30.4647Z" fill="#181830"/>
<path d="M24.3799 77.6626L27.9069 77.1791L25.5699 74.5024L24.3799 77.6626Z" fill="#767BA5"/>
<path d="M28.5159 66.8052L32.6553 66.3821L31.4798 65.2061L28.5159 66.8052Z" fill="#4450A5"/>
<path d="M9.20264 36.2148L12.3448 35.9307L9.85828 35.0974L9.20264 36.2148Z" fill="#1C1D39"/>
<path d="M58.8424 90.2793L56.2268 89.2449L57.0156 92.1792L58.8424 90.2793Z" fill="#A0A2B5"/>
<path d="M15.7168 28.3562L14.9177 29.0073L16.8253 30.52L15.7168 28.3562Z" fill="#17172D"/>
<path d="M14.1396 29.7101L16.8256 30.52L14.9181 29.0073L14.1396 29.7101Z" fill="#18182F"/>
<path d="M17.8812 84.5435L18.0621 80.0794L16.3518 83.225L17.8812 84.5435Z" fill="#8386A2"/>
<path d="M22.4692 64.5938L25.1797 67.2847L26.2664 64.1053L22.4692 64.5938Z" fill="#444D91"/>
<path d="M19.4616 29.3462L18.4852 26.5833L17.6199 27.0633L19.4616 29.3462Z" fill="#17162C"/>
<path d="M17.6198 27.0633L16.6553 27.6758L19.4615 29.3462L17.6198 27.0633Z" fill="#17162C"/>
<path d="M24.2588 61.2236L27.4654 60.1669L26.6032 58.8008L24.2588 61.2236Z" fill="#3D468C"/>
<path d="M28.3855 61.4933L27.4653 60.1665L26.2664 64.105L28.3855 61.4933Z" fill="#3E4896"/>
<path d="M16.8255 30.52L14.1396 29.7101L13.3821 30.4644L16.8255 30.52Z" fill="#18172E"/>
<path d="M21.1897 74.7341L21.3261 79.123L24.3797 77.6628L21.1897 74.7341Z" fill="#676D9F"/>
<path d="M19.4615 29.3462L19.37 26.1557L18.4851 26.5833L19.4615 29.3462Z" fill="#17162C"/>
<path d="M16.2349 58.6744L16.9004 62.2305L19.3525 58.36L16.2349 58.6744Z" fill="#383E76"/>
<path d="M16.6219 32.9408L14.1523 33.2431L16.6015 36.3018L16.6219 32.9408Z" fill="#191930"/>
<path d="M18.1988 47.0152L14.3794 46.3896L15.8633 49.2842L18.1988 47.0152Z" fill="#252951"/>
<path d="M46.748 91.6622L48.6261 96.5757L50.4598 92.6441L46.748 91.6622Z" fill="#9194B0"/>
<path d="M16.6016 36.302L21.2981 37.9883L21.4223 35.9297L16.6016 36.302Z" fill="#1A1B35"/>
<path d="M21.4783 43.6714L21.3342 41.8738L16.8525 43.4222L21.4783 43.6714Z" fill="#222447"/>
<path d="M75.0214 79.0512L71.8206 82.4411L75.2124 83.6104L75.0214 79.0512Z" fill="#CCC8B4"/>
<path d="M40.1917 81.4713L37.7639 79.06L37.428 83.4917L40.1917 81.4713Z" fill="#767DB5"/>
<path d="M76.4865 71.1278L74.9292 71.937L75.7306 75.4136L76.4865 71.1278Z" fill="#D8D2B3"/>
<path d="M19.4614 29.3466L21.929 32.0098L22.3209 30.0244L19.4614 29.3466Z" fill="#17162C"/>
<path d="M21.9292 32.0092L16.6221 32.941L21.645 33.8667L21.9292 32.0092Z" fill="#17172E"/>
<path d="M7.20701 53.6158L3.66908 52.0484L3.33789 53.7588L7.20701 53.6158Z" fill="#303462"/>
<path d="M21.4223 35.9295L16.6219 32.9408L16.6016 36.3018L21.4223 35.9295Z" fill="#1A1A33"/>
<path d="M54.4805 91.4443L54.8337 95.6123L56.4021 95.163L54.4805 91.4443Z" fill="#989BB4"/>
<path d="M21.4782 43.6713L18.1987 47.0151L21.7142 45.4547L21.4782 43.6713Z" fill="#222447"/>
<path d="M54.0554 76.3045L52.4893 76.1096L54.5145 79.1333L54.0554 76.3045Z" fill="#898FBB"/>
<path d="M16.8524 43.4222L14.3794 46.3895L18.1988 47.0151L16.8524 43.4222Z" fill="#212345"/>
<path d="M8.73633 45.793L9.93995 50.8828L12.6352 49.103L8.73633 45.793Z" fill="#25284D"/>
<path d="M43.9027 82.0519L43.6194 85.875L46.956 84.9817L43.9027 82.0519Z" fill="#777FB8"/>
<path d="M22.8383 26.4232L22.3931 27.5508L23.1921 26.6375L22.8383 26.4232Z" fill="#16152A"/>
<path d="M19.3701 26.1557L19.4616 29.3462L22.3932 27.5506L19.3701 26.1557Z" fill="#16162B"/>
<path d="M83.3553 75.1273L79.063 74.1122L81.6366 77.0986L83.3553 75.1273Z" fill="#DDD6B3"/>
<path d="M22.6263 28.7398L22.3931 27.5506L19.4614 29.3462L22.6263 28.7398Z" fill="#16162B"/>
<path d="M16.8525 43.4222L18.1989 47.0151L21.4783 43.6713L16.8525 43.4222Z" fill="#212345"/>
<path d="M22.6263 28.7396L19.4614 29.3461L22.3209 30.0239L22.6263 28.7396Z" fill="#16162B"/>
<path d="M22.8311 26.0104L23.2517 26.4438L23.3507 26.2883L22.8311 26.0104Z" fill="#16152A"/>
<path d="M23.1921 26.6372L23.2518 26.4439L22.8384 26.423L23.1921 26.6372Z" fill="#16152A"/>
<path d="M22.8772 25.1458L22.5662 25.5928L23.1389 25.2941L22.8772 25.1458Z" fill="#16152A"/>
<path d="M32.6553 66.3824L28.5159 66.8054L30.4907 69.9653L32.6553 66.3824Z" fill="#3F4DAF"/>
<path d="M22.6058 25.1L22.4128 25.1227L22.5663 25.5928L22.6058 25.1Z" fill="#16152A"/>
<path d="M22.8772 25.1458L22.6057 25.1L22.5662 25.5928L22.8772 25.1458Z" fill="#16152A"/>
<path d="M20.8889 55.117L25.0586 55.9629L24.2186 54.1272L20.8889 55.117Z" fill="#323870"/>
<path d="M26.2664 64.105L27.4654 60.1665L24.2588 61.2233L26.2664 64.105Z" fill="#414B99"/>
<path d="M40.3923 91.0797L37.6467 95.0276L39.6041 95.5571L40.3923 91.0797Z" fill="#9294AA"/>
<path d="M24.2587 61.2237L20.8828 61.1242L22.4693 64.5938L24.2587 61.2237Z" fill="#3D468C"/>
<path d="M23.4231 25.7902L23.3292 25.5231L22.8311 26.0107L23.4231 25.7902Z" fill="#16152A"/>
<path d="M10.9471 39.3148L9.58496 41.7622L14.0365 41.5109L10.9471 39.3148Z" fill="#1E1F3D"/>
<path d="M31.5353 89.6221L34.5142 89.5863L31.4436 86.6545L31.5353 89.6221Z" fill="#9596A6"/>
<path d="M23.4053 26.144L23.434 25.959L22.8311 26.0104L23.4053 26.144Z" fill="#16152A"/>
<path d="M23.1389 25.2941L22.5662 25.5928L23.3291 25.5232L23.1389 25.2941Z" fill="#16152A"/>
<path d="M22.8311 26.0107L23.434 25.9593L23.4231 25.7902L22.8311 26.0107H22.8311Z" fill="#16152A"/>
<path d="M15.2531 52.4776L12.4165 55.317L17.4844 55.8105L15.2531 52.4776Z" fill="#2D3261"/>
<path d="M52.9958 87.4048L52.9274 83.764L50.1946 86.1811L52.9958 87.4048Z" fill="#9397B5"/>
<path d="M44.2918 89.2476L47.5852 88.3683L43.6194 85.8751L44.2918 89.2476Z" fill="#8E91AF"/>
<path d="M22.8311 26.0103L23.3507 26.2881L23.4053 26.1439L22.8311 26.0103Z" fill="#16152A"/>
<path d="M22.8311 26.0104L22.8383 26.4229L23.2518 26.4438L22.8311 26.0104V26.0104Z" fill="#16152A"/>
<path d="M33.3373 70.9692L33.8855 67.5069L30.4907 69.9655L33.3373 70.9692Z" fill="#4352B9"/>
<path d="M18.062 80.0791L18.7559 76.9007L15.552 77.5212L18.062 80.0791Z" fill="#787C9F"/>
<path d="M17.3962 39.5685L21.3343 41.874L21.2728 40.0387L17.3962 39.5685Z" fill="#1D1E3B"/>
<path d="M21.7142 45.455L18.1987 47.0154L22.0413 47.228L21.7142 45.455Z" fill="#24274D"/>
<path d="M26.6843 70.8232L28.5156 66.8055L25.1797 67.2846L26.6843 70.8232Z" fill="#535DA7"/>
<path d="M46.3404 74.6404L45.3484 77.7573L47.8556 75.11L46.3404 74.6404Z" fill="#5F6CC2"/>
<path d="M72.7237 76.3877L73.4959 72.6272L71.8765 73.3521L72.7237 76.3877Z" fill="#CBC7B4"/>
<path d="M42.9485 92.4145L44.4827 96.4658L46.748 91.6621L42.9485 92.4145Z" fill="#9295AC"/>
<path d="M70.3403 73.9867L72.7237 76.3877L71.8765 73.3521L70.3403 73.9867Z" fill="#C8C4B4"/>
<path d="M42.9966 96.2748L44.4827 96.4658L42.9485 92.4145L42.9966 96.2748Z" fill="#9496AC"/>
<path d="M75.7304 75.4137L72.7236 76.3876L75.0212 79.0508L75.7304 75.4137Z" fill="#D2CDB4"/>
<path d="M78.4244 80.5202L75.0215 79.0509L76.915 82.0132L78.4244 80.5202Z" fill="#D0CBB4"/>
<path d="M41.5232 96.0043L42.9967 96.2749L42.9486 92.4146L41.5232 96.0043Z" fill="#9496AB"/>
<path d="M47.2847 96.6079L46.7479 91.6622L45.9761 96.5769L47.2847 96.6079Z" fill="#9497AF"/>
<path d="M71.8206 82.4409L75.0215 79.051L71.5059 79.2954L71.8206 82.4409Z" fill="#C2C0B5"/>
<path d="M48.6262 96.5757L50.167 96.4602L50.4599 92.6441L48.6262 96.5757Z" fill="#9497B0"/>
<path d="M50.6822 89.3979L50.1948 86.1809L47.5854 88.3681L50.6822 89.3979Z" fill="#9295B4"/>
<path d="M37.428 83.4917L34.9602 86.0588L39.3418 88.4009L37.428 83.4917Z" fill="#8A8EAC"/>
<path d="M51.7156 96.2607L50.4599 92.6438L50.167 96.46L51.7156 96.2607Z" fill="#9699B2"/>
<path d="M53.2715 95.978L54.8339 95.6119L54.4806 91.4439L53.2715 95.978Z" fill="#989AB3"/>
<path d="M3.66895 52.0483L6.98711 50.6737L4.05433 50.2721L3.66895 52.0483Z" fill="#2E335F"/>
<path d="M6.98706 50.6737L9.93996 50.8828L8.73634 45.793L6.98706 50.6737Z" fill="#2C2F5B"/>
<path d="M53.2715 95.9784L50.46 92.6444L51.7157 96.2612L53.2715 95.9784Z" fill="#989AB3"/>
<path d="M43.9027 82.0522L42.2095 78.7104L40.1917 81.4716L43.9027 82.0522Z" fill="#777FB8"/>
<path d="M48.6261 96.5757L46.748 91.6622L47.2848 96.6079L48.6261 96.5757Z" fill="#9497B0"/>
<path d="M55.8989 81.645L52.9272 83.7638L55.9033 86.459L55.8989 81.645H55.8989Z" fill="#9599B8"/>
<path d="M57.9759 94.6303L57.0156 92.1791L56.4021 95.1626L57.9759 94.6303Z" fill="#9D9FB4"/>
<path d="M40.3923 91.0796L42.9485 92.4146L44.2918 89.2475L40.3923 91.0796Z" fill="#9294AA"/>
<path d="M52.9272 83.764L52.9957 87.4048L55.9033 86.4591L52.9272 83.764Z" fill="#8E93B8"/>
<path d="M75.7306 75.4137L75.0215 79.0508L77.4638 77.6365L75.7306 75.4137Z" fill="#D2CDB4"/>
<path d="M42.9484 92.4147L39.604 95.5571L41.523 96.0044L42.9484 92.4147Z" fill="#9295AC"/>
<path d="M33.8206 93.7671L35.7185 94.4307L37.5259 91.4133L33.8206 93.7671Z" fill="#9596A6"/>
<path d="M42.9484 92.4147L40.3922 91.0797L39.604 95.5571L42.9484 92.4147Z" fill="#9295AC"/>
<path d="M22.0159 26.231L22.8383 26.4229L22.831 26.0104L22.0159 26.231H22.0159Z" fill="#16152A"/>
<path d="M45.3483 77.7573L44.8438 74.1037L40.8376 75.8401L45.3483 77.7573Z" fill="#6571C0"/>
<path d="M45.3482 77.7573L46.3403 74.6404L44.8438 74.1037L45.3482 77.7573Z" fill="#6571C0"/>
<path d="M57.0157 92.1792L56.2268 89.2449L54.4805 91.444L57.0157 92.1792Z" fill="#9C9FB4"/>
<path d="M54.5146 79.1333L56.8114 76.476L55.4316 76.4174L54.5146 79.1333Z" fill="#8D93BA"/>
<path d="M54.5146 79.1336L55.8993 81.645L57.9894 79.4655L54.5146 79.1336Z" fill="#8D93BA"/>
<path d="M58.8423 90.2797L59.5543 94.0156L61.1369 93.318L58.8423 90.2797Z" fill="#A0A2B5"/>
<path d="M93.7056 59.2896L94.2856 58.0362L93.8753 57.527L93.7056 59.2896Z" fill="#F0E7B2"/>
<path d="M94.6895 58.3182L94.2856 58.0362L93.7056 59.2896L94.6895 58.3182Z" fill="#F0E7B2"/>
<path d="M47.8556 75.11L45.3484 77.7573L49.387 75.512L47.8556 75.11Z" fill="#6874C0"/>
<path d="M51.1635 79.1776L49.387 75.512L47.2756 80.4038L51.1635 79.1776Z" fill="#8087BB"/>
<path d="M94.2856 58.0363L94.6895 58.3184L94.6318 57.8357L94.2856 58.0363Z" fill="#F0E7B2"/>
<path d="M22.8313 26.0108L22.5665 25.5928L22.0161 26.2314L22.8313 26.0108Z" fill="#16152A"/>
<path d="M52.4894 76.1102L51.1636 79.1777L54.5147 79.1339L52.4894 76.1102Z" fill="#8188BC"/>
<path d="M54.4806 91.4439L50.46 92.6439L53.2715 95.978L54.4806 91.4439Z" fill="#989BB4"/>
<path d="M22.5663 25.5929L21.5994 25.3372L22.0159 26.2314L22.5663 25.5929Z" fill="#16152A"/>
<path d="M34.0072 78.9937L35.933 76.3687L31.0396 76.6967L34.0072 78.9937Z" fill="#767DB0"/>
<path d="M77.4636 77.6368L79.9917 78.8926L81.6364 77.0986L77.4636 77.6368Z" fill="#D2CDB4"/>
<path d="M61.1372 93.3179L62.7234 92.5378L61.5462 90.106L61.1372 93.3179Z" fill="#A3A4B5"/>
<path d="M31.4436 86.6542L34.5142 89.5859L34.9604 86.0588L31.4436 86.6542Z" fill="#9596A6"/>
<path d="M42.2096 78.7101L40.8377 75.84L37.7639 79.0601L42.2096 78.7101Z" fill="#626EBE"/>
<path d="M58.8423 90.2796L61.137 93.3179L61.546 90.106L58.8423 90.2796Z" fill="#A0A2B5"/>
<path d="M65.705 90.8536L63.6248 88.3739L64.3126 91.6753L65.705 90.8536Z" fill="#ADADB5"/>
<path d="M31.4436 86.6545L28.7363 88.1463L31.5353 89.6221L31.4436 86.6545Z" fill="#9596A6"/>
<path d="M15.2531 52.4775L15.8633 49.2844L12.6353 49.103L15.2531 52.4775Z" fill="#2D3261"/>
<path d="M61.5461 90.1057L64.3126 91.6753L63.6248 88.3739L61.5461 90.1057Z" fill="#A6A7B5"/>
<path d="M32.1856 93.1318L31.5353 89.6215L30.3472 92.3442L32.1856 93.1318Z" fill="#9596A6"/>
<path d="M67.2409 89.8755L65.5093 85.7433L63.6248 88.3737L67.2409 89.8755Z" fill="#B1B0B5"/>
<path d="M68.7593 88.8359L70.2786 87.7229L68.3965 85.5305L68.7593 88.8359Z" fill="#B5B4B5"/>
<path d="M71.5058 79.2949L72.7238 76.3873L68.8337 77.7434L71.5058 79.2949Z" fill="#C5C2B5"/>
<path d="M68.6561 82.6567L68.8338 77.744L66.0566 79.0998L68.6561 82.6567Z" fill="#BCBAB5"/>
<path d="M71.9879 86.3843L71.8204 82.4409L68.3965 85.5303L71.9879 86.3843Z" fill="#BEBCB5"/>
<path d="M71.8204 82.4408L68.6559 82.6565L68.3965 85.5303L71.8204 82.4408Z" fill="#C2C0B5"/>
<path d="M38.2092 74.0384L35.9329 76.3682L40.8377 75.8396L38.2092 74.0384Z" fill="#3D4FC6"/>
<path d="M59.9813 83.2163L57.9891 79.4658L55.8989 81.6453L59.9813 83.2163Z" fill="#A4A5B7"/>
<path d="M68.8337 77.744L68.656 82.6567L71.5057 79.2955L68.8337 77.744Z" fill="#C1BEB5"/>
<path d="M42.2096 78.71L45.3483 77.7571L40.8376 75.8399L42.2096 78.71Z" fill="#626EBE"/>
<path d="M63.6248 88.374L65.5094 85.7436L62.6731 84.6486L63.6248 88.374Z" fill="#ABACB5"/>
<path d="M12.6352 49.1025L11.5152 43.7946L8.73633 45.7925L12.6352 49.1025Z" fill="#282C56"/>
<path d="M65.9209 75.4433L66.0566 79.0996L68.8338 77.7438L65.9209 75.4433Z" fill="#BAB9B5"/>
<path d="M59.9418 76.4049L57.9895 79.4656L61.0136 79.5425L59.9418 76.4049Z" fill="#A4A6B8"/>
<path d="M57.9894 79.4653L56.8114 76.4761L54.5146 79.1334L57.9894 79.4653Z" fill="#9C9FB8"/>
<path d="M61.0135 79.5425L61.4905 76.2623L59.9417 76.4049L61.0135 79.5425Z" fill="#A7A9B7"/>
<path d="M92.3262 59.167L93.7056 59.2896L93.8754 57.527L92.3262 59.167Z" fill="#F0E6B2"/>
<path d="M3.6145 66.9488L4.49031 68.5527L6.64522 64.4469L3.6145 66.9488Z" fill="#454B7E"/>
<path d="M61.4907 76.2623L61.0137 79.5425L63.0263 76.049L61.4907 76.2623Z" fill="#AAABB7"/>
<path d="M61.0137 79.5425L66.0567 79.0997L63.0263 76.049L61.0137 79.5425Z" fill="#A7A9B7"/>
<path d="M2.78735 63.6718L6.64506 64.4473L5.46308 61.466L2.78735 63.6718Z" fill="#404578"/>
<path d="M64.545 75.7654L63.0261 76.049L66.0566 79.0996L64.545 75.7654Z" fill="#B5B5B6"/>
<path d="M20.2744 25.7811L22.016 26.2314L21.5994 25.3372L20.2744 25.7811Z" fill="#16162B"/>
<path d="M78.4242 80.52L79.9917 78.8922L77.4636 77.6365L78.4242 80.52Z" fill="#D0CBB4"/>
<path d="M16.2347 58.6743L12.4164 55.3169L11.0647 58.4073L16.2347 58.6743Z" fill="#383E76"/>
<path d="M7.20679 53.6158L10.0563 53.7222L9.93993 50.8828L7.20679 53.6158Z" fill="#303462"/>
<path d="M78.4244 80.52L77.4638 77.6365L75.0215 79.0507L78.4244 80.52Z" fill="#D0CBB4"/>
<path d="M77.4636 77.6367L81.6364 77.0985L79.0628 74.112L77.4636 77.6367Z" fill="#D2CDB4"/>
<path d="M75.7305 75.4139L77.4637 77.6367L79.0628 74.112L75.7305 75.4139Z" fill="#D2CDB4"/>
<path d="M18.9621 50.9317L15.2529 52.4776L17.4843 55.8105L18.9621 50.9317Z" fill="#2B305F"/>
<path d="M22.5662 25.5927L22.831 26.0107L23.3291 25.5231L22.5662 25.5927Z" fill="#16152A"/>
<path d="M12.9968 64.6494L16.9006 62.2303L13.7043 60.5159L12.9968 64.6494Z" fill="#454B82"/>
<path d="M64.5449 75.7654L66.0566 79.0996L65.9209 75.4433L64.5449 75.7654Z" fill="#B5B5B6"/>
<path d="M68.8744 74.5362L68.8337 77.7441L70.3404 73.9871L68.8744 74.5362Z" fill="#C4C1B5"/>
<path d="M22.4128 25.1227L21.5994 25.3371L22.5663 25.5928L22.4128 25.1227Z" fill="#16152A"/>
<path d="M56.8113 76.4761L57.9893 79.4653L58.3828 76.4761H56.8113Z" fill="#969AB9"/>
<path d="M66.0567 79.0997L61.0137 79.5425L63.5089 81.7339L66.0567 79.0997Z" fill="#B8B7B5"/>
<path d="M34.0071 78.9936L37.764 79.0601L35.9329 76.3686L34.0071 78.9936Z" fill="#767DB0"/>
<path d="M84.8976 73.272L81.7302 71.9676L83.3551 75.1274L84.8976 73.272Z" fill="#E1D9B3"/>
<path d="M42.0963 72.9186L40.8376 75.8398L43.5515 73.5794L42.0963 72.9186Z" fill="#4455C7"/>
<path d="M43.9028 82.0519L40.4917 84.7662L43.6195 85.875L43.9028 82.0519Z" fill="#777FB8"/>
<path d="M20.2744 25.7811L22.3932 27.5508L22.016 26.2314L20.2744 25.7811Z" fill="#16162B"/>
<path d="M40.6666 72.1927L38.2092 74.0386L40.8378 75.8398L40.6666 72.1927Z" fill="#3C4FC8"/>
<path d="M40.6665 72.1927L40.8376 75.8398L42.0963 72.9186L40.6665 72.1927Z" fill="#3C4FC8"/>
<path d="M92.3262 59.1675L93.5699 61.1396L93.7057 59.2901L92.3262 59.1675Z" fill="#F0E6B2"/>
<path d="M22.8386 26.4232L22.0161 26.2313L22.3933 27.5508L22.8386 26.4232Z" fill="#16152A"/>
<path d="M38.2092 74.0391L40.6666 72.1932L39.2596 71.3997L38.2092 74.0391Z" fill="#3D4FC6"/>
<path d="M94.6318 57.8357L94.6896 58.3184L95.1523 57.8938L94.6318 57.8357Z" fill="#F0E7B2"/>
<path d="M95.0961 58.5962L95.1724 58.4174L94.6895 58.3182L95.0961 58.5962Z" fill="#F0E7B2"/>
<path d="M67.3501 75.04L65.9209 75.4436L68.8338 77.7441L67.3501 75.04Z" fill="#BFBDB5"/>
<path d="M22.3932 27.5508L20.2744 25.7811L19.3701 26.156L22.3932 27.5508Z" fill="#16162B"/>
<path d="M21.4225 35.9297L21.645 33.8667L16.6221 32.9409L21.4225 35.9297Z" fill="#1A1A33"/>
<path d="M70.3404 73.9871L68.8337 77.7441L72.7238 76.3881L70.3404 73.9871Z" fill="#C8C4B4"/>
<path d="M73.4958 72.6272L72.7236 76.3877L75.7304 75.4138L73.4958 72.6272Z" fill="#D0CCB4"/>
<path d="M95.0961 58.5968L93.7055 59.2901L93.5698 61.1396L95.0961 58.5968Z" fill="#F0E7B2"/>
<path d="M68.8335 77.7441L68.8741 74.5361L67.3499 75.04L68.8335 77.7441Z" fill="#C1BEB5"/>
<path d="M23.1921 26.6373L22.3931 27.5506L22.6263 28.7397L23.1921 26.6373Z" fill="#16152A"/>
<path d="M44.8438 74.1035L43.5515 73.5793L40.8376 75.8398L44.8438 74.1035Z" fill="#5563C4"/>
<path d="M54.5143 79.1333L55.4313 76.4174L54.0552 76.3045L54.5143 79.1333Z" fill="#8D93BA"/>
<path d="M16.8255 30.52L16.6553 27.6756L15.717 28.3562L16.8255 30.52Z" fill="#18172E"/>
<path d="M36.486 69.5774L33.3374 70.9692L37.8522 70.5203L36.486 69.5774Z" fill="#394BC0"/>
<path d="M39.2595 71.3997L37.8521 70.5204L38.2091 74.0391L39.2595 71.3997Z" fill="#374AC7"/>
<path d="M21.9292 32.0096L19.4616 29.3465L16.6221 32.9414L21.9292 32.0096Z" fill="#17172E"/>
<path d="M16.6221 32.9414L19.4616 29.3465L16.8256 30.5204L16.6221 32.9414Z" fill="#191930"/>
<path d="M25.5698 74.502L27.9068 77.1787L28.8842 73.9796L25.5698 74.502Z" fill="#656DA6"/>
<path d="M31.4798 65.2061L30.3942 64.0162L28.5159 66.8052L31.4798 65.2061Z" fill="#404DA9"/>
<path d="M16.6553 27.6756L16.8255 30.52L19.4615 29.346L16.6553 27.6756Z" fill="#17172D"/>
<path d="M14.1523 33.2437L12.6456 31.2703L11.9307 32.1272L14.1523 33.2437Z" fill="#191932"/>
<path d="M33.3374 70.9692L36.486 69.5774L35.1631 68.5724L33.3374 70.9692Z" fill="#4352B9"/>
<path d="M4.85254 47.1211L8.7365 45.7925L5.3208 45.5209L4.85254 47.1211Z" fill="#282B53"/>
<path d="M74.9293 71.937L73.4961 72.627L75.7307 75.4136L74.9293 71.937Z" fill="#D4CFB4"/>
<path d="M76.4863 71.1279L79.0628 74.1118L77.8607 70.3619L76.4863 71.1279Z" fill="#D8D2B3"/>
<path d="M51.1635 79.1777L52.4893 76.1102L50.9324 75.8457L51.1635 79.1777Z" fill="#8087BB"/>
<path d="M75.0215 79.0512L75.2124 83.6104L76.915 82.0134L75.0215 79.0512Z" fill="#CCC8B4"/>
<path d="M79.4585 69.41L81.7303 71.9673L81.5016 68.0949L79.4585 69.41Z" fill="#DED7B3"/>
<path d="M81.5017 68.0948L83.901 69.897L83.3058 66.8407L81.5017 68.0948Z" fill="#E2DBB3"/>
<path d="M66.0564 79.0998L63.5085 81.734L65.9308 83.0342L66.0564 79.0998Z" fill="#B8B7B5"/>
<path d="M77.8608 70.3619L79.063 74.1118L81.7303 71.9672L77.8608 70.3619Z" fill="#DBD4B3"/>
<path d="M7.38477 39.8906L10.947 39.315L7.96553 38.6121L7.38477 39.8906Z" fill="#1F2141"/>
<path d="M54.5147 79.1334L51.1636 79.1773L52.9276 83.7637L54.5147 79.1334Z" fill="#8D93BA"/>
<path d="M28.5156 66.8056L26.2663 64.1053L25.1797 67.2847L28.5156 66.8056Z" fill="#4450A5"/>
<path d="M76.4863 71.1278L75.7305 75.4136L79.0628 74.1117L76.4863 71.1278Z" fill="#D8D2B3"/>
<path d="M32.6552 66.3824L30.4907 69.9653L33.8855 67.5068L32.6552 66.3824Z" fill="#3F4DAF"/>
<path d="M88.4345 68.6958L90.1283 66.3349L85.8191 67.99L88.4345 68.6958Z" fill="#E8E0B2"/>
<path d="M13.7042 60.5159L10.2791 62.0605L12.9967 64.6494L13.7042 60.5159Z" fill="#3C4279"/>
<path d="M20.8829 61.124L22.5149 58.1773L19.3525 58.36L20.8829 61.124Z" fill="#3D4585"/>
<path d="M85.819 67.9897L83.3057 66.8407L83.9009 69.897L85.819 67.9897Z" fill="#E7DFB3"/>
<path d="M33.918 82.6021L37.7639 79.0601L34.007 78.9936L33.918 82.6021Z" fill="#9596A6"/>
<path d="M85.3198 65.3356L85.8192 67.9897L87.0945 63.915L85.3198 65.3356Z" fill="#E8E0B2"/>
<path d="M90.1281 66.3345L89.0935 62.2083L87.0942 63.9147L90.1281 66.3345Z" fill="#EBE2B2"/>
<path d="M31.0394 76.6962L28.8841 73.9796L27.9067 77.1787L31.0394 76.6962Z" fill="#6B73AF"/>
<path d="M85.8191 67.9897L90.1283 66.3347L87.0944 63.915L85.8191 67.9897Z" fill="#E7DFB3"/>
<path d="M81.7302 71.9671L84.8976 73.2715L83.9009 69.8969L81.7302 71.9671Z" fill="#DFD8B3"/>
<path d="M89.0935 62.2088L91.6951 64.042L90.8822 60.5816L89.0935 62.2088Z" fill="#EDE4B2"/>
<path d="M15.3569 70.9689L12.6021 68.8243L12.6457 73.168L15.3569 70.9689Z" fill="#575D92"/>
<path d="M16.235 58.6744L13.7043 60.5161L16.9006 62.2305L16.235 58.6744Z" fill="#383E76"/>
<path d="M90.8823 60.5816L91.6952 64.042L93.5698 61.1395L90.8823 60.5816Z" fill="#EFE6B2"/>
<path d="M93.5698 61.1396L92.3261 59.1675L90.8823 60.5817L93.5698 61.1396Z" fill="#EFE6B2"/>
<path d="M95.0962 58.5962L94.6895 58.3182L93.7056 59.2896L95.0962 58.5962Z" fill="#F0E7B2"/>
<path d="M95.2038 58.241L94.6895 58.3183L95.1725 58.4175L95.2038 58.241Z" fill="#F0E7B2"/>
<path d="M20.9905 82.6302L23.8705 84.3809L24.1398 81.0296L20.9905 82.6302Z" fill="#8588A3"/>
<path d="M58.4374 85.4559L55.8989 81.645L55.9033 86.459L58.4374 85.4559H58.4374Z" fill="#9FA1B6"/>
<path d="M91.6951 64.0416L89.0935 62.2083L90.1281 66.3345L91.6951 64.0416Z" fill="#EDE4B2"/>
<path d="M16.2349 58.6743L17.4844 55.8105L12.4165 55.3169L16.2349 58.6743Z" fill="#383E76"/>
<path d="M16.8524 43.4227L14.0364 41.5114L14.3793 46.3901L16.8524 43.4227Z" fill="#212345"/>
<path d="M93.8752 57.5269L94.2856 58.0361L94.0222 57.4381L93.8752 57.5269Z" fill="#F0E7B2"/>
<path d="M94.2856 58.0361L94.2093 57.3761L94.0222 57.4381L94.2856 58.0361Z" fill="#F0E7B2"/>
<path d="M94.2092 57.3761L94.2856 58.0361L94.6317 57.8354L94.2092 57.3761Z" fill="#F0E7B2"/>
<path d="M59.9814 83.2163L63.5086 81.734L61.0134 79.5426L59.9814 83.2163Z" fill="#A4A5B7"/>
<path d="M94.6319 57.8354L94.5973 57.3889L94.4084 57.3598L94.6319 57.8354Z" fill="#F0E7B2"/>
<path d="M94.4083 57.3598L94.2092 57.3761L94.6317 57.8354L94.4083 57.3598V57.3598Z" fill="#F0E7B2"/>
<path d="M29.9044 83.3731L27.2057 80.2533L27.0222 85.5796L29.9044 83.3731Z" fill="#9596A6"/>
<path d="M67.2408 89.8755L68.7593 88.8355L65.5093 85.7433L67.2408 89.8755Z" fill="#B1B0B5"/>
<path d="M46.748 91.6622L44.2918 89.2475L42.9485 92.4146L46.748 91.6622Z" fill="#9194B0"/>
<path d="M65.5094 85.7432L65.931 83.0336L62.6731 84.6481L65.5094 85.7432Z" fill="#B1B1B5"/>
<path d="M94.6895 58.3184L95.1966 58.0644L95.1521 57.8938L94.6895 58.3184Z" fill="#F0E7B2"/>
<path d="M10.279 62.0605L11.0648 58.4073L7.79004 59.2525L10.279 62.0605Z" fill="#3F4579"/>
<path d="M12.9966 64.6495L12.6021 68.8242L15.3877 68.0997L12.9966 64.6495Z" fill="#454B82"/>
<path d="M94.6318 57.8354L95.0552 57.7106L94.9349 57.5746L94.6318 57.8354Z" fill="#F0E7B2"/>
<path d="M94.9349 57.5746L94.7873 57.4677L94.6318 57.8354L94.9349 57.5746Z" fill="#F0E7B2"/>
<path d="M94.6318 57.8354L94.7872 57.4677L94.5972 57.3888L94.6318 57.8354Z" fill="#F0E7B2"/>
<path d="M15.3571 70.9687L12.646 73.1678L16.8472 74.1201L15.3571 70.9687Z" fill="#575D92"/>
<path d="M17.4844 55.8105L16.2349 58.6743L19.3525 58.36L17.4844 55.8105Z" fill="#33396E"/>
<path d="M12.646 73.168L12.6023 68.8243L10.0105 71.0223L12.646 73.168Z" fill="#5B6191"/>
<path d="M94.6318 57.8354L95.1523 57.8936L95.0552 57.7105L94.6318 57.8354Z" fill="#F0E7B2"/>
<path d="M94.6895 58.3184L95.2038 58.241L95.1966 58.0644L94.6895 58.3184Z" fill="#F0E7B2"/>
<path d="M17.1602 65.8387L20.2412 67.0894L19.4943 63.8585L17.1602 65.8387Z" fill="#48508A"/>
<path d="M57.9895 79.4658L59.9817 83.2163L61.0136 79.5426L57.9895 79.4658Z" fill="#9C9FB8"/>
<path d="M15.552 77.5219L13.1811 75.9536L12.3667 79.2988L15.552 77.5219Z" fill="#6C719A"/>
<path d="M79.063 74.1123L83.3553 75.1274L81.7303 71.9676L79.063 74.1123Z" fill="#D9D3B3"/>
<path d="M16.6219 32.9413L16.8254 30.5203L14.1523 33.2437L16.6219 32.9413Z" fill="#191930"/>
<path d="M12.6021 68.8242L15.3569 70.9688L15.3877 68.0997L12.6021 68.8242Z" fill="#4F558A"/>
<path d="M33.8206 93.7671L34.5141 89.5859L32.1855 93.132L33.8206 93.7671Z" fill="#9596A6"/>
<path d="M56.4021 95.1626L57.0157 92.1791L54.4805 91.4439L56.4021 95.1626Z" fill="#9B9DB4"/>
<path d="M19.3525 58.3599L22.5149 58.1772L20.8887 55.117L19.3525 58.3599Z" fill="#373E79"/>
<path d="M10.2319 64.8208L9.10156 67.3411L12.6021 68.8242L10.2319 64.8208Z" fill="#444A7F"/>
<path d="M15.3877 68.0997L18.0704 68.8159L17.1599 65.8386L15.3877 68.0997Z" fill="#4E558D"/>
<path d="M20.8828 61.1242L19.4941 63.8586L22.4693 64.5938L20.8828 61.1242Z" fill="#3D4585"/>
<path d="M25.1797 67.2844L20.241 67.0892L20.737 70.3677L25.1797 67.2844Z" fill="#49539E"/>
<path d="M22.4693 64.5936L19.4941 63.8585L20.2411 67.0894L22.4693 64.5936Z" fill="#444D91"/>
<path d="M21.3262 79.1225L18.756 76.9007L18.062 80.0791L21.3262 79.1225Z" fill="#7A7EA2"/>
<path d="M16.8472 74.12L18.756 76.9009L21.1899 74.7337L16.8472 74.12Z" fill="#626898"/>
<path d="M20.9904 82.6301L18.062 80.0794L17.8811 84.5435L20.9904 82.6301Z" fill="#8588A3"/>
<path d="M21.3262 79.1226L24.1397 81.0293L24.3798 77.6624L21.3262 79.1226Z" fill="#7A7EA2"/>
<path d="M24.1398 81.0293L21.3263 79.1226L20.9905 82.6299L24.1398 81.0293Z" fill="#8588A5"/>
<path d="M20.9904 82.6299L21.3262 79.1226L18.062 80.0792L20.9904 82.6299Z" fill="#8588A3"/>
<path d="M27.2057 80.2534L27.9069 77.1793L24.3799 77.6628L27.2057 80.2534Z" fill="#8588A7"/>
<path d="M21.1897 74.7339L24.3797 77.6626L25.5697 74.5024L21.1897 74.7339Z" fill="#676D9F"/>
<path d="M20.8572 86.8521L23.8702 84.3804L20.9902 82.6297L20.8572 86.8521Z" fill="#8D8FA4"/>
<path d="M23.9688 88.9424L23.8704 84.3806L22.5002 87.9946L23.9688 88.9424Z" fill="#9495A6"/>
<path d="M27.0222 85.5792L31.4436 86.6538L29.9044 83.3726L27.0222 85.5792Z" fill="#9596A6"/>
<path d="M33.918 82.6023L34.9603 86.0591L37.428 83.492L33.918 82.6023Z" fill="#9596A6"/>
<path d="M27.2058 80.253L24.3799 77.6624L24.1399 81.0293L27.2058 80.253Z" fill="#8588A7"/>
<path d="M31.0394 76.6963L27.9067 77.1788L30.3325 79.7759L31.0394 76.6963Z" fill="#6B73AF"/>
<path d="M27.2056 80.2533L24.1397 81.0296L23.8704 84.3809L27.2056 80.2533Z" fill="#8588A7"/>
<path d="M30.3325 79.7763L27.9067 77.1793L27.2056 80.2534L30.3325 79.7763Z" fill="#8387AA"/>
<path d="M34.0071 78.9933L31.0395 76.6963L30.3325 79.7759L34.0071 78.9933Z" fill="#767DB0"/>
<path d="M28.8843 73.9801L31.0396 76.6968L32.2332 73.7702L28.8843 73.9801Z" fill="#5E67AD"/>
<path d="M32.2332 73.7701L30.4908 69.9654L28.8843 73.98L32.2332 73.7701Z" fill="#5360B5"/>
<path d="M30.4905 69.9654L28.5156 66.8055L26.6843 70.8232L30.4905 69.9654Z" fill="#4855B0"/>
<path d="M31.4436 86.6538L34.9604 86.0585L33.9181 82.6017L31.4436 86.6538Z" fill="#9596A6"/>
<path d="M40.8377 75.84L35.9329 76.3686L37.764 79.0601L40.8377 75.84Z" fill="#4C5CC4"/>
<path d="M25.5698 74.5024L28.8842 73.98L26.6845 70.8232L25.5698 74.5024Z" fill="#656DA6"/>
<path d="M30.4905 69.9654L26.6843 70.8232L28.884 73.98L30.4905 69.9654Z" fill="#4855B0"/>
<path d="M10.0102 71.0225L12.6021 68.8245L9.10156 67.3414L10.0102 71.0225Z" fill="#53588B"/>
<path d="M6.4978 71.8132L7.59607 73.4126L10.0103 71.0222L6.4978 71.8132Z" fill="#505688"/>
<path d="M10.2322 64.8208L12.6024 68.8242L12.9969 64.6495L10.2322 64.8208Z" fill="#444A7F"/>
<path d="M9.10159 67.3412L6.64514 64.4469L4.49023 68.5527L9.10159 67.3412Z" fill="#494F83"/>
<path d="M7.20676 53.6158L6.06885 56.5811L8.96757 56.4053L7.20676 53.6158Z" fill="#303462"/>
<path d="M15.2531 52.4775L10.0564 53.7221L12.4165 55.3169L15.2531 52.4775Z" fill="#2D3261"/>
<path d="M34.9604 86.0588L34.5142 89.5859L39.3419 88.4009L34.9604 86.0588Z" fill="#9596A6"/>
<path d="M37.428 83.4917L37.7639 79.06L33.918 82.6019L37.428 83.4917Z" fill="#8A8EAC"/>
<path d="M39.3419 88.4007L34.5142 89.5857L37.5261 91.4131L39.3419 88.4007Z" fill="#9093AA"/>
<path d="M39.3418 88.4009L40.3923 91.0796L44.2918 89.2475L39.3418 88.4009Z" fill="#9093AA"/>
<path d="M34.0071 78.9936L30.3325 79.7762L33.918 82.6021L34.0071 78.9936Z" fill="#767DB0"/>
<path d="M33.918 82.6021L30.3325 79.7762L29.9043 83.373L33.918 82.6021Z" fill="#9596A6"/>
<path d="M40.4916 84.7661L40.1917 81.4711L37.428 83.4916L40.4916 84.7661Z" fill="#868BAF"/>
<path d="M43.9028 82.0522L47.2756 80.404L45.3484 77.7575L43.9028 82.0522Z" fill="#777FB8"/>
<path d="M37.428 83.4917L39.3418 88.4009L40.4916 84.7662L37.428 83.4917Z" fill="#8A8EAC"/>
<path d="M39.3418 88.4009L43.6194 85.875L40.4916 84.7662L39.3418 88.4009Z" fill="#9093AA"/>
<path d="M40.4915 84.7661L43.9027 82.0518L40.1917 81.4711L40.4915 84.7661Z" fill="#868BAF"/>
<path d="M43.6194 85.875L47.5852 88.3682L46.956 84.9817L43.6194 85.875Z" fill="#868BB2"/>
<path d="M47.5854 88.3687L44.292 89.2479L46.7482 91.6626L47.5854 88.3687Z" fill="#8D91B3"/>
<path d="M39.3418 88.4009L44.2918 89.2476L43.6194 85.8751L39.3418 88.4009Z" fill="#9093AA"/>
<path d="M50.6821 89.3985L46.748 91.6626L50.4598 92.6445L50.6821 89.3985Z" fill="#9295B4"/>
<path d="M47.5853 88.3682L50.1947 86.181L46.9561 84.9817L47.5853 88.3682Z" fill="#8D91B3"/>
<path d="M50.46 92.6445L54.4806 91.4445L50.6822 89.3985L50.46 92.6445Z" fill="#9497B2"/>
<path d="M54.4805 91.4438L56.2268 89.2447L52.9958 87.4045L54.4805 91.4438Z" fill="#989BB4"/>
<path d="M50.1946 86.1809L50.682 89.3979L52.9958 87.4045L50.1946 86.1809Z" fill="#8C91B6"/>
<path d="M54.4805 91.4438L52.9959 87.4045L50.6821 89.3979L54.4805 91.4438Z" fill="#989BB4"/>
<path d="M54.5144 79.1334L52.9272 83.7637L55.8989 81.6449L54.5144 79.1334Z" fill="#8D93BA"/>
<path d="M49.6542 82.8315L51.1635 79.1779L47.2756 80.404L49.6542 82.8315Z" fill="#8389B9"/>
<path d="M50.1946 86.1812L52.9274 83.764L49.6541 82.8313L50.1946 86.1812Z" fill="#8C91B6"/>
<path d="M51.1633 79.1773L49.6541 82.831L52.9274 83.7637L51.1633 79.1773Z" fill="#8087BB"/>
<path d="M50.1947 86.1812L49.6541 82.8313L46.9561 84.9819L50.1947 86.1812Z" fill="#8C91B6"/>
<path d="M46.9561 84.9819L49.6541 82.8313L47.2756 80.4038L46.9561 84.9819Z" fill="#858AB5"/>
<path d="M55.8989 81.6452L58.4374 85.4561L59.9813 83.2162L55.8989 81.6452Z" fill="#9599B8"/>
<path d="M58.4377 85.4562L55.9036 86.4592L56.2269 89.2451L58.4377 85.4562Z" fill="#9FA1B6"/>
<path d="M25.5699 74.5024L26.6846 70.8232L23.2573 72.3147L25.5699 74.5024Z" fill="#656DA6"/>
<path d="M25.1799 67.2844L23.2573 72.3145L26.6846 70.823L25.1799 67.2844Z" fill="#49539E"/>
<path d="M5.46338 61.4655L10.2792 62.0605L7.79024 59.2525L5.46338 61.4655Z" fill="#3D4275"/>
<path d="M10.2321 64.821L6.64526 64.447L9.10172 67.3413L10.2321 64.821Z" fill="#444A7F"/>
<path d="M20.7371 70.368L18.0706 68.8163L18.1499 71.583L20.7371 70.368Z" fill="#565E99"/>
<path d="M17.1602 65.8386L18.0706 68.8159L20.2412 67.0892L17.1602 65.8386Z" fill="#48508A"/>
<path d="M38.2092 74.0384L32.2332 73.7696L35.9329 76.3682L38.2092 74.0384Z" fill="#3D4FC6"/>
<path d="M31.0396 76.6968L35.933 76.3688L32.2332 73.7702L31.0396 76.6968Z" fill="#6B73AF"/>
<path d="M12.9969 64.6495L10.2792 62.0606L10.2322 64.8208L12.9969 64.6495Z" fill="#454B82"/>
<path d="M6.64526 64.4468L10.2321 64.8208L10.2791 62.0606L6.64526 64.4468Z" fill="#42487C"/>
<path d="M84.8976 73.2715L86.6901 71.0098L83.9009 69.8969L84.8976 73.2715Z" fill="#E1D9B3"/>
<path d="M77.8608 70.362L81.7303 71.9673L79.4584 69.41L77.8608 70.362Z" fill="#DBD4B3"/>
<path d="M86.6901 71.0103L88.4345 68.6959L85.8191 67.99L86.6901 71.0103Z" fill="#E5DDB3"/>
<path d="M81.5017 68.0949L81.7304 71.9673L83.901 69.8971L81.5017 68.0949Z" fill="#E2DBB3"/>
<path d="M6.30029 42.604L9.58488 41.7624L6.82958 41.2215L6.30029 42.604Z" fill="#222447"/>
<path d="M14.0365 41.511L9.58496 41.7623L11.5154 43.7949L14.0365 41.511Z" fill="#1F2141"/>
<path d="M28.7361 88.1461L26.9902 90.6912L28.5417 91.4912L28.7361 88.1461Z" fill="#9596A6"/>
<path d="M31.4436 86.6542L27.0222 85.5795L28.7363 88.146L31.4436 86.6542Z" fill="#9596A6"/>
<path d="M59.9814 83.2161L62.673 84.6484L63.5086 81.7338L59.9814 83.2161Z" fill="#A4A5B7"/>
<path d="M63.6246 88.374L62.6729 84.6486L60.7073 86.9619L63.6246 88.374Z" fill="#ABACB5"/>
<path d="M58.8423 90.2793L61.546 90.1057L60.7073 86.9617L58.8423 90.2793Z" fill="#A0A2B5"/>
<path d="M67.2409 89.8756L63.6248 88.3738L65.705 90.8535L67.2409 89.8756Z" fill="#B1B0B5"/>
<path d="M64.3126 91.6753L61.5461 90.1057L62.7234 92.5376L64.3126 91.6753Z" fill="#AAAAB5"/>
<path d="M60.7073 86.9615L61.546 90.1055L63.6246 88.3736L60.7073 86.9615Z" fill="#A5A6B6"/>
<path d="M2.73169 57.5591L6.06902 56.5812L3.00389 55.7165L2.73169 57.5591Z" fill="#373C6D"/>
<path d="M7.79004 59.2524L11.0648 58.4072L8.96762 56.4052L7.79004 59.2524Z" fill="#393E71"/>
<path d="M10.2792 62.0611L5.46338 61.466L6.64536 64.4473L10.2792 62.0611Z" fill="#3F4579"/>
<path d="M5.46338 61.4658L7.79024 59.2528L6.06911 56.5813L5.46338 61.4658Z" fill="#3D4275"/>
<path d="M18.9622 50.9316L18.1987 47.0154L15.8633 49.2844L18.9622 50.9316Z" fill="#2B305F"/>
<path d="M10.0563 53.7222L15.253 52.4775L9.93994 50.8828L10.0563 53.7222Z" fill="#303463"/>
<path d="M12.6353 49.1027L15.8633 49.2842L14.3794 46.3896L12.6353 49.1027Z" fill="#282C56"/>
<path d="M18.9621 50.9317L15.8631 49.2845L15.2529 52.4775L18.9621 50.9317Z" fill="#2B305F"/>
<path d="M12.635 49.1025L14.3792 46.3894L11.5151 43.7946L12.635 49.1025Z" fill="#282C56"/>
<path d="M15.253 52.4775L12.6352 49.103L9.93994 50.8828L15.253 52.4775Z" fill="#2D3261"/>
<path d="M58.4376 85.4559L56.2268 89.2449L58.8424 90.2793L58.4376 85.4559Z" fill="#9FA1B6"/>
<path d="M52.9958 87.4049L56.2268 89.2451L55.9035 86.4592L52.9958 87.4049Z" fill="#9397B5"/>
<path d="M33.918 82.6017L29.9043 83.3726L31.4435 86.6538L33.918 82.6017Z" fill="#9596A6"/>
<path d="M27.2056 80.2533L29.9043 83.373L30.3325 79.7762L27.2056 80.2533Z" fill="#8588A7"/>
<path d="M33.8206 93.7671L37.5259 91.4133L34.514 89.5859L33.8206 93.7671Z" fill="#9596A6"/>
<path d="M37.6467 95.0273L37.5259 91.4131L35.7185 94.4305L37.6467 95.0273Z" fill="#9596A8"/>
<path d="M39.342 88.4007L37.5261 91.4131L40.3925 91.0794L39.342 88.4007Z" fill="#9093AA"/>
<path d="M40.3925 91.0795L37.5261 91.4131L37.6469 95.0273L40.3925 91.0795Z" fill="#9294AA"/>
<path d="M83.3057 66.8408L85.819 67.9897L85.3197 65.3356L83.3057 66.8408Z" fill="#E5DDB3"/>
<path d="M86.6901 71.0103L85.8191 67.99L83.9009 69.8973L86.6901 71.0103Z" fill="#E5DDB3"/>
<path d="M21.2983 37.9887L17.3962 39.5688L21.2728 40.0391L21.2983 37.9887Z" fill="#1B1C37"/>
<path d="M14.0365 41.5112L17.3961 39.5685L13.769 38.1262L14.0365 41.5112Z" fill="#1F2141"/>
<path d="M13.769 38.1261L17.3961 39.5684L16.6016 36.3019L13.769 38.1261Z" fill="#1C1D3A"/>
<path d="M16.6016 36.3019L17.396 39.5684L21.2981 37.9882L16.6016 36.3019Z" fill="#1A1B35"/>
<path d="M17.396 39.5684L14.0364 41.5111L16.8524 43.4224L17.396 39.5684Z" fill="#1D1E3B"/>
<path d="M10.947 39.315L14.0364 41.5112L13.769 38.1262L10.947 39.315Z" fill="#1E1F3D"/>
<path d="M68.656 82.6565L65.9309 83.0339L68.3966 85.5303L68.656 82.6565Z" fill="#BCBAB5"/>
<path d="M71.8206 82.4409L71.988 86.3843L73.5063 85.1186L71.8206 82.4409Z" fill="#C2C0B5"/>
<path d="M68.3965 85.53L65.9309 83.0336L65.5093 85.7432L68.3965 85.53Z" fill="#B8B7B5"/>
<path d="M66.0565 79.0998L65.9309 83.0342L68.656 82.6568L66.0565 79.0998Z" fill="#B8B7B5"/>
<path d="M68.7593 88.8359L68.3965 85.5305L65.5093 85.7437L68.7593 88.8359Z" fill="#B5B4B5"/>
<path d="M71.9879 86.3847L68.3965 85.5307L70.2786 87.7231L71.9879 86.3847Z" fill="#BEBCB5"/>
<path d="M75.2124 83.6102L71.8206 82.441L73.5064 85.1187L75.2124 83.6102Z" fill="#C7C3B4"/>
<path d="M71.5058 79.2955L68.656 82.6567L71.8205 82.441L71.5058 79.2955Z" fill="#C5C2B5"/>
<path d="M43.9028 82.0522L45.3484 77.7575L42.2097 78.7104L43.9028 82.0522Z" fill="#777FB8"/>
<path d="M45.3484 77.7574L47.2756 80.4038L49.387 75.512L45.3484 77.7574Z" fill="#6571C0"/>
<path d="M16.2347 58.6744L11.0647 58.4074L13.7041 60.5161L16.2347 58.6744Z" fill="#383E76"/>
<path d="M8.96777 56.4053L12.4166 55.3169L10.0565 53.7221L8.96777 56.4053Z" fill="#34396A"/>
<path d="M7.20679 53.6158L8.9676 56.4053L10.0563 53.7221L7.20679 53.6158Z" fill="#303462"/>
<path d="M7.78998 59.2524L8.96757 56.4052L6.06885 56.581L7.78998 59.2524Z" fill="#393E71"/>
<path d="M69.954 9.45679C69.954 9.45679 71.9174 5.72129 68.0799 3.14209C64.2424 0.562882 31.2462 -7.11821 11.2888 18.0231C6.12117 24.5331 2.44954 32.1833 0.881764 40.3506C-0.547014 47.7936 -0.224072 55.5297 1.7388 62.8467C3.67546 70.0656 7.17343 76.9066 12.0582 82.5867C17.6429 89.0806 25.004 94.0307 33.0555 96.9574C35.333 97.7854 37.6699 98.4517 40.0434 98.9446C49.125 100.831 58.72 100.175 67.4636 97.0896C69.0038 96.5463 70.5075 95.8836 71.975 95.1672C78.6035 91.9309 84.3601 87.1223 88.8977 81.3347C90.0248 79.8971 91.078 78.4024 92.0588 76.862C99.2702 65.5325 103.538 49.2942 96.129 30.9219C96.129 30.9219 94.0467 25.9341 87.9363 28.9788C85.2591 30.3128 82.444 43.3612 81.9774 49.822C81.511 56.2829 76.3845 83.2153 53.6473 90.783C30.9103 98.3509 5.13327 80.8745 8.51761 53.0588C11.9018 25.2433 41.6865 19.3693 56.1103 16.8812C70.5341 14.3929 69.954 9.45679 69.954 9.45679Z" fill="#F4F5F8"/>
<path d="M41.952 18.8645C33.6271 21.0395 20.5338 26.3556 12.1079 38.8607C3.6822 51.3657 7.68274 66.4685 7.68274 66.4685C7.68274 66.4685 8.71327 74.0803 17.715 83.8972C26.7168 93.714 49.5091 98.567 63.8957 86.9276C78.282 75.2886 80.8685 60.3468 82.6061 51.084C84.3439 41.8208 85.3541 36.263 86.6475 32.5981C87.9404 28.9332 90.6077 28.0754 90.6077 28.0754C84.0002 27.6526 83.6972 40.6731 80.6665 55.5947C77.6354 70.5162 65.8758 95.1034 39.9314 92.5662C13.987 90.029 7.68274 65.8645 7.68274 59.9442C7.68274 21.5219 50.2364 18.4418 60.1776 16.1461C70.119 13.8505 69.9541 9.45698 69.9541 9.45698C65.832 15.0148 50.2769 16.6898 41.952 18.8645Z" fill="url(#paint1_linear)"/>
<defs>
<linearGradient id="paint0_linear" x1="73.4073" y1="12.0541" x2="45.9118" y2="63.361" gradientUnits="userSpaceOnUse">
<stop stop-color="#FDFDFE"/>
<stop offset="0.153538" stop-color="#6472EB"/>
<stop offset="0.516258" stop-color="#2D39A1"/>
<stop offset="1" stop-color="#6070D7"/>
</linearGradient>
<linearGradient id="paint1_linear" x1="6.73368" y1="51.5893" x2="90.6077" y2="51.5893" gradientUnits="userSpaceOnUse">
<stop stop-color="#D4D6E5"/>
<stop offset="0.53352" stop-color="#CED0E1"/>
<stop offset="1" stop-color="#F3F3F8"/>
</linearGradient>
</defs>
</svg>
