<svg width="324" height="367" viewBox="0 0 324 367" fill="none" xmlns="http://www.w3.org/2000/svg">
<path d="M0.09996 0C108.067 0 216.033 0 324 0C318.102 67.1268 312.204 134.154 306.006 201.281C302.307 244.134 298.508 286.987 294.509 329.84C271.516 335.934 248.623 342.926 225.63 349.02C204.437 355.213 183.143 360.807 161.95 367H161.35C141.256 361.007 120.863 355.712 100.769 349.719C76.9762 343.326 53.4835 336.134 29.6908 329.84C26.5918 297.775 23.7927 265.61 20.9935 233.446C15.7951 174.11 10.0969 114.775 5.09842 55.3397C3.39894 37.4592 2.09935 19.5787 0 1.69815V0H0.09996ZM162.55 26.4711C162.35 39.3571 162.75 52.2431 162.35 65.129C125.261 65.0291 88.2728 65.129 51.1842 65.129C51.784 77.6154 53.4835 90.1018 55.183 102.488C89.6723 103.787 124.162 102.488 158.651 103.487C128.46 116.973 97.9698 129.759 67.6791 142.944C65.0799 144.143 62.2808 144.942 59.9815 146.64C60.2814 160.425 62.4807 174.01 63.4804 187.795C81.8747 187.695 100.169 187.396 118.563 187.396C133.259 187.296 148.054 187.596 162.75 187.296C162.05 209.871 162.95 232.547 162.25 255.122C152.353 253.624 142.556 251.426 132.659 249.728C124.861 248.03 116.864 247.131 109.266 244.933C108.167 234.045 107.467 223.257 106.467 212.369C104.268 211.669 101.869 211.769 99.5693 211.669C88.4727 211.769 77.2762 211.669 66.1796 211.769C67.2792 232.646 69.1786 253.424 72.3777 274.101C83.3743 276.998 94.3709 279.795 105.268 282.792C122.062 287.387 139.057 291.183 155.852 295.678C157.851 296.077 159.851 296.876 161.95 296.677C163.05 310.362 162.25 324.247 162.45 337.932C166.349 337.332 170.147 336.333 173.846 335.235C205.637 326.644 237.427 317.754 269.317 309.063C270.916 296.577 271.616 283.99 272.916 271.404C276.215 233.346 279.514 195.187 283.013 157.129C287.111 113.576 290.61 69.9238 294.709 26.3713C250.623 26.4711 206.536 26.3713 162.55 26.4711Z" fill="#0170BA"/>
<path d="M162.55 26.471C206.536 26.3711 250.623 26.471 294.709 26.3711C290.61 69.9236 287.111 113.576 283.013 157.129C279.514 195.187 276.215 233.345 272.916 271.404C271.616 283.89 270.916 296.477 269.317 309.063C237.527 317.754 205.736 326.544 173.846 335.234C170.147 336.433 166.249 337.332 162.45 337.932C162.25 324.147 163.15 310.362 161.95 296.676C162.25 296.577 162.85 296.477 163.05 296.477C192.64 289.085 222.031 280.894 251.622 273.202C255.321 231.348 259.52 189.493 262.119 147.539C237.027 147.639 211.835 147.639 186.742 147.739C183.043 147.739 179.445 147.739 175.746 147.439C189.242 140.447 203.437 134.953 217.333 128.759C230.629 122.766 244.125 117.072 257.52 111.179C260.12 109.98 262.819 108.981 265.118 107.283C266.018 103.986 265.918 100.59 266.318 97.2938C267.117 86.7053 268.417 76.1169 268.917 65.5284C233.328 65.2287 197.739 65.5284 162.15 65.3286C162.75 52.3428 162.35 39.3569 162.55 26.471Z" fill="#29A9DF"/>
<path d="M162.75 187.296C179.944 186.996 197.139 187.496 214.334 187.396C213.334 204.976 211.935 222.457 211.035 240.038C200.538 243.435 189.841 246.431 179.245 249.528C173.546 251.226 167.748 252.625 162.35 255.122C162.95 232.546 162.05 209.971 162.75 187.296Z" fill="#29A9DF"/>
<path d="M51.1841 65.229C88.2726 65.229 125.261 65.1291 162.35 65.229C162.85 105.985 162.25 146.64 162.75 187.396C148.054 187.695 133.259 187.396 118.563 187.496C100.169 187.496 81.8746 187.795 63.4803 187.895C62.4806 174.21 60.2813 160.525 59.9814 146.74C62.2807 145.042 65.0798 144.143 67.679 143.044C97.9696 129.859 128.46 117.072 158.651 103.587C124.162 102.588 89.6722 103.887 55.1828 102.588C53.4834 90.1019 51.7839 77.7154 51.1841 65.229Z" fill="#CFCFCF"/>
<path d="M66.1794 211.769C77.276 211.57 88.4726 211.67 99.5691 211.67C101.868 211.67 104.168 211.669 106.467 212.369C107.467 223.257 108.166 234.145 109.266 244.933C116.964 247.131 124.861 248.03 132.659 249.728C142.556 251.526 152.353 253.724 162.25 255.122C163.15 268.907 161.55 282.692 163.15 296.377C162.85 296.477 162.25 296.577 162.05 296.577C159.951 296.777 157.951 295.978 155.952 295.578C139.157 291.083 122.162 287.287 105.367 282.692C94.3707 279.695 83.3741 276.898 72.4775 274.002C69.1785 253.524 67.2791 232.647 66.1794 211.769Z" fill="#CFCFCF"/>
<path d="M162.35 65.2285C197.939 65.4283 233.528 65.1286 269.117 65.4283C268.617 76.0168 267.218 86.6052 266.518 97.1937C266.118 100.49 266.218 103.986 265.318 107.183C263.019 108.981 260.32 109.88 257.72 111.079C244.325 116.972 230.929 122.666 217.533 128.659C203.637 134.853 189.441 140.347 175.946 147.339C179.545 147.639 183.243 147.639 186.942 147.639C212.035 147.539 237.227 147.639 262.319 147.439C259.72 189.393 255.521 231.248 251.822 273.102C222.331 280.794 192.84 288.985 163.25 296.377C161.65 282.691 163.35 268.807 162.35 255.122C167.748 252.624 173.546 251.226 179.245 249.528C189.841 246.331 200.538 243.434 211.035 240.038C211.935 222.457 213.434 204.976 214.334 187.395C197.139 187.495 179.944 186.996 162.75 187.295C162.15 146.64 162.75 105.884 162.35 65.2285Z" fill="white"/>
</svg>
