<svg width="65" height="65" viewBox="0 0 65 65" fill="none" xmlns="http://www.w3.org/2000/svg">
<path d="M32.5018 1.62695C24.3133 1.62695 16.4601 4.87983 10.67 10.67C4.87983 16.4601 1.62695 24.3133 1.62695 32.5018C1.62695 40.6903 4.87983 48.5435 10.67 54.3336C16.4601 60.1238 24.3133 63.3766 32.5018 63.3766C40.6903 63.3766 48.5435 60.1238 54.3336 54.3336C60.1238 48.5435 63.3766 40.6903 63.3766 32.5018C63.3766 24.3133 60.1238 16.4601 54.3336 10.67C48.5435 4.87983 40.6903 1.62695 32.5018 1.62695V1.62695Z" fill="#37474F"/>
<path d="M34.2305 34.3965L38.1451 44.6843C39.0323 45.8884 40.0869 46.9414 41.3447 47.6548C45.2755 49.8859 50.2821 48.5989 52.5263 44.7802C52.5246 44.7802 34.679 34.7394 34.2305 34.3965Z" fill="#FF7043"/>
<path d="M34.2305 34.3978C34.7553 34.6074 52.5263 44.7799 52.5263 44.7799C54.7687 40.9595 53.4005 36.0553 49.468 33.8242C48.2103 33.1108 46.7559 32.7403 45.2512 32.5859L34.2305 34.3978Z" fill="#F16461"/>
<path d="M47.9248 36.6366C47.452 36.3684 46.9417 36.1393 46.4152 35.9297C46.5842 37.5433 46.2771 39.2187 45.3882 40.7315C44.4994 42.2444 43.1782 43.3429 41.6719 44.0059C42.1204 44.3488 42.577 44.6689 43.0499 44.937C47.9752 47.732 51.1764 47.0722 52.5236 44.781C53.8707 42.4881 52.8502 39.4315 47.9248 36.6366Z" fill="#FF5252"/>
<path d="M38.4531 40.8437C39.4102 41.9975 40.4941 43.1057 41.6722 44.0043C43.1786 43.3414 44.5013 42.2429 45.3886 40.73C46.2775 39.2171 46.5846 37.5418 46.4156 35.9281C45.0343 35.3757 43.515 35.0068 42.0216 34.7695C42.0931 35.9736 41.8266 37.2119 41.1685 38.3348C40.5071 39.4576 39.55 40.3042 38.4531 40.8437Z" fill="#FF855F"/>
<path d="M41.673 44.0044C40.4948 43.1057 39.411 41.9959 38.4538 40.8438C37.7697 41.1801 37.0304 41.3832 36.2715 41.4677C36.7866 42.5776 37.4057 43.6826 38.1451 44.6852C39.3622 44.7128 40.5663 44.4902 41.673 44.0044Z" fill="#FF8A65"/>
<path d="M42.0196 34.7704C43.5146 35.0093 45.034 35.3765 46.4136 35.929C46.2901 34.7428 45.8839 33.6085 45.2485 32.5848C43.9956 32.4564 42.7135 32.484 41.4785 32.5994C41.7824 33.2884 41.9758 34.0196 42.0196 34.7704Z" fill="#FF8A80"/>
<path d="M41.1692 38.3329C41.8289 37.21 42.0954 35.9734 42.0223 34.7677C38.0053 34.1274 34.2305 34.3955 34.2305 34.3955C34.2305 34.3955 35.8815 37.743 38.4554 40.8419C39.5523 40.3024 40.5094 39.4558 41.1692 38.3329Z" fill="#FFCCBC"/>
<path d="M38.4546 40.8428C35.8806 37.744 34.2296 34.3965 34.2296 34.3965C34.1354 34.5557 34.1012 34.7491 34.1419 34.9457C34.3905 36.1515 35.0356 38.8116 36.2706 41.4684C37.0295 41.3823 37.7705 41.1808 38.4546 40.8428Z" fill="#FFAB91"/>
<path d="M41.4815 32.5996C38.5224 32.8759 35.8574 33.6575 34.6712 34.0491C34.4778 34.1125 34.325 34.2392 34.2324 34.3985C34.2324 34.3985 38.0073 34.1303 42.0243 34.7706C41.9788 34.0198 41.7854 33.2886 41.4815 32.5996Z" fill="#FFCDD2"/>
<path d="M30.7492 34.3965C30.3007 34.7394 12.4551 44.7786 12.4551 44.7786C14.6992 48.5973 19.7042 49.8843 23.6366 47.6532C24.8944 46.9398 25.949 45.8868 26.8363 44.6827L30.7492 34.3965Z" fill="#C6CF47"/>
<path d="M30.7506 34.3959L19.7299 32.584C18.2252 32.7367 16.7692 33.1089 15.513 33.8222C11.5822 36.0533 10.2123 40.9576 12.4548 44.7779C12.4564 44.7779 30.2257 34.6071 30.7506 34.3959Z" fill="#E1EB8A"/>
<path d="M21.9307 44.9351C22.4036 44.6669 22.8602 44.3452 23.3087 44.0039C21.8023 43.3409 20.4796 42.2425 19.5923 40.7296C18.7035 39.2167 18.3963 37.5414 18.5653 35.9277C18.0405 36.1374 17.5286 36.3665 17.0557 36.6346C12.1304 39.4296 11.1115 42.4846 12.457 44.7774C13.8041 47.0703 17.0053 47.7301 21.9307 44.9351Z" fill="#DCE775"/>
<path d="M22.9579 34.7695C21.4629 35.0084 19.9436 35.3757 18.5639 35.9282C18.3949 37.5418 18.7021 39.2171 19.5909 40.73C20.4798 42.2429 21.8009 43.3414 23.3073 44.0044C24.4854 43.1057 25.5693 41.9959 26.5264 40.8438C25.4295 40.3026 24.4724 39.4576 23.8127 38.3348C23.1529 37.2103 22.8864 35.9737 22.9579 34.7695Z" fill="#FFF59D"/>
<path d="M18.5645 35.9284C19.9457 35.3759 21.4651 35.007 22.9584 34.7697C23.0039 34.019 23.1957 33.2877 23.4996 32.5987C22.2646 32.4834 20.9808 32.4574 19.7296 32.5841C19.0942 33.6079 18.688 34.7437 18.5645 35.9284Z" fill="#E6EE9C"/>
<path d="M26.5277 40.8438C25.5706 41.9975 24.4867 43.1057 23.3086 44.0044C24.4152 44.4919 25.6193 44.7145 26.8381 44.6852C27.5775 43.6826 28.195 42.5776 28.7117 41.4677C27.9512 41.3832 27.2118 41.1817 26.5277 40.8438Z" fill="#FFD740"/>
<path d="M23.8141 38.3329C24.4738 39.4558 25.4309 40.3008 26.5278 40.8419C29.1018 37.743 30.7528 34.3955 30.7528 34.3955C30.7528 34.3955 26.9779 34.1274 22.961 34.7677C22.8878 35.9734 23.1543 37.21 23.8141 38.3329Z" fill="#FFF9C4"/>
<path d="M22.959 34.7686C26.976 34.1284 30.7508 34.3965 30.7508 34.3965C30.6566 34.2373 30.5054 34.1105 30.3121 34.0471C29.1242 33.6555 26.4592 32.8755 23.5017 32.5977C23.1962 33.2867 23.0045 34.0179 22.959 34.7686Z" fill="#F0F4C3"/>
<path d="M28.7094 41.4665C29.9444 38.8096 30.5895 36.1511 30.8381 34.9438C30.8787 34.7472 30.8446 34.5538 30.7504 34.3945C30.7504 34.3945 29.0994 37.742 26.5254 40.8409C27.2111 41.1805 27.9505 41.382 28.7094 41.4665Z" fill="#FFE082"/>
<path d="M60.7258 40.0625C60.0579 42.5601 59.0764 44.9261 57.8105 47.1133L60.6234 48.7367C62.0306 46.3057 63.1194 43.6797 63.862 40.9026L60.7258 40.0625Z" fill="#F44336"/>
<path d="M11.8173 53.1816L9.51953 55.4794C11.5199 57.4797 13.7981 59.1957 16.2633 60.6225L17.8866 57.8096C15.6685 56.5259 13.6178 54.9821 11.8173 53.1816Z" fill="#FFD740"/>
<path d="M3.24998 32.5H0C0 35.412 0.419247 38.2184 1.13749 40.9045L4.27373 40.0643C3.62698 37.6464 3.24998 35.1195 3.24998 32.5Z" fill="#AED581"/>
<path d="M7.18981 47.1133L4.37695 48.7366C5.8037 51.2018 7.51969 53.4784 9.52005 55.4804L11.8178 53.1826C10.0173 51.3821 8.47356 49.3314 7.18981 47.1133Z" fill="#FFF176"/>
<path d="M4.27295 40.0625L1.13672 40.9042C1.87934 43.6797 2.96971 46.3073 4.37533 48.7383L7.18819 47.115C5.92232 44.9261 4.94082 42.5617 4.27295 40.0625Z" fill="#DCE775"/>
<path d="M17.887 57.8105L16.2637 60.6234C18.6947 62.029 21.3206 63.1194 24.0978 63.862L24.9379 60.7258C22.4386 60.0579 20.0743 59.0764 17.887 57.8105Z" fill="#FFCA28"/>
<path d="M47.1133 57.8096L48.7366 60.6225C51.2018 59.1957 53.48 57.4797 55.4804 55.4794L53.1826 53.1816C51.3821 54.9821 49.3314 56.5259 47.1133 57.8096Z" fill="#FF7043"/>
<path d="M40.0625 60.7258L40.9026 63.862C43.6781 63.1194 46.3057 62.029 48.7367 60.6234L47.1133 57.8105C44.9261 59.0764 42.5617 60.0579 40.0625 60.7258Z" fill="#FB8C00"/>
<path d="M53.1816 53.1826L55.4794 55.4804C57.4797 53.48 59.1957 51.2018 60.6225 48.7366L57.8096 47.1133C56.5259 49.3314 54.9821 51.3821 53.1816 53.1826Z" fill="#FF5252"/>
<path d="M24.9378 60.7266L24.0977 63.8628C26.7821 64.581 29.5885 65.0003 32.5005 65.0003V61.7503C29.881 61.7503 27.3541 61.3733 24.9378 60.7266Z" fill="#FFB74D"/>
<path d="M32.5 61.7503V65.0003C35.412 65.0003 38.2184 64.581 40.9045 63.8628L40.0643 60.7266C37.6464 61.3733 35.1195 61.7503 32.5 61.7503Z" fill="#FFA726"/>
<path d="M24.9375 4.27295L24.0958 1.13672C21.3203 1.87934 18.6927 2.96971 16.2617 4.37533L17.8851 7.18819C20.0739 5.92232 22.4383 4.94082 24.9375 4.27295Z" fill="#64B5F6"/>
<path d="M60.7258 24.9379L63.862 24.0978C63.1194 21.3223 62.029 18.6947 60.6234 16.2637L57.8105 17.887C59.0764 20.0743 60.0579 22.4386 60.7258 24.9379Z" fill="#9575CD"/>
<path d="M57.8096 17.8866L60.6225 16.2633C59.1957 13.7981 57.4797 11.5199 55.4794 9.51953L53.1816 11.8173C54.9821 13.6178 56.5259 15.6685 57.8096 17.8866Z" fill="#7986CB"/>
<path d="M53.1826 11.8178L55.4804 9.52005C53.48 7.51969 51.2018 5.8037 48.7366 4.37695L47.1133 7.18981C49.3314 8.47356 51.3821 10.0173 53.1826 11.8178Z" fill="#8C9EFF"/>
<path d="M47.1137 7.18819L48.737 4.37533C46.3077 2.96808 43.6801 1.87771 40.9046 1.13672L40.0645 4.27295C42.5621 4.94082 44.9264 5.92232 47.1137 7.18819Z" fill="#82B1FF"/>
<path d="M61.7503 32.5002H65.0003C65.0003 29.5882 64.581 26.7818 63.8628 24.0957L60.7266 24.9358C61.3733 27.3538 61.7503 29.8807 61.7503 32.5002Z" fill="#F06292"/>
<path d="M4.27373 24.9375L1.13749 24.0957C0.419247 26.7818 0 29.5882 0 32.5002H3.24998C3.24998 29.8807 3.62698 27.3538 4.27373 24.9375Z" fill="#9CCC65"/>
<path d="M60.7266 40.0627L63.8628 40.9028C64.581 38.2183 65.0003 35.412 65.0003 32.5H61.7503C61.7503 35.1195 61.3733 37.6464 60.7266 40.0627Z" fill="#EF5350"/>
<path d="M40.0627 4.27373L40.9028 1.13749C38.2183 0.419247 35.412 0 32.5 0V3.24998C35.1195 3.24998 37.6464 3.62698 40.0627 4.27373Z" fill="#64B5F6"/>
<path d="M11.8178 11.8173L9.52005 9.51953C7.51969 11.5199 5.8037 13.7981 4.37695 16.2633L7.18981 17.8866C8.47356 15.6685 10.0173 13.6178 11.8178 11.8173Z" fill="#68C1B8"/>
<path d="M7.18819 17.887L4.37533 16.2637C2.96808 18.693 1.87771 21.3206 1.13672 24.0961L4.27295 24.9363C4.94082 22.4386 5.92232 20.0743 7.18819 17.887Z" fill="#81C784"/>
<path d="M17.8866 7.18981L16.2633 4.37695C13.7981 5.8037 11.5199 7.51969 9.51953 9.52005L11.8173 11.8178C13.6178 10.0173 15.6685 8.47356 17.8866 7.18981Z" fill="#4DB6AC"/>
<path d="M32.5002 3.24998V0C29.5882 0 26.7818 0.419247 24.0957 1.13749L24.9358 4.27373C27.3538 3.62698 29.8807 3.24998 32.5002 3.24998Z" fill="#4BA9F5"/>
<path d="M32.5016 11.377L32.5 32.5018C32.6869 32.5018 32.8737 32.4336 33.0265 32.2987C34.8286 30.7079 40.625 25.152 40.625 19.5978C40.625 15.0576 36.9882 11.3786 32.5016 11.377Z" fill="#7986CB"/>
<path d="M32.5 11.377C32.4983 11.377 32.4983 11.377 32.5 11.377C28.0134 11.377 24.375 15.0576 24.375 19.5978C24.375 25.152 30.1713 30.7079 31.9735 32.2987C32.1262 32.4336 32.3131 32.5018 32.5 32.5018V11.377Z" fill="#26A69A"/>
<path d="M32.5 11.377C29.8057 11.377 27.625 13.8144 27.625 19.5019C27.625 25.3356 32.5 32.5018 32.5 32.5018C32.5 32.5018 37.3749 25.3356 37.3749 19.5019C37.3749 13.8144 35.1926 11.377 32.5 11.377Z" fill="#82B1FF"/>
<path d="M32.5 11.377C33.3824 11.377 34.0291 11.5265 34.1201 11.5476C36.9249 12.1862 39 14.4189 39 17.0644C39 18.5432 38.3337 19.8919 37.2775 20.8994C37.2937 20.7857 32.9566 11.4257 32.5 11.377Z" fill="#4DB6AC"/>
<path d="M35.4579 27.0742C34.0929 30.1617 32.5005 32.5017 32.5005 32.5017C32.5005 32.5017 30.908 30.1617 29.543 27.0742C30.4692 27.4317 31.4605 27.6267 32.5005 27.6267C33.5404 27.6267 34.5317 27.4317 35.4579 27.0742Z" fill="#90CAF9"/>
<path d="M27.7225 20.8994C26.65 19.9082 26 18.5432 26 17.0644C26 14.3182 28.2262 12.0269 31.1837 11.4907C31.4437 11.442 32.2253 11.377 32.5 11.377C30.0462 11.6695 27.6575 20.4282 27.7225 20.8994Z" fill="#8DD0CA"/>
<path d="M37.3749 19.5019C37.3749 19.7294 37.3749 19.9732 37.3424 20.2007C37.3424 20.4282 37.3099 20.6719 37.2774 20.8994C36.0912 22.0369 34.385 22.7519 32.5 22.7519C30.615 22.7519 28.9087 22.0369 27.7225 20.8994C27.6575 20.4282 27.625 19.9569 27.625 19.5019C27.625 14.1719 29.5425 11.702 31.9962 11.4095C32.1587 11.377 32.3375 11.377 32.5 11.377C32.6625 11.377 32.8412 11.377 33.0037 11.4095C33.4587 11.4582 33.9137 11.5882 34.32 11.8157C34.45 11.8807 34.58 11.9619 34.71 12.0432C34.84 12.1244 34.97 12.2219 35.1 12.3519C35.2137 12.4494 35.3275 12.5469 35.425 12.6607C35.7987 13.0507 36.14 13.5382 36.4 14.1394C36.4812 14.3182 36.5625 14.4969 36.6275 14.6757C36.7087 14.8707 36.7737 15.0657 36.8387 15.2769C36.9037 15.4557 36.9525 15.6507 36.985 15.8457C37.05 16.1057 37.115 16.3657 37.1475 16.6419C37.2125 16.9507 37.2612 17.2919 37.2937 17.6332C37.3424 18.2019 37.3749 18.8357 37.3749 19.5019Z" fill="#80CBC4"/>
<path d="M40.5925 20.2324C40.1862 25.5786 34.7587 30.7786 33.02 32.3061C32.8737 32.4361 32.695 32.5011 32.5 32.5011C32.5 32.5011 34.0925 30.1611 35.4575 27.0736C38.2525 25.9686 40.3 23.3524 40.5925 20.2324Z" fill="#9FA8DA"/>
<path d="M32.5007 32.5011C32.3057 32.5011 32.1269 32.4361 31.9807 32.3061C30.2419 30.7786 24.8145 25.5786 24.4082 20.2324C24.7007 23.3524 26.7482 25.9686 29.5432 27.0736C30.9082 30.1611 32.5007 32.5011 32.5007 32.5011Z" fill="#81C784"/>
</svg>
