<svg width="400" height="400" viewBox="0 0 400 400" fill="none" xmlns="http://www.w3.org/2000/svg">
<rect x="9" y="9" width="383" height="383" rx="191.5" fill="#353535"/>
<path d="M160 320C182.1 320 200 302.1 200 280V240H160C137.9 240 120 257.9 120 280C120 302.1 137.9 320 160 320Z" fill="#0ACF83"/>
<path d="M120 200C120 177.9 137.9 160 160 160H200V240H160C137.9 240 120 222.1 120 200Z" fill="#A259FF"/>
<path d="M120 120C120 97.9 137.9 80 160 80H200V160H160C137.9 160 120 142.1 120 120Z" fill="#F24E1E"/>
<path d="M200 80H240C262.1 80 280 97.9 280 120C280 142.1 262.1 160 240 160H200V80Z" fill="#FF7262"/>
<path d="M280 200C280 222.1 262.1 240 240 240C217.9 240 200 222.1 200 200C200 177.9 217.9 160 240 160C262.1 160 280 177.9 280 200Z" fill="#1ABCFE"/>
</svg>
