<?xml version="1.0" encoding="utf-8"?>
<!-- Generator: Adobe Illustrator 24.1.2, SVG Export Plug-In . SVG Version: 6.00 Build 0)  -->
<svg version="1.1" id="Layer_1" xmlns="http://www.w3.org/2000/svg" xmlns:xlink="http://www.w3.org/1999/xlink" x="0px" y="0px"
	 viewBox="0 0 228.28 227.28" style="enable-background:new 0 0 228.28 227.28;" xml:space="preserve">
<style type="text/css">
	.st0{display:none;fill:#19003E;}
	.st1{display:none;fill:#D392FF;}
	.st2{display:none;fill:none;stroke:#D392FF;stroke-width:10;stroke-miterlimit:10;}
	.st3{fill:#1B0124;}
	.st4{fill:#DF76FF;}
	.st5{fill:none;stroke:#DF76FF;stroke-width:10;stroke-miterlimit:10;}
</style>
<path class="st0" d="M211.87,73.97c5.3,12.8,8,26.3,8,40.4s-2.7,27.6-8,40.4c-5.3,12.8-13,24.3-23.1,34.3
	c-10.1,10.1-21.5,17.7-34.3,23s-26.3,8-40.4,8s-27.6-2.7-40.4-8s-24.3-13-34.3-23s-17.7-21.5-23-34.3s-8-26.3-8-40.4
	s2.6-27.6,8-40.4c5.3-12.8,13-24.3,23-34.3s21.5-17.7,34.3-23s26.3-8,40.4-8s27.6,2.6,40.4,8c12.8,5.3,24.3,13,34.3,23
	C198.87,49.67,206.47,61.17,211.87,73.97z M166.17,125.07c0.6-0.5,0.9-3.1,0.9-8c0-3.5-0.7-7-2-10.6s-3.5-6.6-6.5-9
	s-7.1-3.6-12.2-3.6c-7.6,0-13.4,2.9-17.4,8.8s-6,13-6,21.2c0,5.1,0.8,9.8,2.5,14.3c1.6,4.4,4.3,8,8,10.7s8.6,4,14.8,4
	c5.7,0,10.4-0.9,14-2.6c0.5-0.6,0.8-2.5,0.8-5.9c0-3.2,0-4.8-0.1-4.9c0-0.1-0.1-0.1-0.3-0.1l-0.4,0.2c-3.4,1.4-7.2,2-11.4,2
	c-10.1,0-15.2-5.3-15.2-15.9h18.4C161.57,125.77,165.67,125.47,166.17,125.07z M118.97,151.87c0.6,0,0.9-0.2,0.9-0.5
	c0-0.1-3.8-12.8-11.3-38.1c-7.6-25.3-11.4-38.1-11.4-38.2c-0.1-0.2-5.1-0.2-15.2-0.2c-0.4,0-0.6,0.2-0.8,0.6c0,1.7-0.1,3-0.2,3.8
	s-3.6,13-10.3,36.7c-6.8,23.5-10.2,35.4-10.2,35.4c0,0.3,2,0.4,6,0.4c3.8,0,5.9-0.1,6-0.2c0.2-0.2,2.1-7.3,5.7-21.5h22.3l5.9,21.2
	c0.3,0.4,0.6,0.5,1,0.5h11.6V151.87z"/>
<path class="st1" d="M167.07,117.07c0,4.9-0.3,7.5-0.9,8c-0.6,0.5-4.7,0.7-12.3,0.7h-18.4c0,10.6,5.1,15.9,15.2,15.9
	c4.2,0,8-0.7,11.4-2l0.4-0.2c0.1,0,0.2,0,0.3,0.1c0,0.1,0.1,1.7,0.1,4.9c0,3.3-0.3,5.3-0.8,5.9c-3.6,1.7-8.3,2.6-14,2.6
	c-6.2,0-11.1-1.3-14.8-4s-6.3-6.2-8-10.7c-1.6-4.5-2.5-9.2-2.5-14.3c0-8.3,2-15.3,6-21.2c4-5.9,9.8-8.8,17.4-8.8
	c5.1,0,9.2,1.2,12.2,3.6s5.2,5.4,6.5,9C166.37,110.07,167.07,113.57,167.07,117.07z M154.97,114.97c0-1.3-0.3-2.9-0.8-4.6
	s-1.4-3.2-2.7-4.4c-1.3-1.2-3.2-1.8-5.7-1.8c-6.1,0-9.5,4-10.3,12.1h17.9C154.47,116.27,154.97,115.77,154.97,114.97z"/>
<path class="st0" d="M154.27,110.37c0.5,1.7,0.8,3.3,0.8,4.6c0,0.9-0.5,1.3-1.5,1.3h-17.9c0.8-8,4.2-12.1,10.3-12.1
	c2.5,0,4.4,0.6,5.7,1.8C152.87,107.17,153.77,108.67,154.27,110.37z"/>
<path class="st1" d="M119.77,151.27c0,0.4-0.3,0.5-0.9,0.5h-11.6c-0.4,0-0.7-0.2-1-0.5l-5.9-21.2h-22.2c-3.6,14.2-5.5,21.3-5.7,21.5
	c-0.2,0.1-2.2,0.2-6,0.2c-4,0-6-0.1-6-0.4c0-0.1,3.4-11.9,10.2-35.6s10.2-35.9,10.3-36.7c0.1-0.8,0.2-2,0.2-3.8
	c0.1-0.4,0.4-0.6,0.8-0.6c10.1,0,15.1,0.1,15.2,0.2s3.9,12.9,11.4,38.2C116.07,138.57,119.77,151.27,119.77,151.27z M80.97,118.67
	h16.9c-0.7-2.7-1.6-6.2-2.7-10.4c-1.1-4.2-2.2-8.3-3.3-12.3c-1.1-4-1.9-7.4-2.6-10.2C88.17,91.17,85.37,102.17,80.97,118.67z"/>
<path class="st0" d="M97.87,118.67h-16.9c4.4-16.5,7.2-27.5,8.3-32.8c0.6,2.8,1.5,6.2,2.6,10.2s2.2,8.1,3.3,12.3
	C96.27,112.57,97.17,115.97,97.87,118.67z"/>
<path class="st2" d="M73.57,212.17c-12.8-5.3-24.3-13-34.3-23s-17.7-21.5-23-34.3s-8-26.3-8-40.4s2.6-27.6,8-40.4
	c5.3-12.8,13-24.3,23-34.3s21.5-17.7,34.3-23s26.3-8,40.4-8s27.6,2.6,40.4,8c12.8,5.3,24.3,13,34.3,23
	c10.1,10.1,17.7,21.5,23.1,34.3c5.3,12.8,8,26.3,8,40.4s-2.7,27.6-8,40.4c-5.3,12.8-13,24.3-23.1,34.3c-10.1,10.1-21.5,17.7-34.3,23
	s-26.3,8-40.4,8C99.87,220.17,86.47,217.47,73.57,212.17z"/>
<path class="st3" d="M212.18,73.14c5.3,12.8,8,26.3,8,40.4s-2.7,27.6-8,40.4c-5.3,12.8-13,24.3-23,34.3c-10,10.1-21.5,17.7-34.3,23
	s-26.3,8-40.4,8s-27.6-2.7-40.4-8s-24.3-13-34.3-23c-10.1-10.1-17.7-21.5-23-34.3s-8-26.3-8-40.4s2.6-27.6,8-40.4
	c5.3-12.8,13-24.3,23-34.3s21.5-17.7,34.3-23s26.3-8,40.4-8s27.6,2.6,40.4,8c12.8,5.3,24.3,13,34.3,23
	C199.28,48.84,206.88,60.34,212.18,73.14z M167.38,96.04c0-4.6-0.4-6.9-1.1-6.9c-16.4,0.4-27.2,2.5-32.4,6.2l-0.4,0.8
	c0.3,4.7,0.4,16.7,0.4,36s0.1,29,0.3,29.1c0.2,0.1,2.8,0.2,7.8,0.2l7.5-0.1l0.3-56.1c3.8-1.1,9.3-1.8,16.5-1.8
	C166.98,103.24,167.38,100.84,167.38,96.04z M119.88,95.04c0-8.6-2.8-15.8-8.4-21.7c-5.6-5.9-14.5-8.9-26.6-8.9
	c-8.4,0-15.9,0.2-22.4,0.4c-0.6,0-0.9,16.2-0.9,48.5c0,32.1,0.1,48.2,0.2,48.3s2.7,0.2,7.7,0.2l7.4-0.2c0.4-0.2,0.5-11.7,0.5-34.5
	C105.78,127.24,119.88,116.54,119.88,95.04z"/>
<path class="st4" d="M166.28,89.14c0.7,0,1.1,2.3,1.1,6.9c0,4.8-0.4,7.2-1.1,7.2c-7.2,0.1-12.7,0.7-16.5,1.8l-0.3,56.1l-7.5,0.1
	c-5,0-7.6-0.1-7.8-0.2c-0.2-0.1-0.3-9.8-0.3-29.1s-0.1-31.3-0.4-36l0.4-0.8C139.08,91.54,149.88,89.54,166.28,89.14z"/>
<path class="st4" d="M111.48,73.34c5.6,5.9,8.4,13.2,8.4,21.7c0,21.5-14.1,32.2-42.4,32.2c0,22.8-0.2,34.3-0.5,34.5l-7.4,0.2
	c-5,0-7.5-0.1-7.7-0.2c-0.1-0.1-0.2-16.3-0.2-48.3c0-32.4,0.3-48.5,0.9-48.5c6.5-0.3,14-0.4,22.4-0.4
	C96.98,64.54,105.88,67.44,111.48,73.34z M84.38,113.04c13.7,0,20.5-5.9,20.5-17.8c-1.1-11.1-7.5-16.8-19.4-17l-8,0.6l-0.1,34.1h7
	V113.04z"/>
<path class="st3" d="M104.88,95.34c0,11.8-6.8,17.8-20.5,17.8h-6.9l0.1-34.1l8-0.6C97.38,78.54,103.88,84.14,104.88,95.34z"/>
<path class="st5" d="M73.98,211.34c-12.8-5.3-24.3-13-34.3-23c-10.1-10.1-17.7-21.5-23-34.3s-8-26.3-8-40.4s2.6-27.6,8-40.4
	c5.3-12.8,13-24.3,23-34.3s21.5-17.7,34.3-23s26.3-8,40.4-8s27.6,2.6,40.4,8c12.8,5.3,24.3,13,34.3,23c10.1,10.1,17.7,21.5,23,34.3
	s8,26.3,8,40.4s-2.7,27.6-8,40.4c-5.3,12.8-13,24.3-23,34.3c-10,10.1-21.5,17.7-34.3,23s-26.3,8-40.4,8S86.88,216.64,73.98,211.34z"
	/>
</svg>
